<svg width="1600" height="120" fill="none" xmlns="http://www.w3.org/2000/svg"><path fill-rule="evenodd" clip-rule="evenodd" d="M1600 0l-7.5 44c-21.33-2.744-65.5 54.797-115.17 54.797-58.83 0-93-46.654-134.33-43.91-40 2.745-71 49.399-112.33 35.677-41.34-13.722-81.34-52.143-122.67-57.632-46 0-49.17 57.632-90.5 57.632-40 0-114.833-63.12-156.167-57.632C820 38.422 780 76.842 738.667 98.797 697.333 120.752 656 126.241 616 112.52c-41.333-13.722-82.667-46.654-124-57.632-41.333-10.977-81.333 0-122.667 16.466C328 87.82 286.667 109.775 246.667 107.03c-41.334-2.744-82.667-30.188-124-52.143C82.667 32.932 41.333 16.467 20 8.233L0 0h1600z" fill="#DCD3FF"/><path fill-rule="evenodd" clip-rule="evenodd" d="M1600 120l-18.67-12.5c-20-12.5-57.33-37.5-96-52.5-37.33-15-76-20-113.33-5-38.67 15-77.33 50-114.67 62.5-38.66 12.5-76 2.5-114.66-12.5-37.34-15-76-35-114.67-35-37.333 0-76 20-113.333 17.5C876 80 838.667 55 800 42.5s-76-12.5-114.667-15C648 25 609.333 20 572 32.5 533.333 45 494.667 75 457.333 92.5c-38.666 17.5-76 22.5-114.666 12.5-37.334-10-76-35-114.667-45-37.333-10-76-5-113.333-5-38.667 0-76-5-96-7.5L0 45V0h1600v120z" fill="#F2F9FF"/></svg>