<svg width="300" height="61" fill="none" xmlns="http://www.w3.org/2000/svg"><path d="M286.022 52.673c5.885 0 10.054-.735 13.161-2.32v-7.189c-3.188 1.528-7.03 2.49-12.426 2.49-9.073 0-12.833-4.867-12.833-12.565 0-8.095 4.577-12.227 12.915-12.227 4.905 0 9.728 1.189 12.262 2.321v-7.472c-2.698-1.019-7.357-1.755-13.733-1.755-16.267 0-24.687 8.095-24.687 19.416.082 12.396 8.338 19.301 25.341 19.301zm-79.537-3.282V42.2c-3.924 1.869-10.627 3.51-16.758 3.51-9.318 0-12.833-3.056-13.406-9.283h30.736v-4.641c0-12.962-8.256-17.83-20.926-17.83-15.532 0-22.889 8.207-22.889 19.471 0 12.963 9.238 19.245 25.423 19.245 8.092 0 14.06-1.528 17.82-3.282zM89.836 14.636v14.717H72.835V14.636H60.082v37.302h12.752V36.372h17.002v15.566h12.753V14.636H89.837zm70.218 30.283h-5.64V14.636h-37.112v3.17c0 9.113-.817 20.886-5.313 27.113h-4.087v15.51h11.771v-8.491h28.529v8.49h11.771v-15.51h.081zm87.058 7.019h14.468l-20.436-20.095 17.984-17.207h-12.834l-17.983 17.207V14.636h-12.752v37.302h12.752v-18.34l18.801 18.34zm-61.308-31.076c6.294 0 8.256 3.623 8.256 8.321v.736h-17.739c.327-5.944 3.434-9.057 9.483-9.057zM141.662 44.92h-17.984c3.515-5.604 4.496-15.793 4.496-22.245V21.54h13.488v23.38z" fill="#000"/><path d="M49.455 51.938H36.458V7.39h-5.804c-10.627 0-16.185 3.68-16.185 9.17 0 6.227 3.842 9.114 11.77 12.793l6.54 3.056-18.8 19.529H0l16.921-17.434C7.193 29.692 1.717 24.994 1.717 17.07 1.717 7.164 11.689.428 30.572.428h18.801v51.51h.082z" fill="#FC3F1D"/></svg>