<svg width="300" height="35" fill="none" xmlns="http://www.w3.org/2000/svg"><path d="M16.8 5.955H5.35v19.39H0V.99h22.15v24.356H16.8V5.955zM27.356.99h5.35v2.67c1.095-1.03 2.268-1.827 3.52-2.389C37.477.71 38.885.428 40.449.428c1.752 0 3.364.328 4.834.984a10.789 10.789 0 013.848 2.67c1.064 1.124 1.893 2.467 2.487 4.028.595 1.53.892 3.2.892 5.011 0 1.874-.329 3.591-.986 5.153-.625 1.53-1.486 2.857-2.58 3.98-1.096 1.094-2.41 1.952-3.943 2.577-1.501.625-3.113.937-4.833.937-1.533 0-2.91-.234-4.13-.703a11.582 11.582 0 01-3.332-1.967v11.616h-5.35V.99zM39.37 20.803c1.064 0 2.05-.172 2.956-.515a6.957 6.957 0 002.44-1.5 7.163 7.163 0 001.596-2.435c.407-.968.61-2.06.61-3.278 0-1.124-.172-2.155-.516-3.092-.344-.968-.845-1.78-1.502-2.435a6.422 6.422 0 00-2.252-1.593c-.876-.374-1.846-.562-2.91-.562-1.627 0-3.066.39-4.317 1.171-1.22.78-2.143 1.718-2.769 2.81v7.4c.626 1.312 1.517 2.311 2.675 2.998 1.157.688 2.487 1.03 3.989 1.03zm15.92-7.682c0-1.842.312-3.528.938-5.058.626-1.561 1.517-2.904 2.675-4.028 1.158-1.124 2.534-1.999 4.13-2.623 1.595-.656 3.363-.984 5.303-.984 1.908 0 3.66.328 5.256.984 1.626.624 3.019 1.499 4.176 2.623 1.158 1.124 2.05 2.467 2.675 4.028.657 1.53.986 3.216.986 5.058 0 1.843-.329 3.545-.986 5.106a11.607 11.607 0 01-2.675 3.981c-1.157 1.124-2.55 1.998-4.176 2.623-1.596.625-3.348.937-5.256.937-1.909 0-3.66-.313-5.256-.937-1.596-.625-2.973-1.499-4.13-2.623a12.19 12.19 0 01-2.722-3.981c-.626-1.561-.939-3.263-.939-5.106zm5.537 0c0 1.093.172 2.108.516 3.045a7.54 7.54 0 001.549 2.436 7.378 7.378 0 002.346 1.639c.939.375 1.971.562 3.098.562 1.126 0 2.143-.172 3.05-.515.938-.375 1.736-.89 2.393-1.546a7.54 7.54 0 001.549-2.436c.375-.936.563-1.998.563-3.185 0-1.186-.203-2.248-.61-3.185-.375-.968-.907-1.78-1.596-2.435a6.717 6.717 0 00-2.393-1.546 7.681 7.681 0 00-2.956-.562 8.025 8.025 0 00-3.004.562 6.716 6.716 0 00-2.393 1.546c-.657.656-1.173 1.467-1.549 2.435-.375.937-.563 1.999-.563 3.185z" fill="#FF4A37"/><path d="M82.857 20.38h2.825c1.099-1.404 1.837-3.012 2.213-4.823.377-1.812.565-3.857.565-6.136V.99h19.683v19.39h3.437v10.54h-4.991v-5.574h-18.74v5.573h-4.992V20.381zm19.918 0V5.956h-9.23v6.23c0 1.498-.203 2.997-.612 4.495-.408 1.468-.972 2.702-1.694 3.7h11.536zm9.894-7.259c0-1.842.314-3.528.942-5.058a11.486 11.486 0 012.684-4.028c1.161-1.124 2.542-1.999 4.143-2.623 1.601-.656 3.375-.984 5.321-.984 1.915 0 3.673.328 5.274.984 1.632.624 3.029 1.499 4.19 2.623 1.162 1.124 2.056 2.467 2.684 4.028.659 1.53.989 3.216.989 5.058 0 1.843-.33 3.545-.989 5.106a11.6 11.6 0 01-2.684 3.981c-1.161 1.124-2.558 1.998-4.19 2.623-1.601.625-3.359.937-5.274.937s-3.673-.313-5.274-.937c-1.601-.625-2.982-1.499-4.143-2.623a12.177 12.177 0 01-2.731-3.981c-.628-1.561-.942-3.263-.942-5.106zm5.556 0c0 1.093.173 2.108.518 3.045a7.547 7.547 0 001.554 2.436 7.403 7.403 0 002.354 1.639c.942.375 1.978.562 3.108.562 1.13 0 2.15-.172 3.061-.515.941-.375 1.742-.89 2.401-1.546a7.547 7.547 0 001.554-2.436c.376-.936.565-1.998.565-3.185 0-1.186-.204-2.248-.612-3.185-.377-.968-.911-1.78-1.601-2.435a6.742 6.742 0 00-2.402-1.546c-.91-.374-1.899-.562-2.966-.562a8.08 8.08 0 00-3.014.562c-.91.344-1.71.859-2.401 1.546-.659.656-1.177 1.467-1.554 2.435-.377.937-.565 1.999-.565 3.185zM142.218.99h5.368v9.883L158.18.99h7.016l-11.913 11.007 12.337 13.349h-6.874l-9.37-10.024-1.79 1.733v8.29h-5.368V.99zm25.096 0h23.073v4.965h-8.853v19.39h-5.367V5.956h-8.853V.99zm24.246 12.131c0-1.842.314-3.528.943-5.058.627-1.561 1.521-2.904 2.683-4.028 1.161-1.124 2.542-1.999 4.144-2.623 1.6-.656 3.374-.984 5.32-.984 1.916 0 3.673.328 5.274.984 1.633.624 3.029 1.499 4.19 2.623a11.486 11.486 0 012.684 4.028c.66 1.53.989 3.216.989 5.058 0 1.843-.329 3.545-.989 5.106a11.587 11.587 0 01-2.684 3.981c-1.161 1.124-2.557 1.998-4.19 2.623-1.601.625-3.358.937-5.274.937-1.914 0-3.673-.313-5.273-.937-1.601-.625-2.983-1.499-4.144-2.623a12.16 12.16 0 01-2.73-3.981c-.629-1.561-.943-3.263-.943-5.106zm5.557 0c0 1.093.173 2.108.517 3.045a7.53 7.53 0 001.554 2.436 7.407 7.407 0 002.355 1.639c.941.375 1.977.562 3.107.562 1.13 0 2.151-.172 3.061-.515.942-.375 1.742-.89 2.402-1.546a7.544 7.544 0 001.553-2.436c.377-.936.565-1.998.565-3.185 0-1.186-.204-2.248-.613-3.185-.375-.968-.91-1.78-1.6-2.435a6.747 6.747 0 00-2.401-1.546c-.91-.374-1.9-.562-2.967-.562a8.071 8.071 0 00-3.013.562 6.738 6.738 0 00-2.401 1.546c-.66.656-1.178 1.467-1.555 2.435-.375.937-.564 1.999-.564 3.185zM221.067.99h5.367v2.67c1.099-1.03 2.276-1.827 3.532-2.389 1.255-.562 2.668-.843 4.238-.843 1.757 0 3.375.328 4.85.984a10.826 10.826 0 013.86 2.67c1.067 1.124 1.9 2.467 2.496 4.028.597 1.53.894 3.2.894 5.011 0 1.874-.328 3.591-.988 5.153-.627 1.53-1.49 2.857-2.59 3.98-1.099 1.094-2.417 1.952-3.955 2.577-1.507.625-3.124.937-4.85.937-1.538 0-2.92-.234-4.144-.703a11.639 11.639 0 01-3.343-1.967v11.616h-5.367V.99zm12.054 19.813c1.068 0 2.056-.172 2.966-.515a6.98 6.98 0 002.449-1.5 7.175 7.175 0 001.601-2.435c.407-.968.612-2.06.612-3.278 0-1.124-.173-2.155-.518-3.092-.345-.968-.848-1.78-1.507-2.435a6.445 6.445 0 00-2.26-1.593c-.88-.374-1.853-.562-2.92-.562-1.631 0-3.075.39-4.331 1.171-1.224.78-2.15 1.718-2.779 2.81v7.4c.629 1.312 1.523 2.311 2.685 2.998 1.161.688 2.495 1.03 4.002 1.03zm15.846-7.682c0-1.842.314-3.528.941-5.058.629-1.561 1.523-2.904 2.685-4.028 1.161-1.124 2.543-1.999 4.143-2.623 1.601-.656 3.375-.984 5.321-.984 1.914 0 3.673.328 5.274.984 1.632.624 3.029 1.499 4.19 2.623 1.162 1.124 2.056 2.467 2.685 4.028.658 1.53.988 3.216.988 5.058 0 1.843-.33 3.545-.988 5.106a11.617 11.617 0 01-2.685 3.981c-1.161 1.124-2.558 1.998-4.19 2.623-1.601.625-3.36.937-5.274.937-1.914 0-3.673-.313-5.274-.937-1.6-.625-2.982-1.499-4.143-2.623a12.195 12.195 0 01-2.732-3.981c-.627-1.561-.941-3.263-.941-5.106zm5.556 0c0 1.093.173 2.108.518 3.045a7.532 7.532 0 001.555 2.436 7.37 7.37 0 002.354 1.639c.941.375 1.977.562 3.107.562 1.13 0 2.15-.172 3.06-.515.943-.375 1.743-.89 2.401-1.546a7.532 7.532 0 001.555-2.436c.377-.936.565-1.998.565-3.185 0-1.186-.204-2.248-.612-3.185-.378-.968-.91-1.78-1.602-2.435a6.73 6.73 0 00-2.401-1.546c-.91-.374-1.899-.562-2.966-.562a8.075 8.075 0 00-3.013.562 6.73 6.73 0 00-2.401 1.546c-.66.656-1.177 1.467-1.555 2.435-.377.937-.565 1.999-.565 3.185zM278.529.99h10.452c3.422 0 5.996.484 7.723 1.452 1.726.968 2.59 2.638 2.59 5.011 0 1.125-.251 2.077-.754 2.857-.501.781-1.161 1.484-1.977 2.108 1.161.438 2.024 1.171 2.59 2.202.564.999.847 2.154.847 3.466 0 2.435-.863 4.262-2.59 5.48-1.726 1.186-4.159 1.78-7.299 1.78h-11.582V.99zm5.368 14.285v5.246h5.697c1.6 0 2.809-.203 3.626-.609.816-.405 1.224-1.061 1.224-1.967 0-.968-.393-1.655-1.177-2.06-.754-.407-1.931-.61-3.531-.61h-5.839zm0-9.46v4.823h6.309c1.098 0 1.963-.203 2.59-.608.628-.406.941-1.03.941-1.874 0-1-.423-1.64-1.271-1.92-.816-.281-2.025-.422-3.626-.422h-4.943z" fill="#3981F1"/></svg>