<svg width="298" height="59" fill="none" xmlns="http://www.w3.org/2000/svg"><path d="M127.665 31.198c0 8.328-11.018 14.465-24.54 14.465-13.522 0-24.54-6.137-24.54-14.465 0-8.387 11.018-14.466 24.54-14.466 13.522 0 24.54 6.079 24.54 14.466zm-10.742 0c0-5.205-6.386-8.766-13.798-8.766s-13.798 3.561-13.798 8.766c0 5.152 6.386 8.765 13.798 8.765s13.798-3.62 13.798-8.765z" fill="#EA4335"/><path d="M180.607 31.198c0 8.328-11.019 14.465-24.541 14.465s-24.54-6.137-24.54-14.465c0-8.38 11.018-14.466 24.54-14.466 13.522 0 24.541 6.079 24.541 14.466zm-10.743 0c0-5.205-6.386-8.766-13.798-8.766s-13.798 3.561-13.798 8.766c0 5.152 6.386 8.765 13.798 8.765s13.798-3.62 13.798-8.765z" fill="#FBBC05"/><path d="M231.342 17.606v25.97c0 10.682-10.655 15.046-23.25 15.046-11.857 0-18.993-4.69-21.684-8.524l9.353-2.303c1.665 2.355 5.746 5.133 12.32 5.133 8.062 0 13.059-2.941 13.059-8.478v-2.08h-.375c-2.405 1.754-7.037 3.286-12.883 3.286-12.231 0-23.437-6.3-23.437-14.406 0-8.165 11.206-14.518 23.437-14.518 5.835 0 10.467 1.533 12.883 3.235h.375v-2.354h10.202v-.007zm-9.441 13.644c0-5.094-5.747-8.818-13.059-8.818-7.412 0-13.622 3.724-13.622 8.818 0 5.041 6.21 8.713 13.622 8.713 7.312 0 13.059-3.672 13.059-8.713z" fill="#4285F4"/><path d="M248.162 2.385v42.391h-10.478V2.385h10.478z" fill="#34A853"/><path d="M288.993 35.959l8.338 3.287c-2.691 2.354-9.177 6.41-20.383 6.41-13.897 0-24.275-6.352-24.275-14.465 0-8.602 10.467-14.465 23.073-14.465 12.695 0 18.905 5.974 20.934 9.202l1.114 1.644-32.702 8.008c2.504 2.903 6.397 4.383 11.856 4.383 5.471 0 9.265-1.591 12.045-4.004zm-25.666-5.205l21.86-5.367c-1.202-1.807-4.819-3.065-9.077-3.065-5.459 0-13.059 2.85-12.783 8.432z" fill="#EA4335"/><path d="M38.923 27.435v-6.137h34.974c.342 1.07.519 2.335.519 3.704 0 4.605-2.13 10.298-8.99 14.355-6.672 4.108-15.198 6.3-26.492 6.3C18 45.657.397 35.574.397 23.196.397 10.817 18 .735 38.934.735c11.58 0 19.83 2.687 26.03 6.189l-7.324 4.33C53.195 8.79 47.173 6.872 38.923 6.872c-15.287 0-27.243 7.285-27.243 16.324 0 9.039 11.956 16.324 27.243 16.324 9.915 0 15.562-2.355 19.18-4.494 2.934-1.735 4.864-4.213 5.625-7.598l-24.805.007z" fill="#4285F4"/></svg>