<svg width="300" height="57" fill="none" xmlns="http://www.w3.org/2000/svg"><path d="M2.634 2.165h62.474c1.454 0 2.634.915 2.634 2.042v9.521c0 1.268-.71 2.47-1.946 3.3L30.86 39.678h34.248c1.454 0 2.634.898 2.634 2.025v10.93c0 1.128-1.18 2.042-2.635 2.042H2.635C1.18 54.675 0 53.761 0 52.634v-9.506c0-1.268.71-2.469 1.946-3.3l34.936-22.65H2.634C1.18 17.178 0 16.243 0 15.116V4.207C0 3.08 1.18 2.165 2.634 2.165zM111.29.303c7.224 0 13.664 1.26 19.04 3.56 5.377 2.3 9.689 5.643 12.658 9.81 2.968 4.166 4.593 9.157 4.593 14.755 0 5.598-1.625 10.59-4.593 14.756-2.969 4.167-7.281 7.51-12.658 9.81-5.376 2.3-11.816 3.56-19.04 3.56-7.223 0-13.663-1.26-19.04-3.56-5.376-2.3-9.689-5.643-12.657-9.81C76.624 39.018 75 34.027 75 28.428c0-5.598 1.624-10.59 4.593-14.756 2.968-4.166 7.281-7.509 12.657-9.81 5.377-2.3 11.817-3.559 19.04-3.559zm0 15c-3.455 0-6.489.566-8.998 1.618-2.508 1.052-4.493 2.59-5.85 4.534-1.357 1.944-2.087 4.295-2.087 6.973s.73 5.03 2.087 6.974c1.357 1.944 3.342 3.482 5.85 4.534 2.509 1.051 5.543 1.617 8.998 1.617 3.456 0 6.489-.566 8.998-1.617 2.509-1.052 4.494-2.59 5.851-4.534 1.357-1.945 2.087-4.296 2.087-6.974s-.73-5.029-2.087-6.973c-1.357-1.945-3.342-3.482-5.851-4.534-2.509-1.052-5.542-1.618-8.998-1.618zm77.42-15c7.223 0 13.663 1.26 19.04 3.56 5.376 2.3 9.689 5.643 12.657 9.81C223.376 17.838 225 22.83 225 28.427c0 5.598-1.624 10.59-4.593 14.756-2.968 4.167-7.281 7.51-12.657 9.81-5.377 2.3-11.817 3.56-19.04 3.56-7.224 0-13.664-1.26-19.04-3.56-5.377-2.3-9.689-5.643-12.658-9.81-2.968-4.166-4.593-9.157-4.593-14.756 0-5.598 1.625-10.59 4.593-14.756 2.969-4.166 7.281-7.509 12.658-9.81 5.376-2.3 11.816-3.559 19.04-3.559zm0 15c-3.456 0-6.489.566-8.998 1.618-2.509 1.052-4.494 2.59-5.851 4.534-1.357 1.944-2.087 4.295-2.087 6.973s.73 5.03 2.087 6.974c1.357 1.944 3.342 3.482 5.851 4.534 2.509 1.051 5.542 1.617 8.998 1.617 3.455 0 6.489-.566 8.998-1.617 2.509-1.052 4.493-2.59 5.85-4.534 1.357-1.945 2.087-4.296 2.087-6.974s-.73-5.029-2.087-6.973c-1.357-1.945-3.341-3.482-5.85-4.534-2.509-1.052-5.543-1.618-8.998-1.618zm111.298-11.09v48.42c0 1.127-1.179 2.042-2.634 2.042h-12.277c-1.637 0-3.186-.55-4.258-1.508l-29.226-27.072v26.538c0 1.127-1.206 2.042-2.661 2.042h-14.068c-1.455 0-2.634-.914-2.634-2.042V4.213c0-1.127 1.179-2.041 2.634-2.041h12.277c1.637 0 3.186.55 4.258 1.509l29.226 27.08V4.215c0-1.128 1.158-2.042 2.613-2.042h14.116c1.455 0 2.634.914 2.634 2.042z" fill="url(#paint0_linear_80_5623)"/><defs><linearGradient id="paint0_linear_80_5623" x1="23203.6" y1="2812.8" x2="6543.56" y2="2812.8" gradientUnits="userSpaceOnUse"><stop stop-color="#6339F5"/><stop offset="1" stop-color="#3D3F55"/></linearGradient></defs></svg>