<svg width="189" height="189" fill="none" xmlns="http://www.w3.org/2000/svg"><path fill-rule="evenodd" clip-rule="evenodd" d="M171.191 17.112c9.404 9.405 9.404 24.82 0 34.224L51.336 171.191c-9.404 9.404-24.82 9.404-34.224 0-9.404-9.405-9.404-24.82 0-34.224L136.967 17.112c9.404-9.405 24.819-9.405 34.224 0z" fill="#DE6489"/><mask id="a" style="mask-type:luminance" maskUnits="userSpaceOnUse" x="10" y="10" width="169" height="169"><path d="M171.191 17.112c9.404 9.405 9.404 24.82 0 34.224L51.336 171.191c-9.404 9.404-24.82 9.404-34.224 0-9.404-9.405-9.404-24.82 0-34.224L136.967 17.112c9.404-9.405 24.819-9.405 34.224 0z" fill="#fff"/></mask><g mask="url(#a)" fill="#fff"><path fill-rule="evenodd" clip-rule="evenodd" d="M34.507 164.402a.895.895 0 000-1.272.895.895 0 00-1.273 0 .895.895 0 000 1.272.895.895 0 001.273 0zm-4.667-4.667a.895.895 0 000-1.272.895.895 0 00-1.273 0 .895.895 0 000 1.272.895.895 0 001.273 0zm.212 7.849a.897.897 0 00-1.273 0 .897.897 0 000 1.273.895.895 0 001.273 0 .896.896 0 000-1.273zm-5.727 4.455a.897.897 0 000 1.273.897.897 0 001.272 0 .896.896 0 000-1.273.897.897 0 00-1.273 0zm-9.193-.141a.895.895 0 000 1.272.895.895 0 001.273 0 .895.895 0 000-1.272c-.283-.425-.92-.354-1.273 0zm-3.182 4.454a.897.897 0 00-1.273 0 .897.897 0 000 1.273.895.895 0 001.273 0 .897.897 0 000-1.273zm22.133-30.334a.896.896 0 000-1.273.895.895 0 00-1.273 0 .897.897 0 000 1.273.897.897 0 001.273 0zm-4.667-4.667a.897.897 0 000-1.273.895.895 0 00-1.273 0 .897.897 0 000 1.273.897.897 0 001.273 0zm-4.738-4.738a.897.897 0 000-1.273.897.897 0 00-1.273 0 .896.896 0 000 1.273.895.895 0 001.273 0zm-4.738-4.738a.895.895 0 000-1.272.895.895 0 00-1.272 0 .895.895 0 000 1.272.895.895 0 001.273 0zm-4.666-4.666a.896.896 0 000-1.273.895.895 0 00-1.273 0 .895.895 0 000 1.272.896.896 0 001.273.001zm17.819 26.728a.896.896 0 000 1.273.895.895 0 001.272 0 .897.897 0 000-1.273.897.897 0 00-1.272 0zm-4.738-4.737a.895.895 0 000 1.272.895.895 0 001.273 0 .895.895 0 000-1.272.895.895 0 00-1.273 0zm10.607 19.657c.212-.212.212-.495 0-.707-.213-.212-.495-.212-.708 0-.212.212-.212.495 0 .707.213.212.566.142.708 0zm-5.162 3.748c-.212.212-.212.495 0 .707.212.212.495.212.707 0 .212-.212.212-.495 0-.707-.212-.212-.495-.212-.707 0zm-5.091-49.922c.212-.212.212-.495 0-.707-.212-.212-.495-.212-.707 0-.213.212-.213.495 0 .707.07.212.495.212.707 0zm-4.738-4.738c.212-.212.212-.495 0-.707-.212-.212-.495-.212-.707 0-.212.212-.212.495 0 .707.141.283.495.213.707 0zm19.021 27.365c-.212-.212-.495-.212-.707 0-.212.213-.212.495 0 .708.212.212.495.212.707 0 .212-.213.142-.566 0-.708zm-4.737-4.03c.212-.212.212-.495 0-.707-.213-.212-.495-.212-.708 0-.212.212-.212.495 0 .707.213.212.495.212.708 0zm-4.667-4.667c.212-.212.212-.495 0-.707-.212-.212-.495-.212-.708 0-.212.212-.212.495 0 .707.142.141.495.212.708 0zm-5.445-5.445c-.212.213-.212.495 0 .707.212.213.495.213.707 0 .212-.212.212-.494 0-.707-.212-.212-.495-.212-.707 0zm-4.738-4.737c-.212.212-.212.495 0 .707.212.212.495.212.707 0 .213-.212.213-.495 0-.707-.141-.142-.495-.212-.707 0zm-3.96-3.96c.213-.212.213-.495 0-.707-.212-.212-.494-.212-.707 0-.212.212-.212.495 0 .707.213.212.495.212.707 0zm-4.737-4.738c.212-.212.212-.495 0-.707-.212-.212-.495-.212-.707 0-.212.212-.212.495 0 .707.212.212.495.212.707 0zm32.527 41.437c-.212.212-.212.495 0 .707.212.212.495.212.707 0 .212-.212.212-.495 0-.707-.212-.212-.495-.212-.707 0zm-4.738-4.738c-.212.212-.212.495 0 .707.212.212.495.212.707 0 .212-.212.212-.495 0-.707-.212-.212-.495-.212-.707 0zm-4.737-4.738c-.213.213-.213.495 0 .708.212.212.495.212.707 0 .212-.213.212-.495 0-.708-.142-.141-.495-.212-.707 0zm-27.507-27.506c.212-.212.212-.495 0-.707-.212-.212-.495-.212-.707 0-.212.212-.212.495 0 .707.212.212.495.212.707 0zm33.234 42.144c.212-.212.212-.495 0-.707-.212-.213-.495-.213-.707 0-.212.212-.212.495 0 .707.212.212.495.212.707 0zm-4.737-4.738c.212-.212.212-.495 0-.707-.213-.212-.495-.212-.708 0-.212.212-.212.495 0 .707.212.212.495.212.707 0zm4.879 13.93c.212-.212.212-.495 0-.707-.213-.212-.495-.212-.707 0-.213.212-.213.495 0 .707.212.212.565.141.707 0zm-5.162 3.748c-.212.212-.212.495 0 .707.212.212.495.212.707 0 .212-.212.212-.495 0-.707-.212-.212-.495-.212-.707 0zm-8.415-.212c-.212-.213-.495-.213-.707 0-.212.212-.212.495 0 .707.212.212.495.212.707 0 .212-.212.212-.495 0-.707zm-9.192.424c.212-.212.212-.495 0-.707-.212-.212-.495-.212-.707 0-.212.212-.212.495 0 .707.141.283.495.212.707 0zm26.8.071c-.213.212-.213.495 0 .707.211.212.494.212.706 0 .212-.212.212-.495 0-.707-.141-.283-.495-.213-.707 0zm41.223-3.607c-.212.212-.212.495 0 .707.213.213.495.213.708 0 .212-.212.212-.495 0-.707-.213-.212-.495-.212-.708 0zm-3.747 5.162c.212-.212.212-.495 0-.707-.212-.212-.495-.212-.707 0-.213.212-.213.495 0 .707.141.283.495.212.707 0zm-4.667-4.667c.212-.212.212-.495 0-.707-.212-.212-.495-.212-.707 0-.213.212-.213.495 0 .707.07.212.495.212.707 0zm-4.526 4.526c.213-.212.213-.495 0-.707-.212-.212-.495-.212-.707 0-.212.212-.212.495 0 .707.142.141.495.212.707 0zm-4.737-4.738c.212-.212.212-.495 0-.707-.212-.212-.495-.212-.707 0-.212.212-.212.495 0 .707.212.212.495.212.707 0zm-5.162 3.748c-.212.212-.212.495 0 .707.212.212.495.212.707 0 .212-.212.212-.495 0-.707-.212-.212-.495-.212-.707 0zm-4.738-4.738c-.212.212-.212.495 0 .707.212.212.495.212.707 0 .212-.212.212-.495 0-.707-.141-.141-.495-.212-.707 0zm-3.676 5.233c.211-.212.211-.495 0-.707-.213-.212-.496-.212-.708 0-.212.212-.212.495 0 .707.142.141.495.212.707 0zm-4.738-4.738c.212-.212.212-.495 0-.707-.213-.212-.495-.212-.708 0-.212.212-.212.495 0 .707.213.212.495.212.708 0zm45.113.424c-.212.213-.212.495 0 .708.212.212.495.212.707 0 .212-.213.212-.495 0-.708-.141-.141-.495-.212-.707 0zm43.629-28.072a2.794 2.794 0 000 3.96 2.794 2.794 0 003.959 0 2.794 2.794 0 000-3.96c-1.06-1.06-2.899-1.06-3.959 0z"/><path d="M136.967 145.381a2.8 2.8 0 103.96-3.96 2.8 2.8 0 00-3.96 3.96zm-4.667-4.667a2.8 2.8 0 103.96-3.96 2.801 2.801 0 00-3.96 3.96zm-4.738-4.737a2.801 2.801 0 103.96-3.963 2.801 2.801 0 00-3.96 3.963z"/><path fill-rule="evenodd" clip-rule="evenodd" d="M122.825 127.279a2.794 2.794 0 000 3.96 2.794 2.794 0 003.959 0 2.794 2.794 0 000-3.96c-1.06-1.06-2.899-1.06-3.959 0zm-4.667-4.667a2.794 2.794 0 000 3.96 2.793 2.793 0 003.959 0 2.794 2.794 0 000-3.96 2.795 2.795 0 00-3.959 0zm-4.738-4.737a2.794 2.794 0 000 3.959 2.794 2.794 0 003.96 0 2.795 2.795 0 000-3.959c-1.061-1.061-2.899-1.061-3.96 0zm23.688 32.739a2.795 2.795 0 000 3.96 2.796 2.796 0 003.96 0 2.795 2.795 0 000-3.96c-.99-1.132-2.829-1.132-3.96 0zm-4.667-4.667a2.796 2.796 0 000 3.96 2.796 2.796 0 003.96 0 2.795 2.795 0 000-3.96c-1.061-1.202-2.828-1.132-3.96 0zm-4.737-4.738a2.794 2.794 0 000 3.96 2.794 2.794 0 003.959 0 2.794 2.794 0 000-3.96c-.99-1.131-2.828-1.131-3.959 0zm-4.667-4.667a2.794 2.794 0 000 3.96 2.794 2.794 0 003.959 0 2.794 2.794 0 000-3.96c-1.06-1.202-2.828-1.131-3.959 0zm-4.738-4.737a2.795 2.795 0 000 3.96 2.796 2.796 0 003.96 0 2.796 2.796 0 000-3.96c-.99-1.132-2.829-1.132-3.96 0zm-4.667-4.667a2.795 2.795 0 000 3.96 2.796 2.796 0 003.96 0 2.795 2.795 0 000-3.96c-1.061-1.202-2.828-1.132-3.96 0zm32.456 14.495a2.796 2.796 0 000 3.96 2.794 2.794 0 003.96 0 2.794 2.794 0 000-3.96 2.796 2.796 0 00-3.96 0zm-4.667-4.666a2.795 2.795 0 000 3.959 2.794 2.794 0 003.96 0 2.793 2.793 0 000-3.959c-1.131-1.132-2.828-1.132-3.96 0zm-18.809-18.809a2.795 2.795 0 000 3.959 2.794 2.794 0 003.96 0 2.793 2.793 0 000-3.959c-1.131-1.132-2.828-1.132-3.96 0zm-4.737-4.738a2.794 2.794 0 000 3.96 2.796 2.796 0 003.96 0 2.796 2.796 0 000-3.96 2.795 2.795 0 00-3.96 0zm-13.86-4.95a2.796 2.796 0 000 3.96 2.795 2.795 0 003.96 0 2.794 2.794 0 000-3.96c-1.06-1.061-2.899-1.061-3.96 0zm-4.737-4.737a2.794 2.794 0 000 3.959 2.795 2.795 0 003.96 0 2.795 2.795 0 000-3.959c-1.061-1.061-2.9-1.061-3.96 0zm.212 9.263a2.794 2.794 0 000 3.959 2.794 2.794 0 003.96 0 2.795 2.795 0 000-3.959c-.99-1.132-2.829-1.132-3.96 0zm-4.738-4.738a2.795 2.795 0 000 3.96 2.795 2.795 0 003.96 0 2.795 2.795 0 000-3.96c-.99-1.131-2.828-1.131-3.96 0zm17.749-.212a2.796 2.796 0 000-3.96 2.795 2.795 0 00-3.96 0 2.795 2.795 0 000 3.96 2.795 2.795 0 003.96 0zm-3.819 5.091a2.796 2.796 0 000 3.96 2.795 2.795 0 003.96 0 2.794 2.794 0 000-3.96c-1.06-1.061-2.899-1.061-3.96 0zm-4.525 4.526a2.794 2.794 0 000 3.959 2.794 2.794 0 003.96 0 2.795 2.795 0 000-3.959c-.99-1.132-2.829-1.132-3.96 0zm8.98-8.981a2.796 2.796 0 000 3.96 2.795 2.795 0 003.96 0 2.795 2.795 0 000-3.96 2.796 2.796 0 00-3.96 0zm17.678-98.288c.071.071.283.142.424 0 .071-.07.141-.282 0-.424-.071-.07-.283-.141-.424 0-.071.07-.142.283 0 .424zM95.247 55.013c-.07.07-.141.283 0 .424.071.07.283.142.425 0 .07-.07.141-.283 0-.424-.142-.142-.283-.142-.425 0zm22.345-22.062c.071.07.283.142.424 0 .071-.07.142-.283 0-.424-.071-.07-.283-.142-.424 0-.071.212-.071.353 0 .424zm-4.455 4.455c.071.07.283.141.424 0 .071-.07.142-.283 0-.424-.07-.071-.282-.142-.424 0-.071.212-.071.353 0 .424zm-4.455 4.454c.071.072.283.142.425 0 .07-.07.141-.282 0-.423-.071-.071-.283-.142-.425 0-.07.212-.07.353 0 .424zm-4.525 4.526c.071.071.283.142.424 0 .071-.07.142-.283 0-.424-.071-.07-.283-.141-.424 0-.071.212-.071.354 0 .424zm-4.455 4.455c.07.07.283.141.424 0 .071-.07.142-.283 0-.424-.07-.071-.282-.142-.424 0-.07.212-.07.353 0 .424zm31.678-31.678c-.07-.071-.282-.142-.424 0-.07.07-.141.282 0 .424.071.07.283.141.424 0 .142-.142.142-.283 0-.424zm-4.808 4.808c.071.07.283.141.424 0 .071-.07.142-.283 0-.424-.07-.071-.282-.142-.424 0-.071.212-.071.353 0 .424zm-4.101 4.101c-.071-.07-.283-.141-.424 0-.142.142-.142.283 0 .424.07.071.283.142.424 0 .141-.141.141-.282 0-.424zM18.456 103.52c-.071.071-.142.283 0 .425.07.07.282.141.424 0 .07-.071.141-.283 0-.425-.142-.141-.354-.07-.424 0zm27.506 1.061c.07.071.283.142.424 0 .071-.071.142-.283 0-.424-.07-.071-.283-.142-.424 0-.07.212-.07.353 0 .424zm-4.455 4.455c.07.071.283.141.425 0 .07-.071.14-.283 0-.424-.071-.071-.283-.142-.425 0-.07.212-.07.353 0 .424zm-4.101 4.525c.07-.07.142-.283 0-.424-.07-.071-.283-.141-.424 0-.07.071-.142.283 0 .424.212.071.353.071.424 0zm26.446-45.254c.07-.071.141-.283 0-.425-.07-.07-.283-.141-.424 0-.071.071-.142.283 0 .425.14.141.282.141.424 0zM50.417 81.742c.07-.071.141-.283 0-.425-.07-.07-.283-.141-.425 0-.07.071-.14.283 0 .425.142.14.283.14.425 0zm-26.87 71.7a1.324 1.324 0 000 1.839 1.324 1.324 0 001.838 0 1.324 1.324 0 000-1.839c-.495-.495-1.273-.566-1.838 0zm-4.667-4.667a1.324 1.324 0 000 1.839 1.324 1.324 0 001.838 0 1.324 1.324 0 000-1.839c-.565-.565-1.273-.565-1.838 0zm4.95 13.86a1.323 1.323 0 000 1.838 1.324 1.324 0 001.838 0 1.323 1.323 0 000-1.838c-.566-.566-1.343-.495-1.838 0zm-2.617 4.454a1.324 1.324 0 00-1.838 0 1.324 1.324 0 000 1.839 1.324 1.324 0 001.838 0 1.324 1.324 0 000-1.839zm-9.263-.212a1.324 1.324 0 00-1.838 0 1.324 1.324 0 000 1.839 1.324 1.324 0 001.838 0c.566-.566.495-1.344 0-1.839zm13.223-20.859a1.324 1.324 0 000-1.839 1.324 1.324 0 00-1.838 0 1.324 1.324 0 000 1.839c.565.565 1.343.495 1.838 0zm-4.667-4.667a1.325 1.325 0 000-1.839 1.324 1.324 0 00-1.838 0 1.324 1.324 0 000 1.839 1.324 1.324 0 001.838 0zm-4.737-4.738a1.323 1.323 0 000-1.838 1.324 1.324 0 00-1.839 0 1.323 1.323 0 000 1.838c.566.566 1.344.495 1.839 0zm-4.667-4.667a1.323 1.323 0 000-1.838 1.324 1.324 0 00-1.839 0 1.323 1.323 0 000 1.838 1.324 1.324 0 001.839 0zm2.758 11.809c-.637.636-.637 1.768 0 2.404a1.686 1.686 0 002.404 0c.636-.636.636-1.768 0-2.404a1.685 1.685 0 00-2.405 0zm-2.334-2.334c.636-.636.636-1.767 0-2.404-.636-.636-1.768-.636-2.404 0-.637.637-.637 1.768 0 2.404.778.637 1.768.637 2.404 0zm9.687 18.597c.637-.636.637-1.767 0-2.404-.636-.636-1.768-.636-2.404 0-.636.637-.636 1.768 0 2.404.636.637 1.768.637 2.404 0zm-4.737-4.737c.636-.637.636-1.768 0-2.404-.637-.637-1.768-.637-2.404-.001-.637.637-.637 1.768 0 2.405a1.686 1.686 0 002.404 0zm-2.122 6.788c-.636.636-.636 1.768 0 2.404.637.636 1.768.636 2.405 0 .636-.636.636-1.768 0-2.404-.637-.636-1.768-.636-2.405 0zm-5.232-14.142c-.778.778-.849 2.121 0 2.97.778.777 2.121.848 2.97 0 .777-.778.848-2.122 0-2.97-.778-.778-2.122-.849-2.97 0zm3.182 12.091c.777-.778.848-2.121 0-2.97-.778-.777-2.122-.848-2.97 0-.778.778-.849 2.122 0 2.97.848.849 2.121.849 2.97 0zM41.86 91.146a.896.896 0 000-1.273.896.896 0 00-1.272 0 .896.896 0 000 1.273.896.896 0 001.273 0zm-4.666-4.666a.896.896 0 000-1.274.896.896 0 00-1.273 0 .896.896 0 000 1.273.896.896 0 001.273 0zm-1.061 7.848a.896.896 0 000 1.273.896.896 0 001.273 0 .896.896 0 000-1.273.896.896 0 00-1.273 0zm-4.667-4.667a.896.896 0 000 1.273.896.896 0 001.273 0 .896.896 0 000-1.273.896.896 0 00-1.273 0zm-4.737-4.737a.896.896 0 000 1.272.896.896 0 001.273 0 .896.896 0 000-1.272.896.896 0 00-1.273 0zm-4.667-4.667a.896.896 0 000 1.272.896.896 0 001.273 0 .896.896 0 000-1.272.896.896 0 00-1.273 0zm.212 9.121a.896.896 0 000 1.273.896.896 0 001.273 0 .896.896 0 000-1.273.896.896 0 00-1.273 0zm-4.667-4.666a.896.896 0 000 1.272.896.896 0 001.273 0 .896.896 0 000-1.272.896.896 0 00-1.273 0zm-3.253 5.798a.896.896 0 000-1.273.896.896 0 00-1.272 0 .896.896 0 000 1.273.896.896 0 001.272 0zm-4.737-4.738a.896.896 0 000-1.273.896.896 0 00-1.273 0 .896.896 0 000 1.273.896.896 0 001.273 0zm45.255-26.446a.896.896 0 000-1.273.896.896 0 00-1.273 0 .896.896 0 000 1.273.896.896 0 001.273 0zm-4.526 4.526a.896.896 0 000-1.273.896.896 0 00-1.273 0 .896.896 0 000 1.273.896.896 0 001.273 0zm-4.666-4.667a.896.896 0 000-1.273.896.896 0 00-1.274 0 .896.896 0 000 1.273.896.896 0 001.273 0zm.211 9.121a.896.896 0 000-1.272.896.896 0 00-1.273 0 .896.896 0 000 1.272.896.896 0 001.273 0zm-4.667-4.666a.896.896 0 000-1.273.896.896 0 00-1.272 0 .896.896 0 000 1.273.896.896 0 001.272 0zm.213 7.849a.896.896 0 00-1.273 0 .896.896 0 000 1.272.896.896 0 001.273 0 .896.896 0 000-1.272zm.283 9.191a.896.896 0 00-1.273 0 .896.896 0 000 1.274.896.896 0 001.272 0c.283-.283.354-.92 0-1.273zm76.225-65.619a.895.895 0 000-1.272.895.895 0 00-1.272 0 .895.895 0 000 1.272.895.895 0 001.272 0zm-4.666-4.666a.897.897 0 000-1.273.897.897 0 00-1.273 0 .895.895 0 000 1.273.897.897 0 001.273 0zm-4.455 4.455a.897.897 0 000-1.274.896.896 0 00-1.273 0 .895.895 0 000 1.273.896.896 0 001.273 0zM50.205 54.66a.896.896 0 000-1.273.896.896 0 00-1.273 0 .896.896 0 000 1.272.896.896 0 001.273 0zm35.143-9.547a.896.896 0 000 1.273.896.896 0 001.273 0 .896.896 0 000-1.273.896.896 0 00-1.273 0zm-4.668-4.666a.896.896 0 000 1.272.896.896 0 001.274 0 .896.896 0 000-1.272.896.896 0 00-1.273 0zm1.486 10.393a.896.896 0 000-1.272.896.896 0 00-1.273 0 .896.896 0 000 1.273.896.896 0 001.273 0zm-4.667-4.666a.896.896 0 000-1.273.896.896 0 00-1.273 0 .896.896 0 000 1.273.896.896 0 001.273 0zm-5.728 3.182a.896.896 0 000 1.273.896.896 0 001.273 0 .896.896 0 000-1.273.896.896 0 00-1.273 0zm-4.737-4.738a.896.896 0 000 1.273.896.896 0 001.273 0 .896.896 0 000-1.273.896.896 0 00-1.273 0zm.212 9.264a.896.896 0 000 1.272.896.896 0 001.273 0 .896.896 0 000-1.273.896.896 0 00-1.273 0zm-4.738-4.738a.896.896 0 000 1.273.896.896 0 001.273 0 .896.896 0 000-1.273.896.896 0 00-1.273 0zm-3.182 4.455a.896.896 0 00-1.273 0 .896.896 0 000 1.273.896.896 0 001.273 0 .896.896 0 000-1.273zm48.437-30.901a.897.897 0 000 1.273.897.897 0 001.273 0 .897.897 0 000-1.273.896.896 0 00-1.273 0zm-4.455 4.455a.897.897 0 000 1.273.897.897 0 001.273 0 .895.895 0 000-1.273.896.896 0 00-1.273 0zm-4.525 4.525a.896.896 0 000 1.273.897.897 0 001.273 0 .897.897 0 000-1.273.897.897 0 00-1.273 0zM95.6 36.133a.896.896 0 00-1.272 0 .896.896 0 000 1.273.896.896 0 001.273 0 .896.896 0 000-1.273zm-5.727 4.455a.896.896 0 000 1.273.896.896 0 001.273 0 .896.896 0 000-1.273.896.896 0 00-1.273 0zm23.618-21.072a.897.897 0 000-1.273.897.897 0 00-1.273 0 .895.895 0 000 1.273.896.896 0 001.273 0zM30.9 80.186a1.324 1.324 0 000 1.838 1.324 1.324 0 001.84 0 1.324 1.324 0 000-1.838 1.324 1.324 0 00-1.84 0zm-4.666-4.667a1.324 1.324 0 000 1.838 1.324 1.324 0 001.838 0 1.324 1.324 0 000-1.838 1.324 1.324 0 00-1.838 0zm-7.354-.283a1.324 1.324 0 00-1.839 0 1.324 1.324 0 000 1.839 1.324 1.324 0 001.839 0 1.324 1.324 0 000-1.839zm-4.455 6.294a1.324 1.324 0 000-1.839 1.324 1.324 0 00-1.838 0 1.324 1.324 0 000 1.838c.495.495 1.272.566 1.838 0zm-4.738-4.738a1.324 1.324 0 000-1.839 1.324 1.324 0 00-1.838 0 1.324 1.324 0 000 1.839c.566.566 1.273.565 1.838 0zm29.699-23.9a1.324 1.324 0 000 1.838 1.324 1.324 0 001.838 0 1.324 1.324 0 000-1.838c-.495-.495-1.272-.566-1.838 0zm-4.455 4.454a1.324 1.324 0 000 1.839 1.324 1.324 0 001.839 0 1.324 1.324 0 000-1.839 1.324 1.324 0 00-1.839 0zm-4.667-4.666a1.324 1.324 0 000 1.838 1.324 1.324 0 001.839 0 1.324 1.324 0 000-1.839c-.566-.565-1.344-.495-1.839 0zm4.95 13.859a1.324 1.324 0 000 1.838 1.324 1.324 0 001.839 0 1.324 1.324 0 000-1.838 1.324 1.324 0 00-1.839 0zm-4.738-4.738a1.324 1.324 0 000 1.839 1.324 1.324 0 001.839 0 1.324 1.324 0 000-1.839 1.324 1.324 0 00-1.839 0zm-4.666-4.667a1.324 1.324 0 000 1.839 1.324 1.324 0 001.838 0 1.324 1.324 0 000-1.839c-.566-.566-1.344-.495-1.839 0zm9.616 18.526a1.324 1.324 0 000 1.839 1.324 1.324 0 001.839 0 1.324 1.324 0 000-1.839c-.566-.424-1.344-.495-1.839 0zm-4.666-4.666a1.324 1.324 0 000 1.838 1.324 1.324 0 001.838 0 1.324 1.324 0 000-1.838c-.566-.425-1.344-.495-1.839 0zm71.771-62.438a1.324 1.324 0 000 1.839 1.323 1.323 0 001.838 0 1.324 1.324 0 000-1.839 1.323 1.323 0 00-1.838 0zm-58.62 39.81a1.324 1.324 0 000 1.839 1.324 1.324 0 001.839 0 1.324 1.324 0 000-1.839 1.324 1.324 0 00-1.839 0zm-9.192-.141a1.324 1.324 0 000 1.838 1.324 1.324 0 001.838 0 1.324 1.324 0 000-1.838c-.565-.566-1.272-.566-1.838 0zm42.78-12.799a1.324 1.324 0 00-1.838 0 1.324 1.324 0 000 1.838 1.324 1.324 0 001.838 0 1.324 1.324 0 000-1.838zm-6.293 4.454a1.324 1.324 0 000 1.84 1.324 1.324 0 001.838 0 1.324 1.324 0 000-1.84 1.324 1.324 0 00-1.838 0zm-7.284-.211a1.324 1.324 0 00-1.838 0 1.324 1.324 0 000 1.838 1.324 1.324 0 001.838 0 1.324 1.324 0 000-1.838zm-4.525 6.364a1.324 1.324 0 000-1.839 1.324 1.324 0 00-1.838 0 1.324 1.324 0 000 1.839 1.324 1.324 0 001.838 0zm-4.737-4.738a1.324 1.324 0 000-1.838 1.324 1.324 0 00-1.84 0 1.324 1.324 0 00.001 1.838 1.324 1.324 0 001.838 0zm-1.556 7.354a1.324 1.324 0 000 1.838 1.324 1.324 0 001.838 0 1.324 1.324 0 000-1.838 1.324 1.324 0 00-1.838 0zm-4.738-4.738a1.324 1.324 0 000 1.839 1.324 1.324 0 001.839 0 1.324 1.324 0 000-1.839 1.324 1.324 0 00-1.839 0zm54.447-26.163a1.324 1.324 0 000 1.839 1.324 1.324 0 001.839 0 1.324 1.324 0 000-1.838 1.324 1.324 0 00-1.839 0zm-4.737-4.738a1.324 1.324 0 000 1.84 1.324 1.324 0 001.838 0 1.324 1.324 0 000-1.84 1.324 1.324 0 00-1.838 0zm.283 9.193a1.324 1.324 0 000 1.839 1.324 1.324 0 001.838 0 1.324 1.324 0 000-1.839c-.566-.424-1.343-.495-1.838 0zm-4.526 4.526a1.324 1.324 0 000 1.838 1.324 1.324 0 001.839 0 1.324 1.324 0 000-1.838 1.324 1.324 0 00-1.839 0zm-4.455 4.454a1.324 1.324 0 000 1.839 1.324 1.324 0 001.839 0 1.324 1.324 0 000-1.839 1.324 1.324 0 00-1.839 0zm-2.616 6.294a1.324 1.324 0 000-1.839 1.324 1.324 0 00-1.838 0 1.324 1.324 0 000 1.839c.495.495 1.272.565 1.838 0zm-4.738-4.737a1.324 1.324 0 000-1.84 1.324 1.324 0 00-1.838 0 1.324 1.324 0 000 1.839c.495.495 1.273.566 1.838 0zM21.213 70.499c-.636.636-.636 1.767 0 2.404.637.636 1.768.636 2.404 0 .637-.637.637-1.768 0-2.404-.636-.637-1.767-.637-2.404 0zm-9.121-.213c-.637.637-.637 1.768 0 2.405.636.636 1.767.636 2.404 0 .636-.637.636-1.768 0-2.405a1.686 1.686 0 00-2.404 0zm16.051-1.909c.636-.636.636-1.767 0-2.404-.637-.636-1.768-.636-2.404 0-.637.636-.637 1.768 0 2.404a1.686 1.686 0 002.404 0zm-4.738-4.737c.637-.637.637-1.768 0-2.404-.636-.637-1.768-.637-2.404 0-.636.636-.636 1.767 0 2.404.707.707 1.697.707 2.404 0zm17.89-17.89c.636-.637.636-1.768 0-2.404-.636-.637-1.768-.637-2.404 0-.636.636-.636 1.767 0 2.404.707.707 1.697.707 2.404 0zM70.71 30.476c-.636.637-.636 1.768 0 2.405.637.636 1.769.636 2.405 0 .636-.637.636-1.768 0-2.405-.707-.707-1.697-.707-2.404 0zm-4.737-4.737c-.636.636-.636 1.767 0 2.404.636.636 1.768.636 2.404 0 .637-.637.637-1.768 0-2.404a1.686 1.686 0 00-2.404 0zm2.617 11.526c.636-.637.636-1.768 0-2.405-.637-.636-1.768-.636-2.405 0-.636.637-.636 1.768 0 2.405a1.685 1.685 0 002.404 0zm-4.668-4.667c.637-.637.637-1.768 0-2.404-.636-.637-1.767-.637-2.404 0-.636.636-.636 1.767 0 2.404.637.636 1.768.636 2.404 0zm-6.858 2.05c-.637.637-.637 1.768 0 2.404.636.637 1.767.637 2.404 0 .636-.636.636-1.767 0-2.404-.707-.565-1.768-.636-2.404 0zm-4.667-4.667c-.637.637-.637 1.768 0 2.404.636.637 1.767.637 2.404 0 .636-.636.636-1.767 0-2.404-.778-.636-1.768-.636-2.404 0zm-4.526 4.526c-.636.636-.636 1.768 0 2.404.637.636 1.768.636 2.404 0 .637-.636.637-1.768 0-2.404-.707-.707-1.697-.707-2.404 0zm-2.121 6.788c.636-.636.636-1.768 0-2.404-.636-.636-1.768-.636-2.404 0-.637.636-.637 1.768 0 2.404a1.686 1.686 0 002.404 0zM93.126 8.061c-.636.636-.636 1.768 0 2.404.636.637 1.768.637 2.404 0 .637-.636.637-1.768 0-2.404a1.685 1.685 0 00-2.404 0zm.212 9.122c-.636.636-.636 1.767 0 2.404.637.636 1.768.636 2.404 0 .637-.637.637-1.768 0-2.404-.707-.566-1.767-.637-2.404 0zm-4.667-4.667c-.636.636-.636 1.768 0 2.404.637.636 1.768.636 2.404 0 .637-.636.637-1.768 0-2.404-.777-.637-1.767-.637-2.404 0zm.142 9.192c-.637.637-.637 1.768 0 2.404.636.637 1.767.637 2.404 0 .636-.636.636-1.767 0-2.404-.636-.636-1.768-.636-2.404 0zm-4.455 4.455c-.636.636-.636 1.768 0 2.404.636.637 1.768.637 2.404 0 .636-.636.636-1.768 0-2.404-.636-.636-1.768-.636-2.404 0zm-4.667-4.667c-.636.636-.636 1.768 0 2.404a1.686 1.686 0 002.404 0c.637-.636.636-1.768 0-2.404a1.685 1.685 0 00-2.404 0zm-4.455 4.454c-.636.637-.636 1.769 0 2.405.637.636 1.768.636 2.404 0 .637-.636.637-1.768 0-2.404-.777-.637-1.767-.637-2.404 0zM16.264 65.549c-.778.778-.849 2.121 0 2.97.777.777 2.12.848 2.97 0 .777-.778.848-2.122 0-2.97-.85-.849-2.122-.849-2.97 0zm44.759-44.76c-.777.778-.848 2.121 0 2.97.778.778 2.122.848 2.97 0 .778-.778.849-2.122 0-2.97-.848-.849-2.121-.849-2.97 0zm-4.454 4.455c-.778.777-.849 2.121 0 2.97.777.777 2.12.848 2.97 0 .777-.778.848-2.122 0-2.97-.85-.849-2.193-.778-2.97 0zM83.65 7.495c-.777.778-.848 2.122 0 2.97.779.778 2.122.849 2.97 0 .778-.778.85-2.121 0-2.97-.848-.707-2.191-.778-2.97 0zm.213 9.264c-.778.777-.849 2.12 0 2.97.778.777 2.121.848 2.97 0 .778-.778.848-2.122 0-2.97-.849-.849-2.122-.849-2.97 0zm-4.738-4.739c-.778.779-.848 2.122 0 2.97.778.778 2.122.85 2.97 0 .778-.777.849-2.12 0-2.97-.778-.777-2.121-.848-2.97 0zm-4.455 4.456c-.777.777-.848 2.121 0 2.97.778.777 2.122.848 2.97 0 .778-.778.849-2.122 0-2.97-.777-.778-2.192-.778-2.97 0zm-4.666-4.667c-.778.778-.849 2.121 0 2.97.777.777 2.12.848 2.97 0 .777-.778.848-2.122 0-2.97-.85-.849-2.193-.778-2.97 0zm.212 9.121c-.778.778-.849 2.122 0 2.97.778.778 2.121.849 2.97 0 .777-.778.848-2.121 0-2.97-.849-.707-2.192-.777-2.97 0zm-4.667-4.666c-.778.777-.849 2.12 0 2.97.778.777 2.121.848 2.97 0 .777-.779.848-2.122 0-2.97-.92-.778-2.192-.778-2.97 0zm8.626-9.193c-.99.99-.99 2.546 0 3.536.99.99 2.546.99 3.536 0 .99-.99.99-2.546 0-3.536a2.476 2.476 0 00-3.535 0zM14.284 99.349c.212-.213.212-.496 0-.708-.213-.212-.495-.212-.708 0-.212.212-.212.495 0 .707.213.213.495.213.708 0zm31.324-4.455c-.212.212-.212.495 0 .707.213.212.495.212.708 0 .212-.212.212-.495 0-.707-.213-.212-.495-.212-.708 0zm-3.748 4.455c-.211-.213-.494-.213-.706 0-.213.212-.213.495 0 .707.212.212.495.212.707 0 .212-.212.212-.495 0-.707zm-4.454 5.161c.212-.212.212-.495 0-.707-.212-.212-.495-.212-.707 0-.212.212-.212.495 0 .707.141.283.495.212.707 0zm-4.738-4.737c.212-.212.212-.495 0-.707-.212-.212-.495-.212-.707 0-.212.212-.212.495 0 .707.142.283.495.212.707 0zm-4.666-4.667c.212-.212.212-.495 0-.707-.213-.212-.495-.212-.708 0-.212.212-.212.495 0 .707.142.283.495.212.707 0zm-4.526 4.525c.212-.212.212-.495 0-.707-.212-.212-.495-.212-.707 0-.212.212-.212.495 0 .707.212.213.495.213.707 0zm-4.738-4.737c.213-.212.213-.495 0-.707-.212-.212-.495-.212-.707 0-.212.212-.212.495 0 .707.212.212.495.212.707 0zm39.882-31.82c-.213.212-.213.495 0 .707.211.212.494.212.706 0 .212-.212.212-.495 0-.707-.212-.212-.495-.212-.707 0zM54.094 67.6c-.212.212-.212.495 0 .707.212.212.495.212.707 0 .212-.213.212-.495 0-.707-.142-.283-.495-.213-.707 0zm-3.748 4.454c-.212-.212-.495-.212-.707 0-.212.212-.212.495 0 .707.212.213.495.213.707 0 .212-.212.212-.495 0-.707zm-5.162 4.455c-.212.212-.212.495 0 .707.212.212.495.212.707 0 .212-.212.212-.495 0-.707-.212-.212-.495-.212-.707 0zm4.95 13.859c-.212.213-.212.495 0 .707.212.213.495.213.707 0 .212-.212.212-.495 0-.707-.212-.212-.566-.141-.707 0zm-4.738-4.738c-.212.213-.212.496 0 .708.212.212.495.212.707 0 .213-.212.213-.495 0-.707-.212-.213-.565-.142-.707 0zm80.823-71.346c-.212.212-.212.495 0 .707.212.212.495.212.707 0 .212-.212.212-.495 0-.707-.212-.213-.495-.213-.707 0zm-4.738-4.738c-.212.212-.212.495 0 .707.212.212.495.212.707 0 .212-.212.212-.495 0-.707-.212-.212-.495-.212-.707 0zM91.075 50.134c-.212-.212-.495-.212-.707 0-.212.212-.212.495 0 .707.212.212.495.212.707 0 .212-.212.212-.495 0-.707zm-5.162 4.455c-.212.212-.212.495 0 .707.213.212.496.212.708 0 .212-.212.212-.495 0-.707-.212-.212-.495-.212-.707 0zm-3.747 5.161c.212-.212.212-.494 0-.706-.212-.213-.495-.213-.707 0-.212.212-.212.495 0 .707.212.212.495.212.707 0zm-4.526 4.526c.213-.212.213-.495 0-.707-.212-.212-.495-.212-.707 0-.212.212-.212.495 0 .707.212.212.495.212.707 0zm-.212-9.263c.212-.212.212-.495 0-.707-.212-.212-.495-.212-.707 0-.212.212-.212.495 0 .707.212.212.495.212.707 0zm-4.525 4.525c.212-.212.212-.494 0-.707-.212-.212-.495-.212-.707 0-.212.212-.212.495 0 .707.212.213.495.213.707 0zm-5.163 3.748c-.211.212-.211.495 0 .707.213.212.496.212.708 0 .212-.212.212-.495 0-.707-.212-.212-.495-.212-.707 0zm-4.666-4.666c-.212.211-.212.494 0 .706.212.212.495.212.707 0 .212-.212.212-.495 0-.707-.212-.212-.495-.212-.707 0zm50.417-30.902c-.212-.212-.495-.212-.707 0-.213.213-.213.495 0 .708.212.212.495.212.707 0 .212-.212.212-.495 0-.707zm-4.455 4.455c-.212-.212-.495-.212-.707 0-.212.212-.212.495 0 .707.212.213.495.213.707 0 .141-.14.212-.495 0-.707zm-4.526 4.526c-.212-.212-.495-.212-.707 0-.212.212-.212.495 0 .707.212.212.495.212.707 0 .213-.212.213-.495 0-.707zm-4.454 4.455c-.212-.213-.495-.213-.707 0-.213.212-.213.495 0 .707.212.212.495.212.707 0 .212-.212.212-.495 0-.707zM95.6 45.608c-.211-.212-.494-.212-.706 0-.212.213-.212.495 0 .708.212.212.495.212.707 0 .141-.142.212-.495 0-.708zm26.871-26.87c-.212-.212-.495-.212-.707 0-.212.213-.212.495 0 .707.212.213.495.213.707 0 .141-.141.212-.494 0-.707zm-5.233 4.526c-.212.212-.212.495 0 .707.212.212.495.212.707 0 .213-.212.213-.495 0-.707-.212-.212-.495-.212-.707 0zm-98.5 89.449c-.07.071-.141.283 0 .424.071.071.283.142.425 0 .07-.071.141-.283 0-.424-.212-.071-.354-.071-.425 0zm-9.263-.212c-.07.07-.141.283 0 .424.071.071.283.141.425 0 .07-.071.141-.283 0-.424-.142-.142-.283-.142-.425 0zm38.113 56.356c.071.071.283.142.425 0 .07-.071.141-.283 0-.424-.071-.071-.283-.142-.425 0-.07.212-.07.353 0 .424zm-10.323-46.528c-.071.071-.142.283 0 .425.07.07.282.141.424 0 .07-.071.141-.283 0-.425-.07-.07-.354-.07-.424 0zm-4.667-4.666c-.071.07-.142.282 0 .424.07.071.282.141.424 0 .07-.071.141-.283 0-.424-.142-.142-.354-.071-.424 0zm-4.738-4.738c-.07.071-.141.283 0 .424.07.071.283.142.424 0 .071-.07.142-.283 0-.424-.141-.141-.353-.071-.424 0zm-4.667-4.667c-.07.071-.141.283 0 .424.07.071.283.142.424 0 .071-.07.142-.283 0-.424-.141-.141-.353-.071-.424 0zm23.759 32.668c-.07.071-.142.283 0 .425.07.07.283.141.424 0 .07-.071.142-.283 0-.425-.212-.07-.353-.07-.424 0zm-4.667-4.667c-.07.071-.141.283 0 .425.07.07.283.141.424 0 .071-.071.142-.283 0-.425-.212-.07-.353-.07-.424 0zm-4.738-4.737c-.07.071-.141.283 0 .424.071.071.283.142.425 0 .07-.071.141-.283 0-.424-.212-.071-.354-.071-.425 0zm-4.737-4.738c-.07.071-.142.283 0 .425.07.07.283.141.424 0 .07-.071.142-.283 0-.425-.141 0-.354-.07-.424 0zM14 107.975c-.07.071-.14.283 0 .424.072.071.284.142.425 0 .07-.07.141-.282 0-.424-.212-.071-.354-.071-.424 0zm42.922 51.973c.07-.071.142-.283 0-.425-.07-.07-.283-.141-.424 0-.07.071-.142.283 0 .425.212.07.354.07.424 0zm-4.737-4.738c.07-.071.141-.283 0-.424-.071-.071-.283-.142-.425 0-.07.07-.141.283 0 .424.212.071.354.071.425 0zm-5.021-5.02c-.07.07-.141.282 0 .424.07.071.283.141.424 0 .071-.071.142-.283 0-.424-.141-.142-.282-.142-.424 0zm5.303 13.788c-.07-.071-.282-.141-.424 0-.07.071-.141.283 0 .424.07.071.283.142.424 0 .071-.07.142-.282 0-.424zm-19.799-55.154c.071-.071.142-.283 0-.424-.07-.071-.282-.142-.424 0-.07.07-.141.282 0 .424.212.07.354.07.424 0zm-4.666-5.091c-.071-.071-.283-.142-.425 0-.07.07-.141.282 0 .424.07.071.283.141.424 0 .142-.142.142-.283 0-.424zm22.839-4.031c-.07-.07-.283-.141-.424 0-.07.07-.142.283 0 .424.07.071.283.142.424 0 .142-.141.142-.282 0-.424zm17.678-26.729c.07-.07.141-.282 0-.424-.071-.07-.283-.141-.425 0-.07.07-.141.283 0 .424.142.142.283.142.425 0zm-4.526 4.526c.07-.07.142-.283 0-.424-.07-.071-.283-.142-.424 0-.07.07-.142.282 0 .424.212.07.353.07.424 0zm-4.667-4.667c.071-.07.142-.283 0-.424-.07-.07-.282-.142-.424 0-.07.07-.141.283 0 .424.212.07.354.07.424 0zm-4.808 4.384c.07.07.283.142.424 0 .07-.07.142-.283 0-.424-.07-.07-.283-.142-.424 0-.07.212-.07.353 0 .424zm.566 9.193c.07-.071.141-.283 0-.425-.071-.07-.283-.141-.425 0-.07.071-.141.283 0 .425.142.14.283.14.425 0zm.212 8.838c-.07-.07-.283-.141-.424 0-.071.071-.142.283 0 .424.07.071.282.142.424 0 .141-.14.141-.282 0-.424zm119.218-5.798c.071-.07.141-.283 0-.424-.071-.071-.283-.142-.424 0-.071.07-.142.283 0 .424.07.07.283.141.424 0zm-4.738-4.737c.071-.071.142-.283 0-.425-.07-.07-.282-.141-.424 0-.071.07-.141.283 0 .424.142.142.283.142.424 0zm-4.667-4.668c.071-.07.142-.282 0-.424-.07-.07-.282-.141-.424 0-.07.07-.141.283 0 .424.071.071.283.142.424 0zm-4.737-4.737c.071-.07.141-.283 0-.424-.071-.071-.283-.142-.424 0-.071.07-.142.282 0 .424.141.141.282.141.424 0zm14.354 23.263c.071-.07.142-.282 0-.423-.071-.071-.283-.142-.424 0-.071.07-.142.282 0 .424.141.141.283.141.424 0zm-70.074-34.153c-.071.071-.142.283 0 .425.071.07.283.141.424 0 .071-.071.142-.283 0-.424-.141-.142-.283-.142-.424 0zm-4.738-4.737c-.07.07-.141.283 0 .424.07.07.283.142.424 0 .071-.07.142-.283 0-.424-.07-.07-.282-.142-.424 0zm-8.768-.283c-.07-.07-.283-.142-.424 0-.07.07-.141.283 0 .424.07.07.283.142.424 0 .07-.07.142-.283 0-.424zm-4.879 4.879c.07.07.283.142.424 0 .071-.07.142-.283 0-.424-.07-.07-.282-.142-.424 0-.07.212-.07.353 0 .424zm-4.455 4.454c.071.072.283.142.425 0 .07-.07.141-.282 0-.424-.071-.07-.283-.14-.425 0-.07.213-.07.354 0 .425zm-8.768-.565c-.07-.07-.283-.141-.424 0-.07.07-.142.283 0 .424.07.071.283.142.424 0 0-.141.07-.353 0-.424zm73.398 1.839c-.071-.071-.283-.142-.424 0-.071.07-.142.282 0 .424.07.07.282.141.424 0 .141-.141.141-.283 0-.424zm-9.546-.213c-.071.071-.142.283 0 .425.071.07.283.141.424 0 .071-.071.142-.283 0-.424-.141-.142-.283-.142-.424 0zm-4.667-4.666c-.071.07-.141.282 0 .424.071.07.283.141.424 0 .071-.07.142-.283 0-.424-.141-.142-.283-.142-.424 0zm-9.192.141c.07.07.282.141.424 0 .071-.07.141-.283 0-.424-.071-.07-.283-.142-.424 0-.142.141-.142.283 0 .424zm-9.122-.636c-.071.07-.141.282 0 .424.071.07.283.141.424 0 .071-.07.142-.283 0-.424-.212-.071-.353-.071-.424 0zm-4.738-4.738c-.07.07-.141.283 0 .424.071.07.283.142.425 0 .07-.07.141-.283 0-.424-.213-.07-.354-.07-.425 0zm46.457 10.678c.071-.071.142-.284 0-.425-.07-.07-.283-.141-.424 0-.071.07-.141.283 0 .424.141.142.283.142.424 0zM56.64 141.704c.212-.212.212-.495 0-.707-.213-.212-.496-.212-.708 0-.212.212-.212.495 0 .707.212.212.495.212.707 0zm-1.627-36.699c.212.212.495.212.707 0 .212-.212.212-.495 0-.707-.212-.212-.495-.212-.707 0-.212.212-.212.495 0 .707zm-3.748 4.455c.212-.212.212-.495 0-.707-.212-.212-.495-.212-.707 0-.212.212-.212.495 0 .707.212.212.495.212.707 0zm-4.455 4.455c.213-.212.213-.495 0-.707-.212-.212-.495-.212-.707 0-.212.212-.212.495 0 .707.142.283.495.212.707 0zm5.162 23.122c.212-.212.212-.495 0-.707-.212-.212-.495-.212-.707 0-.212.212-.212.495 0 .707.142.142.495.212.707 0zm-4.737-4.737c.212-.212.212-.495 0-.707-.212-.213-.495-.213-.707 0-.212.212-.212.495 0 .707.212.212.495.212.707 0zm-4.667-4.667c.212-.212.212-.495 0-.707-.212-.212-.495-.212-.707 0-.212.212-.212.495 0 .707.141.141.495.212.707 0zm19.022 27.93c.211-.212.211-.495 0-.707-.213-.212-.496-.212-.708 0-.212.212-.212.495 0 .707.141.283.495.213.707 0zm27.788 9.971c.213-.212.213-.495 0-.707-.212-.213-.495-.213-.707 0-.212.212-.212.495 0 .707.142.141.495.212.707 0zm-9.899-.99c-.212.212-.212.495 0 .707.212.212.495.212.707 0 .212-.212.212-.495 0-.707-.212-.212-.495-.212-.707 0zm-8.415.495c.212-.212.212-.495 0-.707-.212-.213-.495-.213-.707 0-.212.212-.212.495 0 .707.07.212.495.212.707 0zm-9.263-.212c.212-.212.212-.495 0-.707-.212-.213-.495-.213-.707 0-.212.212-.212.495 0 .707.212.212.495.212.707 0zm22.345 4.384c-.212.212-.212.495 0 .707.212.212.495.212.707 0 .212-.212.212-.495 0-.707-.141-.142-.495-.212-.707 0zm-8.415.495c.212-.212.212-.495 0-.707-.212-.213-.495-.213-.707 0-.212.212-.212.495 0 .707.141.283.495.212.707 0zm-9.192-.142c.212-.212.212-.495 0-.707-.212-.212-.495-.212-.707 0-.212.212-.212.495 0 .707.141.142.495.212.707 0zm-9.899-.99c-.213.212-.213.495 0 .707.211.212.494.212.706 0 .213-.212.213-.495 0-.707-.212-.212-.495-.212-.707 0zm50.628 5.799c-.212.212-.212.495 0 .707.212.212.495.212.707 0 .212-.212.212-.495 0-.707-.212-.213-.565-.142-.707 0zm-4.737-4.738c-.213.212-.213.495 0 .707.212.212.495.212.707 0 .212-.212.212-.495 0-.707-.142-.141-.566-.141-.707 0zm-9.193-.141c-.212.212-.212.495 0 .707.212.212.495.212.707 0 .212-.212.212-.495 0-.707-.212-.213-.495-.213-.707 0zm-36.416-18.597c.212-.213.212-.495 0-.708-.212-.212-.495-.212-.707 0-.212.213-.212.495 0 .708.141.282.495.212.707 0zm-4.738-4.738c.213-.212.213-.495 0-.707-.212-.212-.494-.212-.707 0-.212.212-.212.495 0 .707.142.283.495.212.708 0zM41.578 118.44c.212.213.495.213.707 0 .212-.212.212-.495 0-.707-.212-.212-.495-.212-.707 0-.212.212-.212.495 0 .707zm24.749 41.861c.212-.212.212-.495 0-.707-.212-.212-.495-.212-.707 0-.213.212-.213.495 0 .707.141.283.495.212.707 0zm6.363-82.448c.213.212.496.212.708 0 .212-.213.212-.495 0-.708-.212-.212-.495-.212-.707 0-.213.213-.142.566 0 .708zm-4.525 4.525c.212.212.495.212.707 0 .212-.212.212-.495 0-.707-.212-.212-.495-.212-.707 0-.141.141-.141.566 0 .707zm-8.415-.212c.213-.212.213-.495 0-.707-.212-.213-.494-.213-.706 0-.213.212-.213.495 0 .707.212.212.495.212.707 0zm-.494 9.121c.212.213.495.213.707 0 .212-.212.212-.495 0-.707-.212-.212-.495-.212-.707 0-.213.213-.142.566 0 .707zm.212 9.264c.212.212.495.212.707 0 .212-.212.212-.495 0-.707-.212-.213-.495-.213-.707 0-.142.141-.212.495 0 .707zm110.026-7.213c-.213.212-.213.495 0 .707.212.212.495.212.707 0 .212-.212.212-.495 0-.707-.212-.212-.566-.141-.707 0zm-4.738-4.738c-.212.213-.212.496 0 .708.212.212.495.212.707 0 .212-.213.212-.495 0-.708-.141-.14-.566-.14-.707 0zm-4.667-4.666c-.212.212-.212.495 0 .707.212.212.495.212.707 0 .212-.212.212-.495 0-.707-.212-.212-.566-.142-.707 0zm-4.738-4.738c-.212.212-.212.495 0 .707.213.212.495.212.708 0 .212-.212.212-.495 0-.707-.142-.141-.566-.141-.708 0zm19.022 28.072c-.213.212-.213.495 0 .707.212.212.495.212.707 0 .212-.212.212-.495 0-.707-.212-.212-.495-.212-.707 0zm-4.738-4.737c-.212.212-.212.495 0 .707.212.212.495.212.707 0 .212-.212.212-.495 0-.707-.141-.142-.495-.213-.707 0zM109.884 69.65c.213-.212.213-.495 0-.707-.212-.212-.495-.212-.707 0-.212.212-.212.495 0 .707.212.212.495.212.707 0zm-9.899-.99c-.212.212-.212.495 0 .707.212.212.495.212.707 0 .212-.212.212-.495 0-.707-.141-.141-.495-.212-.707 0zm-4.667-4.667c-.212.212-.212.495 0 .707.212.212.495.212.707 0 .212-.212.212-.495 0-.707-.212-.212-.495-.212-.707 0zm-3.748 5.162c.213-.212.213-.495 0-.707-.212-.212-.495-.212-.707 0-.212.212-.212.495 0 .707.212.212.495.212.707 0zm-4.525 4.525c.212-.212.212-.494 0-.707-.212-.212-.495-.212-.707 0-.212.213-.212.495 0 .707.212.213.495.213.707 0zm-9.9-.282c.213.212.495.212.708 0 .212-.212.212-.495 0-.707-.213-.213-.495-.213-.708 0-.212.212-.141.565 0 .707zm64.984 1.626c.212-.212.212-.495 0-.707-.213-.212-.495-.212-.708 0-.212.212-.212.495 0 .707.213.212.495.212.708 0zm-9.829-.919c-.212.212-.212.495 0 .707.212.212.495.212.707 0 .212-.212.212-.495 0-.707-.212-.212-.495-.212-.707 0zm-4.738-4.738c-.212.212-.212.495 0 .707.212.213.495.213.707 0 .212-.212.212-.495 0-.707-.212-.212-.495-.212-.707 0zm-8.414.495c.212-.212.212-.495 0-.707-.213-.212-.495-.212-.708 0-.212.212-.212.495 0 .707.071.212.495.212.708 0zm31.537 4.668c-.213.211-.213.494 0 .706.212.212.495.212.707 0 .212-.212.212-.495 0-.707-.212-.212-.566-.141-.707 0zm-3.819 5.232c.212-.212.212-.495 0-.707-.212-.213-.495-.213-.707 0-.212.212-.212.495 0 .707.212.212.495.212.707 0zm-81.812 70.357a.896.896 0 000 1.273.897.897 0 001.273 0 .896.896 0 000-1.273.895.895 0 00-1.273 0zm-4.667-4.667a.896.896 0 000 1.273.897.897 0 001.273 0 .897.897 0 000-1.273.895.895 0 00-1.273 0zm.353-35.426a.896.896 0 000-1.273.897.897 0 00-1.272 0 .897.897 0 000 1.273.897.897 0 001.272 0zm-5.727 4.455a.897.897 0 001.273 0 .897.897 0 000-1.273.895.895 0 00-1.273 0 .896.896 0 000 1.273zm-4.455 4.454a.895.895 0 001.273 0 .895.895 0 000-1.272.895.895 0 00-1.273 0 .895.895 0 000 1.272zm15.557 23.335a.897.897 0 000-1.273.897.897 0 00-1.273 0 .897.897 0 000 1.273.897.897 0 001.273 0zm-4.738-4.738a.896.896 0 000-1.273.897.897 0 00-1.273 0 .897.897 0 000 1.273.895.895 0 001.273 0zm-5.94-5.939a.895.895 0 000 1.272.895.895 0 001.273 0 .895.895 0 000-1.272.895.895 0 00-1.273 0zm-3.465-3.465a.897.897 0 000-1.273.895.895 0 00-1.272 0 .897.897 0 000 1.273.897.897 0 001.272 0zm-5.939-4.667a.897.897 0 001.273 0 .896.896 0 000-1.273.895.895 0 00-1.273 0 .897.897 0 000 1.273zm27.86-36.063a.896.896 0 000-1.272.896.896 0 00-1.273 0 .896.896 0 000 1.272.896.896 0 001.273 0zm-10.465-.282a.896.896 0 001.272 0 .896.896 0 000-1.273.896.896 0 00-1.272 0 .896.896 0 000 1.273zm6.292 13.93a.897.897 0 000-1.273.896.896 0 00-1.272 0 .897.897 0 000 1.273.897.897 0 001.273 0zm-4.737-4.738a.896.896 0 000-1.273.896.896 0 00-1.273 0 .896.896 0 000 1.273.896.896 0 001.273 0zm.283 9.192a.895.895 0 000-1.272.895.895 0 00-1.273 0 .895.895 0 000 1.272c.283.425.92.354 1.273 0zm9.192 54.023a.896.896 0 000 1.273.895.895 0 001.273 0 .897.897 0 000-1.273.897.897 0 00-1.273 0zm-4.667-4.667a.897.897 0 000 1.273.895.895 0 001.273 0 .896.896 0 000-1.273.897.897 0 00-1.272 0zm46.387 19.517a.895.895 0 000 1.272.895.895 0 001.272 0 .895.895 0 000-1.272.895.895 0 00-1.272 0zm-4.738-4.738a.897.897 0 000 1.273.897.897 0 001.273 0 .897.897 0 000-1.273.896.896 0 00-1.273 0zm-4.667-4.667a.897.897 0 000 1.273.897.897 0 001.273 0 .897.897 0 000-1.273.897.897 0 00-1.273 0zm-4.737-4.738a.896.896 0 000 1.273.895.895 0 001.272 0 .896.896 0 000-1.273.896.896 0 00-1.272 0zm-4.456 4.455a.897.897 0 000 1.273.895.895 0 001.274 0 .896.896 0 000-1.273.897.897 0 00-1.273 0zm-4.737-4.737a.895.895 0 000 1.272.895.895 0 001.273 0 .895.895 0 000-1.272.895.895 0 00-1.273 0zm-4.667-4.667a.895.895 0 000 1.272.895.895 0 001.273 0 .895.895 0 000-1.272.895.895 0 00-1.273 0zm-4.526 4.525a.896.896 0 000 1.273.895.895 0 001.274 0 .897.897 0 000-1.273.897.897 0 00-1.273 0zm81.035-62.226a.897.897 0 000 1.273.896.896 0 001.273 0 .895.895 0 000-1.272.897.897 0 00-1.273 0zm-4.737-4.737a.895.895 0 000 1.273.895.895 0 001.272 0 .895.895 0 000-1.273.895.895 0 00-1.272 0zm-4.667-4.667a.895.895 0 000 1.273.897.897 0 001.273 0 .897.897 0 000-1.273.896.896 0 00-1.273 0zm-4.738-4.737a.897.897 0 000 1.272.896.896 0 001.273 0 .897.897 0 000-1.272.897.897 0 00-1.273 0zm23.83 32.739a.895.895 0 000 1.272.895.895 0 001.272 0 .895.895 0 000-1.272.895.895 0 00-1.272 0zm-4.738-4.738a.896.896 0 000 1.273.897.897 0 001.273 0 .897.897 0 000-1.273.897.897 0 00-1.273 0zm-3.394-3.394a.897.897 0 000-1.273.897.897 0 00-1.273 0 .897.897 0 000 1.273.897.897 0 001.273 0zm-6.011-6.01a.896.896 0 000 1.272.896.896 0 001.273 0 .895.895 0 000-1.272.896.896 0 00-1.273 0zm1.556 10.465a.896.896 0 000-1.273.896.896 0 00-1.273 0 .897.897 0 000 1.273.897.897 0 001.273 0zm-4.738-4.738a.896.896 0 000-1.273.896.896 0 00-1.272 0 .896.896 0 000 1.273.895.895 0 001.272 0zm-78.63-24.89a.896.896 0 000-1.273.896.896 0 00-1.273 0 .896.896 0 000 1.273.896.896 0 001.273 0zm35.214-8.203a.896.896 0 001.273 0 .897.897 0 000-1.272.897.897 0 00-1.273 0 .897.897 0 000 1.273zm-7.919-.282a.897.897 0 000-1.273.897.897 0 00-1.273 0 .895.895 0 000 1.273.896.896 0 001.273 0zm-10.395-.213a.896.896 0 001.273 0 .896.896 0 000-1.272.896.896 0 00-1.273 0 .896.896 0 000 1.272zm-4.525 4.526a.896.896 0 001.272 0 .896.896 0 000-1.273.896.896 0 00-1.272 0 .896.896 0 000 1.273zm-7.92-.283a.896.896 0 000-1.273.896.896 0 00-1.273 0 .896.896 0 000 1.273.896.896 0 001.273 0zm55.084 1.344a.897.897 0 000-1.273.897.897 0 00-1.273 0 .895.895 0 000 1.273.896.896 0 001.273 0zm-10.395-1.485a.897.897 0 000 1.273.897.897 0 001.273 0 .897.897 0 000-1.273.896.896 0 00-1.273 0zm-4.738-4.737a.897.897 0 000 1.272.897.897 0 001.273 0 .895.895 0 000-1.273.897.897 0 00-1.273 0zm19.87 10.96a.895.895 0 000-1.273.896.896 0 00-1.273 0 .897.897 0 000 1.272.897.897 0 001.273 0zm-78.842 30.476a1.324 1.324 0 001.838 0 1.324 1.324 0 000-1.839 1.324 1.324 0 00-1.838 0 1.324 1.324 0 000 1.839zm2.121 9.192a1.323 1.323 0 000-1.838 1.324 1.324 0 00-1.838 0 1.323 1.323 0 000 1.838 1.324 1.324 0 001.838 0zm-4.737-4.738a1.323 1.323 0 000-1.838 1.324 1.324 0 00-1.839 0 1.323 1.323 0 000 1.838 1.324 1.324 0 001.839 0zm14.354 23.264a1.323 1.323 0 000-1.838 1.324 1.324 0 00-1.839 0 1.323 1.323 0 000 1.838c.495.495 1.273.566 1.839 0zm-4.667-4.667a1.323 1.323 0 000-1.838 1.324 1.324 0 00-1.839 0 1.323 1.323 0 000 1.838c.495.495 1.273.566 1.839 0zm-4.738-4.737a1.324 1.324 0 000-1.839 1.324 1.324 0 00-1.838 0 1.324 1.324 0 000 1.839c.495.495 1.273.565 1.838 0zm-4.667-4.667a1.325 1.325 0 000-1.839 1.324 1.324 0 00-1.838 0 1.324 1.324 0 000 1.839c.495.495 1.273.565 1.838 0zm-4.738-4.738a1.323 1.323 0 000-1.838 1.324 1.324 0 00-1.838 0 1.323 1.323 0 000 1.838c.495.495 1.273.566 1.839 0zm14.284 23.335a1.324 1.324 0 000-1.839 1.324 1.324 0 00-1.838 0 1.324 1.324 0 000 1.839 1.324 1.324 0 001.838 0zm-3.182-55.084a1.324 1.324 0 001.839 0 1.324 1.324 0 000-1.838 1.324 1.324 0 00-1.839 0 1.324 1.324 0 000 1.838zm4.95 13.859a1.324 1.324 0 001.839 0 1.323 1.323 0 000-1.838 1.324 1.324 0 00-1.839 0 1.323 1.323 0 000 1.838zm-4.455 4.455a1.324 1.324 0 001.839 0 1.323 1.323 0 000-1.838 1.324 1.324 0 00-1.839 0c-.565.565-.495 1.343 0 1.838zm51.973 59.185a1.323 1.323 0 000 1.838 1.323 1.323 0 001.838 0 1.323 1.323 0 000-1.838 1.323 1.323 0 00-1.838 0zm-4.738-4.738a1.324 1.324 0 000 1.839 1.324 1.324 0 001.839 0 1.325 1.325 0 00-.001-1.839 1.323 1.323 0 00-1.838 0zm-4.667-4.667a1.324 1.324 0 000 1.839 1.324 1.324 0 001.839 0 1.324 1.324 0 000-1.839c-.566-.565-1.344-.495-1.839 0zm-4.738-4.737a1.324 1.324 0 000 1.838 1.324 1.324 0 001.839 0 1.323 1.323 0 000-1.838 1.324 1.324 0 00-1.839 0zm-4.666-4.667a1.323 1.323 0 000 1.838 1.323 1.323 0 001.838 0 1.323 1.323 0 000-1.838c-.566-.566-1.343-.495-1.838 0zm-4.455 4.455a1.323 1.323 0 000 1.838 1.324 1.324 0 001.838 0 1.323 1.323 0 000-1.838c-.565-.566-1.343-.495-1.838 0zm-4.738-4.738a1.324 1.324 0 000 1.839 1.326 1.326 0 001.839 0 1.324 1.324 0 000-1.839 1.324 1.324 0 00-1.839 0zm-4.738-4.738a1.324 1.324 0 000 1.839 1.324 1.324 0 001.84 0 1.324 1.324 0 000-1.839 1.325 1.325 0 00-1.84 0zm-4.454 4.455a1.325 1.325 0 000 1.839 1.324 1.324 0 001.838 0 1.324 1.324 0 000-1.839c-.565-.424-1.343-.495-1.838 0zm-4.526 4.526a1.323 1.323 0 000 1.838 1.324 1.324 0 001.839 0 1.323 1.323 0 000-1.838 1.324 1.324 0 00-1.839 0zm-4.667-4.667a1.323 1.323 0 000 1.838 1.324 1.324 0 001.839 0 1.323 1.323 0 000-1.838 1.324 1.324 0 00-1.839 0zm88.247-28.143a1.323 1.323 0 000-1.838 1.324 1.324 0 00-1.838-.001 1.324 1.324 0 000 1.839 1.323 1.323 0 001.838 0zm-4.737-4.738a1.323 1.323 0 000-1.838 1.324 1.324 0 00-1.839 0 1.323 1.323 0 000 1.838c.566.566 1.344.495 1.839 0zm-4.667-4.667a1.323 1.323 0 000-1.838 1.324 1.324 0 00-1.839 0 1.323 1.323 0 000 1.838 1.324 1.324 0 001.839 0zm2.475-15.485a1.324 1.324 0 000 1.838 1.323 1.323 0 001.838 0 1.324 1.324 0 000-1.838c-.566-.566-1.343-.495-1.838 0zm-4.738-4.738a1.324 1.324 0 000 1.839 1.324 1.324 0 001.839 0 1.324 1.324 0 000-1.839 1.324 1.324 0 00-1.839 0zm-4.737-4.738a1.325 1.325 0 00-.001 1.839 1.324 1.324 0 001.839 0 1.324 1.324 0 000-1.838 1.323 1.323 0 00-1.838 0zm23.829 32.74a1.323 1.323 0 000 1.838 1.323 1.323 0 001.838 0 1.323 1.323 0 000-1.838c-.565-.425-1.343-.495-1.838 0zm-4.738-4.738a1.323 1.323 0 000 1.838 1.324 1.324 0 001.839 0 1.323 1.323 0 000-1.838c-.566-.424-1.344-.495-1.839 0zm-14.071-14.071a1.323 1.323 0 000 1.838 1.323 1.323 0 001.838 0 1.323 1.323 0 000-1.838c-.636-.495-1.343-.495-1.838 0zm-7.637-7.637a1.324 1.324 0 000-1.839 1.323 1.323 0 00-1.838 0 1.324 1.324 0 000 1.839c.565.566 1.273.566 1.838 0zM81.6 87.893a1.324 1.324 0 001.839 0 1.324 1.324 0 000-1.838 1.324 1.324 0 00-1.839 0c-.495.495-.566 1.273 0 1.838zm-4.455 4.455a1.324 1.324 0 001.839 0 1.324 1.324 0 000-1.838 1.324 1.324 0 00-1.839 0c-.565.565-.565 1.272 0 1.838zm47.447-7.99a1.324 1.324 0 000-1.839 1.323 1.323 0 00-1.838 0 1.324 1.324 0 000 1.839 1.323 1.323 0 001.838 0zm-4.737-4.738a1.324 1.324 0 000-1.838 1.324 1.324 0 00-1.839 0 1.324 1.324 0 000 1.838 1.325 1.325 0 001.839 0zm-10.961-.212a1.324 1.324 0 001.839 0 1.324 1.324 0 000-1.838 1.324 1.324 0 00-1.839 0c-.494.495-.565 1.272 0 1.838zm-7.353-.283a1.324 1.324 0 000-1.838 1.324 1.324 0 00-1.839 0 1.324 1.324 0 000 1.838 1.324 1.324 0 001.839 0zm-4.526 4.525a1.324 1.324 0 000-1.838 1.324 1.324 0 00-1.838 0 1.324 1.324 0 000 1.839 1.324 1.324 0 001.838 0zm-10.96-.211a1.324 1.324 0 001.838 0 1.324 1.324 0 000-1.839 1.324 1.324 0 00-1.838 0c-.495.495-.566 1.273 0 1.839zm47.73 1.061a1.324 1.324 0 000-1.84 1.324 1.324 0 00-1.839 0 1.324 1.324 0 000 1.84c.495.494 1.273.565 1.839 0zm4.737 4.737a1.324 1.324 0 000-1.839 1.323 1.323 0 00-1.838 0 1.324 1.324 0 000 1.839c.495.495 1.273.566 1.838 0zM70.64 119.925c.636-.636.636-1.767 0-2.404-.636-.636-1.768-.636-2.404 0-.636.637-.636 1.768 0 2.404a1.685 1.685 0 002.404 0zm7.283 16.193c-.636.637-.636 1.768 0 2.404.637.637 1.768.637 2.404 0 .637-.636.637-1.768 0-2.404-.636-.636-1.767-.636-2.404 0zm-4.667-4.667c-.636.637-.636 1.768 0 2.404.637.637 1.768.637 2.404 0 .637-.636.637-1.767 0-2.404a1.686 1.686 0 00-2.404 0zm-4.737-4.737c-.637.636-.637 1.767 0 2.404.636.636 1.767.636 2.404 0 .636-.637.636-1.768 0-2.404-.636-.637-1.768-.637-2.404 0zm6.151-29.628c.637-.637.637-1.768 0-2.404a1.685 1.685 0 00-2.404 0c-.636.636-.636 1.767 0 2.404a1.685 1.685 0 002.404 0zm.495 18.314c.637-.637.637-1.768 0-2.404-.636-.637-1.767-.637-2.404 0-.636.636-.636 1.767 0 2.404.708.707 1.697.707 2.404 0zm21.355 30.405c-.636.637-.636 1.768 0 2.405a1.686 1.686 0 002.404 0c.637-.637.637-1.768 0-2.405-.636-.636-1.767-.636-2.404 0zm-4.667-4.667a1.686 1.686 0 000 2.405c.637.636 1.768.636 2.404 0 .637-.637.637-1.768 0-2.405a1.686 1.686 0 00-2.404 0zm-4.737-4.737a1.685 1.685 0 000 2.404c.636.636 1.767.636 2.404 0 .636-.636.636-1.768 0-2.404-.637-.636-1.768-.636-2.404 0zm-4.456 4.455a1.685 1.685 0 000 2.404c.637.636 1.769.636 2.405 0 .636-.637.636-1.768 0-2.404-.636-.637-1.768-.637-2.404 0zm-4.454 4.454a1.686 1.686 0 000 2.405c.636.636 1.768.636 2.404 0 .637-.637.637-1.768 0-2.405-.707-.565-1.767-.636-2.404 0zm46.386 19.517c-.636.636-.636 1.767 0 2.404.637.636 1.768.636 2.404 0 .637-.637.637-1.768 0-2.404-.777-.637-1.767-.637-2.404 0zm-4.737-4.738c-.637.636-.637 1.768 0 2.404.636.637 1.767.637 2.404 0 .636-.636.636-1.768 0-2.404-.707-.566-1.768-.636-2.404 0zm-4.667-4.667c-.637.636-.637 1.768 0 2.404.636.637 1.768.637 2.404 0 .636-.636.636-1.768 0-2.404-.778-.636-1.768-.636-2.404 0zm-4.738-4.738c-.636.637-.636 1.768 0 2.405.637.636 1.768.636 2.404 0 .637-.637.637-1.768 0-2.404-.707-.566-1.767-.637-2.404-.001zm-4.667-4.666c-.636.636-.636 1.767 0 2.404.637.636 1.768.636 2.404 0 .637-.637.637-1.768 0-2.404-.777-.637-1.767-.637-2.404 0zm-4.737-4.738c-.637.636-.637 1.768 0 2.404.636.637 1.767.637 2.404 0 .636-.636.636-1.768 0-2.404-.707-.566-1.768-.636-2.404 0zm63.781-16.688c-.637.637-.637 1.768 0 2.404.636.637 1.767.637 2.404 0 .636-.636.636-1.767 0-2.404-.707-.707-1.697-.707-2.404 0zm-18.809-18.809c-.637.637-.637 1.768 0 2.404.636.637 1.767.637 2.404 0 .636-.636.636-1.767 0-2.404-.707-.707-1.697-.707-2.404 0zm-4.738-4.737c-.636.636-.636 1.767 0 2.404.636.636 1.768.636 2.404 0 .637-.637.637-1.768 0-2.404a1.684 1.684 0 00-2.404 0zm-4.667-4.667a1.686 1.686 0 000 2.404c.636.636 1.768.636 2.404 0 .637-.636.637-1.768 0-2.404-.707-.707-1.697-.707-2.404 0zm26.092 35.001c.637-.636.637-1.767 0-2.404-.636-.636-1.767-.636-2.404 0-.636.637-.636 1.768 0 2.404a1.684 1.684 0 002.404 0zm-4.667-4.666c.637-.637.637-1.768 0-2.405-.636-.636-1.767-.636-2.404 0-.636.637-.636 1.768 0 2.405.637.636 1.768.636 2.404 0zm-4.737-4.738c.636-.636.636-1.768 0-2.404-.637-.637-1.768-.637-2.404 0-.637.636-.637 1.768 0 2.404.707.707 1.767.636 2.404 0zm-4.667-4.667c.636-.636.636-1.768 0-2.404-.636-.637-1.768-.637-2.404 0-.637.636-.637 1.768 0 2.404.636.636 1.768.636 2.404 0zm-2.829-20.789c-.636.636-.636 1.768 0 2.404.637.637 1.768.637 2.405 0 .636-.636.636-1.768 0-2.404-.707-.566-1.768-.636-2.405 0zm-57.417-3.677c.637-.636.637-1.768 0-2.404-.636-.636-1.767-.636-2.404 0-.636.636-.636 1.768 0 2.404a1.685 1.685 0 002.404 0zm-4.525 4.526c.636-.637.636-1.768 0-2.405-.636-.636-1.768-.636-2.404 0-.637.637-.637 1.768 0 2.405.707.565 1.767.636 2.404 0zm-4.455 4.454c.636-.636.636-1.767 0-2.404-.636-.636-1.768-.636-2.404 0-.636.637-.636 1.768 0 2.404.636.637 1.768.637 2.404 0zm.212 9.122c.637-.636.637-1.768 0-2.404-.636-.636-1.767-.636-2.404 0-.636.636-.636 1.768 0 2.404a1.685 1.685 0 002.404 0zm47.518-24.042c-.637.637-.637 1.768 0 2.405.636.636 1.768.636 2.404 0 .636-.637.636-1.768 0-2.405a1.685 1.685 0 00-2.404 0zm-2.051 6.859c.637-.636.637-1.767 0-2.404-.636-.636-1.767-.636-2.404 0-.636.637-.636 1.768 0 2.404a1.685 1.685 0 002.404 0zm-4.737-4.737c.636-.637.636-1.768 0-2.404-.637-.637-1.768-.637-2.405 0-.636.636-.636 1.767 0 2.404a1.686 1.686 0 002.405 0zm-4.667-4.667c.636-.637.636-1.768 0-2.404-.637-.637-1.768-.637-2.404 0-.637.636-.637 1.767 0 2.404.636.636 1.767.636 2.404 0zm-9.193-.283c.637-.636.637-1.768 0-2.404-.636-.637-1.767-.637-2.404 0-.636.636-.636 1.768 0 2.404.707.707 1.697.707 2.404 0zm-4.525 4.525c.636-.636.636-1.767 0-2.404-.637-.636-1.768-.636-2.404 0-.637.637-.637 1.768 0 2.404.777.637 1.767.637 2.404 0zm-9.122-.212c.637-.636.637-1.767 0-2.404-.636-.636-1.768-.636-2.404 0-.636.637-.636 1.768 0 2.404.636.637 1.768.637 2.404 0zm39.032 3.253a1.686 1.686 0 000 2.404c.637.637 1.768.637 2.405 0 .636-.636.636-1.768 0-2.404a1.686 1.686 0 00-2.405 0zm-49.709 39.81c-.778.778-.849 2.122 0 2.97.778.778 2.121.849 2.97 0 .778-.778.848-2.121 0-2.97-.849-.848-2.122-.848-2.97 0zm-4.738-4.737c-.778.777-.848 2.121 0 2.969.778.778 2.122.849 2.97 0 .778-.777.849-2.121 0-2.969-.849-.849-2.121-.849-2.97 0zm-4.667-4.667c-.777.777-.848 2.121 0 2.97.778.777 2.122.848 2.97 0 .778-.778.849-2.122 0-2.97-.848-.849-2.121-.849-2.97 0zm13.93 4.879c-.778.778-.848 2.121 0 2.97.778.777 2.122.848 2.97 0 .778-.778.849-2.122 0-2.97-.919-.778-2.192-.778-2.97 0zm42.073 33.163c-.778.778-.848 2.121 0 2.97.778.778 2.122.848 2.97 0 .778-.778.849-2.121 0-2.97-.919-.778-2.192-.778-2.97 0zm-4.737-4.738c-.778.778-.849 2.122 0 2.97.848.849 2.121.849 2.969 0 .778-.778.849-2.121 0-2.97-.848-.848-2.192-.777-2.969 0zm-4.667-4.666c-.778.777-.849 2.121 0 2.969.848.849 2.121.849 2.97 0 .777-.777.848-2.121 0-2.969-.849-.849-2.193-.778-2.97 0zm-4.738-4.738c-.778.778-.848 2.121 0 2.97.778.778 2.121.848 2.97 0 .778-.778.848-2.122 0-2.97-.849-.707-2.192-.778-2.97 0zm-4.667-4.667c-.778.778-.848 2.121 0 2.97.778.778 2.121.848 2.97 0 .778-.778.849-2.122 0-2.97-.919-.778-2.192-.778-2.97 0zm-4.737-4.738c-.778.778-.849 2.122 0 2.97.777.778 2.121.849 2.969 0 .778-.778.849-2.121 0-2.97-.848-.707-2.192-.778-2.969 0zm-4.667-4.667c-.778.778-.849 2.122 0 2.97.777.778 2.121.849 2.97 0 .777-.778.848-2.121 0-2.97-.92-.777-2.193-.777-2.97 0zm-4.738-4.737c-.778.778-.849 2.121 0 2.97.778.778 2.121.848 2.97 0 .778-.778.848-2.122 0-2.97-.92-.778-2.192-.778-2.97 0zm.283 9.192c-.778.778-.849 2.122 0 2.97.778.778 2.121.849 2.97 0 .778-.778.848-2.121 0-2.97-.92-.778-2.192-.778-2.97 0zm-4.738-4.737c-.778.777-.848 2.121 0 2.969.778.778 2.122.849 2.97 0 .778-.777.849-2.121 0-2.969-.92-.778-2.192-.778-2.97 0zm49.922-21.638c-.778.778-.849 2.121 0 2.97.778.778 2.121.848 2.97 0 .778-.778.848-2.121 0-2.97-.849-.848-2.192-.778-2.97 0zm-4.738-4.738c-.777.778-.848 2.122 0 2.97.778.778 2.122.849 2.97 0 .778-.778.849-2.121 0-2.97-.778-.777-2.192-.777-2.97 0zm-4.666-4.666c-.778.777-.849 2.121 0 2.969.777.778 2.121.849 2.969 0 .778-.777.849-2.121 0-2.969-.848-.849-2.192-.778-2.969 0zm23.758 32.668c-.778.778-.848 2.121 0 2.97.778.778 2.122.848 2.97 0 .778-.778.849-2.122 0-2.97-.919-.778-2.192-.778-2.97 0zm-4.737-4.738c-.778.778-.849 2.122 0 2.97.848.849 2.121.849 2.97 0 .777-.778.848-2.121 0-2.97-.849-.848-2.193-.777-2.97 0zm-4.667-4.667c-.778.778-.849 2.122 0 2.97.848.849 2.121.849 2.97 0 .777-.778.848-2.121 0-2.97-.849-.848-2.192-.777-2.97 0zm-4.738-4.737c-.778.778-.848 2.121 0 2.97.778.778 2.121.848 2.97 0 .778-.778.849-2.122 0-2.97-.849-.707-2.192-.778-2.97 0z"/><path d="M90.439 97.864a2.1 2.1 0 102.97-2.97 2.1 2.1 0 00-2.97 2.97z"/><path fill-rule="evenodd" clip-rule="evenodd" d="M88.813 102.318c.778-.777.848-2.121 0-2.97-.778-.777-2.122-.848-2.97 0-.778.778-.849 2.122 0 2.97.92.778 2.192.778 2.97 0zm.283 9.193c.777-.778.848-2.122 0-2.97-.778-.778-2.122-.849-2.97 0-.778.778-.849 2.121 0 2.97.848.848 2.192.778 2.97 0zm-4.738-4.738c.778-.778.848-2.121 0-2.97-.778-.778-2.121-.848-2.97 0-.778.778-.849 2.122 0 2.97.849.849 2.192.778 2.97 0zm.282 9.193c.779-.778.85-2.122 0-2.97-.777-.778-2.12-.849-2.97 0-.777.777-.848 2.121 0 2.97.85.848 2.122.848 2.97 0zm-2.686 6.222c-.778.778-.849 2.121 0 2.97.778.778 2.121.848 2.97 0 .777-.778.848-2.121 0-2.97-.92-.778-2.193-.778-2.97 0zm-4.667-4.667c-.778.778-.849 2.122 0 2.97.778.778 2.121.849 2.97 0 .777-.778.848-2.121 0-2.97-.92-.778-2.192-.778-2.97 0zM120.915 98.5c.778-.778.849-2.121 0-2.97-.777-.778-2.121-.848-2.97 0-.777.778-.848 2.121 0 2.97.849.849 2.122.849 2.97 0zm-4.737-4.738c.777-.777.848-2.12 0-2.97-.778-.777-2.122-.848-2.97 0-.778.778-.849 2.122 0 2.97.848.849 2.121.849 2.97 0zm-4.667-4.666c.778-.778.848-2.122 0-2.97-.778-.778-2.122-.849-2.97 0-.778.777-.849 2.121 0 2.97.848.848 2.121.848 2.97 0zm-4.526 4.524c.778-.777.849-2.12 0-2.969-.777-.778-2.121-.849-2.97 0-.777.778-.848 2.121 0 2.97.92.778 2.193.778 2.97 0zm-4.454 4.456c.777-.778.848-2.122 0-2.97-.778-.778-2.122-.849-2.97 0-.778.778-.849 2.121 0 2.97.848.848 2.192.778 2.97 0zm-4.738-4.738c.778-.778.848-2.121 0-2.97-.778-.778-2.121-.848-2.97 0-.778.778-.848 2.122 0 2.97.849.849 2.192.778 2.97 0zm29.345 2.475c-.778.778-.849 2.121 0 2.97.778.778 2.121.848 2.97 0 .778-.778.848-2.121 0-2.97-.849-.849-2.192-.778-2.97 0zm-1.556 7.354c.778-.778.849-2.121 0-2.97-.778-.778-2.121-.848-2.97 0-.777.778-.848 2.121 0 2.97.849.848 2.122.848 2.97 0zm-12.94 22.981c.99-.99.99-2.546 0-3.536a2.475 2.475 0 00-3.535 0c-.99.99-.99 2.546 0 3.536 1.06.919 2.616.919 3.535 0zm23.759 32.668c.99-.99.919-2.475-.071-3.465-.99-.99-2.545-.99-3.465-.07-.99.99-.99 2.545 0 3.535 1.061.919 2.617.919 3.536 0zm-8.132-8.131c-.99.989-.919 2.474.071 3.464.99.99 2.546.99 3.465.071.99-.99.99-2.546 0-3.535a2.476 2.476 0 00-3.536 0zm-4.737-4.738c-.99.99-.99 2.545 0 3.535.99.99 2.545.99 3.535 0 .99-.99.99-2.545 0-3.535a2.475 2.475 0 00-3.535 0zm-4.667-4.667c-.99.99-.92 2.475.07 3.465.99.99 2.546.99 3.465.071.99-.99.99-2.546 0-3.536-1.06-1.061-2.545-.99-3.535 0zm-4.738-4.738c-.99.99-.919 2.475.071 3.465.99.99 2.545.99 3.465.071.99-.99.99-2.546 0-3.536a2.476 2.476 0 00-3.536 0zm-4.738-4.737c-.989.99-.919 2.475.071 3.465.99.99 2.546.99 3.465.07.99-.99.99-2.545 0-3.535a2.476 2.476 0 00-3.536 0zm-4.666-4.667c-.99.99-.92 2.475.07 3.465.99.99 2.546.99 3.465.07.99-.99.99-2.545 0-3.535a2.475 2.475 0 00-3.535 0zm-4.738-4.738c-.99.99-.99 2.546 0 3.536.99.99 2.546.99 3.536 0a2.478 2.478 0 000-3.536 2.476 2.476 0 00-3.536 0zm36.557-8.273c-.99.99-.99 2.546 0 3.536.99.99 2.546.99 3.536 0 .99-.99.99-2.546 0-3.536-1.061-.919-2.616-.919-3.536 0zm-4.737-4.738c-.99.99-.99 2.546 0 3.536.99.99 2.545.99 3.535 0 .99-.99.99-2.546 0-3.536-1.06-.919-2.616-.919-3.535 0zm-4.667-4.666c-.99.99-.99 2.545 0 3.535.99.99 2.545.99 3.535 0 .99-.99.99-2.545 0-3.535-1.06-.92-2.616-.92-3.535 0zm23.688 32.739c-.99.99-.99 2.545 0 3.535.99.99 2.546.99 3.535 0 .99-.99.99-2.545 0-3.535a2.475 2.475 0 00-3.535 0zm-4.667-4.667c-.99.99-.99 2.545 0 3.535.99.99 2.546.99 3.536 0 .99-.99.99-2.545 0-3.535a2.476 2.476 0 00-3.536 0zm-4.738-4.738c-.99.99-.99 2.546 0 3.536.99.99 2.546.99 3.536 0 .99-.99.99-2.546 0-3.536a2.476 2.476 0 00-3.536 0zm-4.666-4.667c-.99.99-.99 2.546 0 3.536.989.99 2.545.99 3.535 0 .99-.99.99-2.546 0-3.536-1.061-1.06-2.546-.99-3.535 0zm-4.738-4.737a2.475 2.475 0 000 3.535c.99.99 2.545.99 3.535 0 .99-.99.99-2.546 0-3.535a2.475 2.475 0 00-3.535 0zm-4.738-4.738c-.99.99-.99 2.546 0 3.536.99.989 2.546.989 3.536 0 .99-.99.99-2.546 0-3.536a2.476 2.476 0 00-3.536 0zm-4.667-4.667c-.99.99-.99 2.546 0 3.536.99.989 2.546.989 3.536 0 .99-.99.99-2.546 0-3.536a2.476 2.476 0 00-3.536 0zm17.819 26.729c.99-.99.99-2.546 0-3.536a2.475 2.475 0 00-3.535 0c-.99.99-.99 2.546 0 3.536 1.061.919 2.616.919 3.535 0zm-4.666-4.667c.99-.99.99-2.546 0-3.536a2.476 2.476 0 00-3.536 0c-.99.99-.99 2.546 0 3.536 1.061.919 2.616.919 3.536 0zm-4.738-4.738c.99-.99.99-2.545 0-3.535a2.476 2.476 0 00-3.536 0c-.99.99-.99 2.545 0 3.535 1.061.919 2.617.919 3.536 0zm-32.668-23.759c.99-.99.99-2.545 0-3.535a2.476 2.476 0 00-3.536 0c-.99.99-.99 2.545 0 3.535.99.99 2.546.99 3.536 0zm-4.526 4.526c.99-.99.99-2.546 0-3.536a2.476 2.476 0 00-3.535 0c-.99.99-.99 2.546 0 3.536 1.06.919 2.616.919 3.535 0zm1.485 10.394c-.99.99-.99 2.546 0 3.536.99.99 2.546.99 3.536 0 .99-.99.99-2.546 0-3.536a2.476 2.476 0 00-3.536 0zm-1.273-1.272c.99-.99.99-2.546 0-3.536a2.476 2.476 0 00-3.535 0c-.99.99-.92 2.475.07 3.465.99.99 2.546.99 3.465.071zm-3.182 5.727c-.99.99-.99 2.546 0 3.536.99.99 2.546.99 3.536 0 .99-.99.99-2.546 0-3.536-1.06-.919-2.617-.919-3.536 0zm-4.737-4.737a2.475 2.475 0 000 3.535c.99.99 2.545.99 3.535 0 .99-.99.99-2.546 0-3.535-1.06-.92-2.616-.92-3.535 0zm27.082-17.607a2.475 2.475 0 000 3.535c.99.99 2.545.99 3.535 0 .99-.99.99-2.546 0-3.535a2.475 2.475 0 00-3.535 0zm-4.738-4.738c-.99.99-.99 2.546 0 3.535.99.99 2.546.99 3.536 0 .99-.99.99-2.545 0-3.535a2.476 2.476 0 00-3.536 0zm-.99 7.919c.99-.989.99-2.545 0-3.535a2.475 2.475 0 00-3.535 0c-.99.99-.919 2.475.07 3.465.99.99 2.546.99 3.465.07zm10.395 1.485c-.99.99-.99 2.546 0 3.536.99.99 2.545.99 3.535 0 .99-.99.99-2.546 0-3.536a2.475 2.475 0 00-3.535 0zm21.92-94.47c-.212.213-.212.496 0 .708.212.212.495.212.707 0 .212-.212.212-.495 0-.707-.071-.212-.495-.212-.707 0zm-3.677 5.234c.212-.213.212-.495 0-.708-.212-.212-.495-.212-.707 0-.212.213-.212.495 0 .708.141.141.495.212.707 0zm14.284 50.063c-.212.212-.212.495 0 .707.212.212.495.212.707 0 .212-.212.212-.495 0-.707-.212-.212-.495-.212-.707 0zm-4.667-4.667c-.212.212-.212.495 0 .707.212.212.495.212.707 0 .212-.212.212-.495 0-.707-.212-.212-.495-.212-.707 0zm-4.738-4.738c-.212.212-.212.495 0 .707.212.212.495.212.707 0 .212-.212.212-.495 0-.707-.212-.212-.495-.212-.707 0zM122.895 37.83c.212-.212.212-.495 0-.707-.212-.212-.495-.212-.707 0-.212.212-.212.495 0 .707.212.212.495.212.707 0zm18.385 27.294c-.212.213-.212.496 0 .708.212.212.495.212.707 0 .212-.212.212-.495 0-.707-.212-.213-.566-.142-.707 0zm-4.738-4.737c-.212.212-.212.495 0 .707.213.212.495.212.707 0 .213-.212.213-.495 0-.707-.212-.212-.565-.141-.707 0zm-4.737-4.737c-.212.212-.212.494 0 .706.212.213.495.213.707 0 .212-.212.212-.495 0-.707-.142-.141-.566-.141-.707 0zM118.44 42.285c.213-.212.213-.495 0-.707-.212-.212-.495-.212-.707 0-.212.212-.212.495 0 .707.142.283.495.212.707 0zm9.617 18.668c.212-.213.212-.495 0-.708-.212-.212-.495-.212-.707 0-.212.213-.212.495 0 .708.141.141.495.212.707 0zm-4.738-4.738c.213-.212.213-.495 0-.707-.212-.212-.494-.212-.707 0-.212.212-.212.495 0 .707.213.212.495.212.707 0zm-4.666-4.667c.212-.212.212-.495 0-.707-.213-.212-.495-.212-.708 0-.212.212-.212.495 0 .707.142.142.495.212.708 0zm-4.738-4.738c.212-.212.212-.494 0-.707-.212-.212-.495-.212-.707 0-.212.213-.212.495 0 .707.212.213.495.213.707 0zm4.95 13.153c-.212-.212-.495-.212-.707 0-.213.212-.213.495 0 .707.212.212.495.212.707 0 .212-.212.212-.495 0-.707zm-5.445-4.738c-.212.212-.212.495 0 .707.212.212.495.212.707 0 .212-.212.212-.495 0-.707-.141-.141-.495-.212-.707 0zm-4.667-4.667c-.212.212-.212.495 0 .707.212.212.495.212.707 0 .212-.212.212-.495 0-.707-.212-.212-.495-.212-.707 0zm-3.748 5.162c.213-.212.213-.495 0-.707-.212-.212-.495-.212-.707 0-.212.212-.212.495 0 .707.142.283.495.212.707 0zm35.78-35.78c.212-.212.212-.495 0-.707-.212-.212-.495-.212-.707 0-.212.212-.212.495 0 .707.212.213.495.213.707 0zm-5.162 4.455c.212.212.495.212.707 0 .212-.212.212-.495 0-.707-.212-.212-.495-.212-.707 0-.212.212-.212.495 0 .707zm-3.818 4.525c.212-.212.212-.494 0-.707-.212-.212-.495-.212-.707 0-.213.213-.213.495 0 .708.212.212.565.141.707 0zm23.759 32.669c.212-.212.212-.495 0-.707-.213-.212-.495-.212-.708 0-.212.212-.212.495 0 .707.213.212.495.212.708 0zm-28.921-28.213c.212.212.495.212.707 0 .212-.213.212-.495 0-.708-.212-.212-.495-.212-.707 0-.212.212-.212.495 0 .708zm52.255 42.638c.212-.212.212-.495 0-.707-.212-.212-.495-.212-.707 0-.212.212-.212.495 0 .707.141.142.566.142.707 0zm-4.738-4.738c.213-.212.213-.495 0-.707-.212-.212-.495-.212-.707 0-.212.212-.212.495 0 .707.212.213.566.142.707 0zm4.95 13.86c.212-.212.212-.495 0-.707-.212-.213-.495-.213-.707 0-.212.212-.212.495 0 .707.212.212.495.212.707 0zm-4.667-4.667c.212-.212.212-.495 0-.707-.212-.213-.495-.213-.707 0-.212.212-.212.495 0 .707.142.141.495.212.707 0zm-4.737-4.738c.212-.212.212-.495 0-.707-.212-.212-.495-.212-.707 0-.213.212-.213.495 0 .707.212.212.495.212.707 0zm-4.667-4.667c.212-.212.212-.495 0-.707-.212-.212-.495-.212-.707 0-.212.212-.212.495 0 .707.141.142.495.213.707 0zm-4.738-4.737c.212-.212.212-.495 0-.707-.212-.213-.495-.213-.707 0-.212.212-.212.495 0 .707.212.212.495.212.707 0zM150.26 20.506a.895.895 0 000-1.273.897.897 0 00-1.273 0 .897.897 0 000 1.273.896.896 0 001.273 0zm-4.737-4.738a.897.897 0 000-1.272.896.896 0 00-1.273 0 .895.895 0 000 1.272.897.897 0 001.273 0z"/><path d="M136.047 52.255a.9.9 0 101.273-1.273.9.9 0 00-1.273 1.273z"/><path fill-rule="evenodd" clip-rule="evenodd" d="M131.31 46.245a.895.895 0 000 1.273.897.897 0 001.273 0 .897.897 0 000-1.273.896.896 0 00-1.273 0zm-4.667-4.667a.895.895 0 000 1.273.896.896 0 001.273 0 .897.897 0 000-1.273.897.897 0 00-1.273 0zm.212 9.122a.895.895 0 000 1.272.896.896 0 001.273 0 .897.897 0 000-1.272.897.897 0 00-1.273 0zm-4.667-4.667a.897.897 0 000 1.272.896.896 0 001.273 0 .897.897 0 000-1.272.897.897 0 00-1.273 0zm22.345-21.073a.895.895 0 001.272 0 .895.895 0 000-1.272.895.895 0 00-1.272 0 .895.895 0 000 1.273zm-3.182 4.456a.897.897 0 000-1.273.896.896 0 00-1.273 0 .895.895 0 000 1.273.897.897 0 001.273 0zm18.95 28.001a.895.895 0 000-1.273.897.897 0 00-1.273 0 .897.897 0 000 1.273.896.896 0 001.273 0zm-4.667-4.667a.896.896 0 000-1.273.897.897 0 00-1.273 0 .897.897 0 000 1.273.897.897 0 001.273 0z"/><path d="M149.624 48.013a.9.9 0 101.273-1.274.9.9 0 00-1.273 1.274z"/><path fill-rule="evenodd" clip-rule="evenodd" d="M135.552 33.941a.897.897 0 001.273 0 .895.895 0 000-1.273.896.896 0 00-1.273 0 .897.897 0 000 1.273zm14.355 21.991a.895.895 0 000 1.273.895.895 0 001.272 0 .895.895 0 000-1.273.895.895 0 00-1.272 0z"/><path d="M145.169 52.467a.9.9 0 101.273-1.273.9.9 0 00-1.273 1.273zm-4.667-4.667a.9.9 0 101.273-1.273.9.9 0 00-1.273 1.273z"/><path fill-rule="evenodd" clip-rule="evenodd" d="M132.37 38.396a.895.895 0 000-1.273.895.895 0 00-1.272 0 .895.895 0 000 1.273.895.895 0 001.272 0zm46.599 28.638a.897.897 0 000-1.273.897.897 0 00-1.273 0 .895.895 0 000 1.273.896.896 0 001.273 0zm-4.738-4.738a.895.895 0 000-1.273.896.896 0 00-1.273 0 .897.897 0 000 1.273.897.897 0 001.273 0zm-5.798 3.253a.895.895 0 000 1.273.897.897 0 001.273 0 .897.897 0 000-1.273.896.896 0 00-1.273 0z"/><path d="M163.766 62.155a.9.9 0 101.273-1.273.9.9 0 00-1.273 1.273z"/><path fill-rule="evenodd" clip-rule="evenodd" d="M150.048 11.243a.895.895 0 000-1.273.897.897 0 00-1.273 0 .897.897 0 000 1.273.897.897 0 001.273 0zm3.324 14.213a1.323 1.323 0 001.838 0 1.324 1.324 0 000-1.839 1.323 1.323 0 00-1.838 0 1.324 1.324 0 000 1.839zm16.192 23.264a1.324 1.324 0 000-1.839 1.323 1.323 0 00-1.838 0 1.324 1.324 0 000 1.839 1.323 1.323 0 001.838 0zm-6.293 2.616a1.324 1.324 0 000 1.839 1.323 1.323 0 001.838 0 1.324 1.324 0 000-1.839 1.323 1.323 0 00-1.838 0zM150.755 29.91a1.324 1.324 0 000-1.838 1.323 1.323 0 00-1.838 0 1.324 1.324 0 000 1.839 1.323 1.323 0 001.838 0zm7.849 16.76a1.324 1.324 0 000 1.838 1.324 1.324 0 001.839 0 1.324 1.324 0 000-1.839 1.324 1.324 0 00-1.839 0zm-4.738-4.739a1.325 1.325 0 000 1.839 1.324 1.324 0 001.839 0 1.324 1.324 0 000-1.839 1.325 1.325 0 00-1.839 0zm-4.666-4.666a1.324 1.324 0 000 1.838 1.323 1.323 0 001.838 0 1.324 1.324 0 000-1.838c-.566-.566-1.343-.495-1.838 0zm-4.738-4.738a1.324 1.324 0 000 1.838 1.323 1.323 0 001.838 0 1.324 1.324 0 000-1.838 1.323 1.323 0 00-1.838 0zm.212 9.263a1.324 1.324 0 000 1.839 1.324 1.324 0 001.839 0 1.324 1.324 0 000-1.839c-.566-.566-1.273-.566-1.839 0zm-4.738-4.738a1.324 1.324 0 000 1.839 1.324 1.324 0 001.839 0 1.324 1.324 0 000-1.839c-.495-.495-1.273-.565-1.839 0zm-4.454 4.455a1.324 1.324 0 000 1.839 1.323 1.323 0 001.838 0 1.324 1.324 0 000-1.839 1.323 1.323 0 00-1.838 0zm43.487 16.617a1.324 1.324 0 000-1.838 1.324 1.324 0 00-1.839 0 1.324 1.324 0 000 1.838c.566.566 1.344.495 1.839 0zm-4.667-4.667a1.324 1.324 0 000-1.838 1.324 1.324 0 00-1.839 0 1.324 1.324 0 000 1.838 1.324 1.324 0 001.839 0z"/><path d="M168.009 57.912a1.3 1.3 0 101.838-1.837 1.3 1.3 0 00-1.838 1.837z"/><path fill-rule="evenodd" clip-rule="evenodd" d="M157.685 9.97a1.324 1.324 0 000 1.839 1.323 1.323 0 001.838 0 1.324 1.324 0 000-1.839c-.565-.565-1.343-.495-1.838 0zm.212 9.122a1.324 1.324 0 000 1.838 1.323 1.323 0 001.838 0 1.324 1.324 0 000-1.838 1.323 1.323 0 00-1.838 0zm-4.667-4.667a1.324 1.324 0 000 1.838 1.324 1.324 0 001.839 0 1.324 1.324 0 000-1.838c-.566-.566-1.344-.495-1.839 0zm21.072 30.123c.636-.637.636-1.768 0-2.404-.637-.637-1.768-.637-2.404 0-.637.636-.637 1.767 0 2.404.778.636 1.767.636 2.404 0zm-4.667-7.071c-.636-.637-1.768-.637-2.404 0-.637.636-.637 1.768 0 2.404.636.636 1.768.636 2.404 0 .636-.778.636-1.768 0-2.404zm-9.475-7.071c.636-.637.636-1.768 0-2.405-.637-.636-1.768-.636-2.404 0-.637.637-.637 1.768 0 2.405.777.636 1.767.636 2.404 0zm2.616 11.525c-.636.637-.636 1.768 0 2.405.636.636 1.768.636 2.404 0 .637-.637.637-1.768 0-2.405a1.685 1.685 0 00-2.404 0zm-4.738-4.737c-.636.636-.636 1.768 0 2.404.637.636 1.768.636 2.405 0 .636-.636.636-1.768 0-2.404-.637-.637-1.768-.637-2.405 0zm-4.666-4.667c-.637.636-.637 1.768 0 2.404.636.637 1.767.637 2.404 0 .636-.636.636-1.768 0-2.404a1.685 1.685 0 00-2.404 0zm25.667 16.758c.637-.636.637-1.767 0-2.404-.636-.636-1.767-.636-2.404 0a1.686 1.686 0 000 2.404c.707.566 1.768.637 2.404 0zm-10.111-36.981c.636-.637.636-1.768 0-2.405-.637-.636-1.768-.636-2.404 0-.637.637-.637 1.768 0 2.405.707.565 1.767.636 2.404 0zm.212 9.121c.636-.636.636-1.767 0-2.404-.636-.636-1.768-.636-2.404 0-.637.637-.637 1.768 0 2.404a1.685 1.685 0 002.404 0zm-4.667-4.666c.636-.637.636-1.768 0-2.405-.636-.636-1.768-.636-2.404 0-.636.637-.637 1.768 0 2.405.636.636 1.768.636 2.404 0zm.212 9.121c.637-.636.637-1.768 0-2.404-.636-.636-1.768-.636-2.404 0-.636.636-.636 1.768 0 2.404.707.707 1.697.707 2.404 0zm-2.404 6.647c-.778.778-.848 2.121 0 2.97.778.778 2.121.848 2.97 0 .778-.778.848-2.122 0-2.97-.849-.849-2.121-.849-2.97 0zm16.122-19.799c.778-.778.849-2.121 0-2.97-.778-.778-2.121-.848-2.97 0-.778.778-.848 2.121 0 2.97.849.848 2.122.848 2.97 0zm.212 9.263c.778-.778.849-2.121 0-2.97-.778-.778-2.121-.848-2.97 0-.777.778-.848 2.121 0 2.97.92.778 2.192.778 2.97 0zm-4.737-4.738c.777-.777.848-2.12 0-2.97-.778-.777-2.122-.848-2.97 0-.778.779-.849 2.122 0 2.97.919.778 2.192.778 2.97 0zm.282 9.193c.778-.778.849-2.122 0-2.97-.777-.778-2.121-.848-2.969 0-.778.778-.849 2.121 0 2.97.848.848 2.192.778 2.969 0zm2.051 10.96c-.778.778-.848 2.121 0 2.97.778.778 2.121.848 2.97 0 .778-.778.848-2.121 0-2.97-.919-.778-2.192-.778-2.97 0zm-4.738-4.738c-.777.778-.848 2.122 0 2.97.778.778 2.122.849 2.97 0 .778-.778.849-2.121 0-2.97-.919-.777-2.192-.777-2.97 0zm-4.666-4.667c-.778.778-.849 2.122 0 2.97.777.778 2.121.849 2.969 0 .778-.778.849-2.121 0-2.97-.919-.777-2.192-.777-2.969 0zm16.334-19.445c.99-.99.99-2.546 0-3.536a2.476 2.476 0 00-3.536 0c-.919.92-.99 2.546 0 3.536.99.99 2.546.99 3.536 0zm.283 9.192c.99-.99.99-2.545 0-3.535a2.476 2.476 0 00-3.536 0c-.99.99-.99 2.545 0 3.535.99.99 2.546.99 3.536 0zm-7.779 10.182c-.99.99-.99 2.546 0 3.536.99.99 2.546.99 3.536 0 .99-.99.99-2.545 0-3.535a2.476 2.476 0 00-3.536 0z"/></g></svg>