<svg width="33" height="32" fill="none" xmlns="http://www.w3.org/2000/svg"><path d="M15.868 29.333H1.2a.665.665 0 01-.648-.828l.72-2.893a4.27 4.27 0 012.812-3.03l5.357-1.787c.795-.331 1.291-1.53 1.342-3.295-.614-.557-1.93-1.917-1.93-3.313 0-.488-.164-.588-.164-.588-.204-.055-.31-.182-.389-.378-.067-.166-.647-1.656-.647-2.661a.64.64 0 01.02-.159 1.55 1.55 0 01.594-.904l.026-.533c.034-.659.08-1.537.08-2.63C8.374 3.831 11.434 0 15.201 0c3.41 0 5.06 1.815 5.334 2.988.833.461 1.56 1.223 1.56 3.345v3.17c.33.228.534.593.62.846.022.068.033.14.033.211 0 .72-.29 1.673-.532 2.347a.673.673 0 01-.855.401.67.67 0 01-.401-.855c.26-.717.42-1.348.45-1.762a.335.335 0 00-.066-.086c-.368 0-.584-.276-.584-.644V6.333c0-1.741-.559-2.021-.892-2.189-.201-.101-.627-.315-.627-.824-.024-.403-1.146-1.987-4.04-1.987-3.173 0-5.493 3.288-5.493 5a46.79 46.79 0 01-.084 2.7c-.019.386-.036.696-.036.927a.667.667 0 01-.599.663c.02.548.295 1.405.467 1.884.36.252.732.77.732 1.68 0 .752.877 1.824 1.693 2.501.152.125.24.315.24.512 0 2.53-.785 4.25-2.212 4.843l-5.404 1.804a2.94 2.94 0 00-1.939 2.089L2.054 28h13.814a.666.666 0 110 1.333z" fill="#7163AA"/><path d="M28.82 32c-.994 0-1.854-.659-2.043-1.568l-.784-4.435c-.063-.294-.404-.53-.792-.53s-.73.237-.796.552l-.776 4.393c-.193.93-1.053 1.588-2.047 1.588-1.062 0-1.951-.741-2.067-1.725l-.305-2.552c-.025-.21-.323-1.638-.889-4.244a19.86 19.86 0 01-.453-4.219 3.264 3.264 0 013.26-3.26 3.34 3.34 0 011.716.475 4.577 4.577 0 004.714 0A3.335 3.335 0 0129.274 16a3.265 3.265 0 013.26 3.26c0 1.417-.151 2.836-.454 4.22-.788 3.62-.879 4.161-.89 4.243l-.303 2.552C30.772 31.259 29.882 32 28.82 32zm-3.62-7.867c1.021 0 1.905.679 2.1 1.612l.784 4.435c.057.268.375.487.735.487.38 0 .706-.242.745-.548l.303-2.552c.012-.1.047-.406.91-4.37a18.46 18.46 0 00.423-3.936 1.929 1.929 0 00-1.927-1.928 1.99 1.99 0 00-1.027.286 5.91 5.91 0 01-6.087 0 2 2 0 00-1.03-.286A1.93 1.93 0 0019.2 19.26c0 1.32.142 2.644.423 3.935.607 2.8.88 4.105.91 4.37l.305 2.552c.037.308.364.55.744.55.36 0 .677-.219.738-.508l.776-4.394c.199-.954 1.083-1.632 2.104-1.632z" fill="#7163AA"/></svg>