<svg width="33" height="32" fill="none" xmlns="http://www.w3.org/2000/svg"><g filter="url(#filter0_d_2_377)" fill="#7163AA"><path d="M5.201 29.333h-4a.667.667 0 01-.667-.666v-12A.667.667 0 011.201 16c4.535 0 6.93 1.528 7.03 1.593a.667.667 0 01.282.723L5.846 28.831a.664.664 0 01-.645.502zM1.868 28h2.814l2.411-9.507c-.75-.36-2.517-1.048-5.225-1.148V28z"/><path d="M17.868 32c-3.147 0-9.23-2.645-12.578-4.224a.667.667 0 11.568-1.205c2.614 1.232 9.015 4.096 12.01 4.096 3.244 0 10.887-3.81 13.085-4.942-.346-.453-1.063-1.058-2.418-1.058-1.231 0-2.791.492-4.3.969-1.604.505-3.264 1.03-4.7 1.03-2.753 0-6.409-1.317-6.562-1.373a.667.667 0 11.456-1.253c.035.013 3.59 1.293 6.106 1.293 1.23 0 2.79-.492 4.3-.969 1.604-.505 3.264-1.03 4.7-1.03 3.111 0 3.932 2.355 3.966 2.455a.67.67 0 01-.319.8C31.768 26.808 21.988 32 17.868 32z"/><path d="M22.535 26.12a.666.666 0 01-.667-.667v-.666a1.973 1.973 0 00-1.525-1.936L7.472 19.743a.668.668 0 01.313-1.298l12.866 3.107a3.303 3.303 0 012.55 3.235v.666a.667.667 0 01-.666.667zM26.152 16c-.993 0-1.853-.66-2.043-1.568l-.784-4.435c-.062-.293-.404-.53-.791-.53-.389 0-.73.237-.797.55l-.776 4.394C20.77 15.34 19.91 16 18.916 16c-1.063 0-1.952-.741-2.068-1.725l-.304-2.552c-.019-.144-.187-.999-.89-4.244a19.86 19.86 0 01-.453-4.218A3.264 3.264 0 0118.461 0a3.34 3.34 0 011.716.475 4.581 4.581 0 004.715 0A3.336 3.336 0 0126.608 0a3.264 3.264 0 013.26 3.261c0 1.416-.152 2.835-.455 4.22-.787 3.618-.878 4.16-.89 4.242l-.303 2.553c-.115.983-1.004 1.724-2.067 1.724zm-3.618-7.867c1.02 0 1.905.678 2.1 1.611l.784 4.435c.057.269.374.488.734.488.38 0 .707-.242.745-.55l.303-2.552c.03-.269.337-1.738.91-4.368.282-1.293.424-2.612.424-3.936a1.93 1.93 0 00-1.927-1.928c-.363 0-.719.099-1.028.286a5.91 5.91 0 01-6.087 0 2.012 2.012 0 00-1.032-.286 1.929 1.929 0 00-1.926 1.928c0 1.32.14 2.643.422 3.935.607 2.797.88 4.104.91 4.37l.305 2.551c.037.308.364.55.744.55.36 0 .677-.219.738-.508l.776-4.394c.2-.954 1.083-1.632 2.105-1.632z"/></g><defs><filter id="filter0_d_2_377" x="-3.466" y="0" width="40.001" height="40" filterUnits="userSpaceOnUse" color-interpolation-filters="sRGB"><feFlood flood-opacity="0" result="BackgroundImageFix"/><feColorMatrix in="SourceAlpha" values="0 0 0 0 0 0 0 0 0 0 0 0 0 0 0 0 0 0 127 0" result="hardAlpha"/><feOffset dy="4"/><feGaussianBlur stdDeviation="2"/><feComposite in2="hardAlpha" operator="out"/><feColorMatrix values="0 0 0 0 0 0 0 0 0 0 0 0 0 0 0 0 0 0 0.25 0"/><feBlend in2="BackgroundImageFix" result="effect1_dropShadow_2_377"/><feBlend in="SourceGraphic" in2="effect1_dropShadow_2_377" result="shape"/></filter></defs></svg>