<svg width="33" height="29" fill="none" xmlns="http://www.w3.org/2000/svg"><path d="M27.868 28.333h-24A3.337 3.337 0 01.534 25V3.667a.667.667 0 011.334 0V25c0 1.103.897 2 2 2h24a.666.666 0 00.667-.667V21a.667.667 0 111.333 0v5.333c0 1.103-.897 2-2 2z" fill="#7163AA"/><path d="M29.201 13.667a.667.667 0 01-.666-.667V7.667A.667.667 0 0027.867 7h-24A3.337 3.337 0 01.534 3.667 3.337 3.337 0 013.868.333h20c1.103 0 2 .898 2 2v3.334h2c1.103 0 2 .897 2 2V13a.667.667 0 01-.667.667zm-25.333-12c-1.103 0-2 .897-2 2 0 1.102.897 2 2 2h20.666V2.333a.667.667 0 00-.666-.666h-20z" fill="#7163AA"/><path d="M31.868 21.667H25.2A4.672 4.672 0 0120.535 17a4.672 4.672 0 014.666-4.667h6.667a.667.667 0 01.667.667v8a.667.667 0 01-.667.667zm-6.667-8A3.337 3.337 0 0021.868 17a3.337 3.337 0 003.333 3.333h6v-6.666h-6z" fill="#7163AA"/><path d="M25.201 19c-1.102 0-2-.897-2-2s.898-2 2-2c1.103 0 2 .897 2 2s-.897 2-2 2zm0-2.667a.668.668 0 10.003 1.337.668.668 0 00-.003-1.337z" fill="#7163AA"/></svg>