<svg width="213" height="61" fill="none" xmlns="http://www.w3.org/2000/svg"><g clip-path="url(#clip0_2_358)" fill-rule="evenodd" clip-rule="evenodd"><path d="M.142 2.89c0-.468.472-.75 1.37-.843l8.926-.797c.047-.047.19-.047.425-.047.284 0 .473.047.614.047h.19c.14 0 .283 0 .424.047.142 0 .284.047.378.094.142.046.189.093.189.14l.283 5.203c0 .141 0 .282-.047.422-.047.235-.189.328-.378.328l-5.053.188c0 .047-.048.187-.095.516-.047.328-.094.562-.094.703l.944 24.375c-.047.328-.283.562-.755.75a7.715 7.715 0 01-1.654.422c-.614.093-1.228.187-1.842.187-.614 0-1.086.047-1.417.047-.377 0-.708-.047-.991-.14-.284-.094-.425-.282-.425-.563L.142 3.5v-.61z" fill="#DE6489"/><path d="M8.218 46.438c0-.422.047-1.172.095-2.297.047-1.125.189-2.25.33-3.47.19-1.171.425-2.25.803-3.14.33-.89.803-1.36 1.417-1.36.567 0 1.087.048 1.606.188.472.141 1.04.282 1.653.422.33.14.473.282.52.422.047.14.047.281.094.469-.047 1.172-.283 2.344-.614 3.422-.33 1.078-.52 2.25-.614 3.422-.047.75.047 1.5.19 2.343.14.797.424 1.594.85 2.297a5.577 5.577 0 001.7 1.782c.708.468 1.605.703 2.645.75.85.046 1.558-.282 2.125-.985a7.889 7.889 0 001.37-2.578 17.92 17.92 0 00.755-3.469c.142-1.265.284-2.484.331-3.656.047-1.172.095-2.156.142-3 0-.844.047-1.406.094-1.64 0-.188 0-.563-.047-1.032 0-.469-.047-.797-.047-.984-.047-.188-.19-.282-.33-.375-.143-.047-.284-.14-.426-.188-3.92-.14-6.801-1.078-8.596-2.765-1.795-1.688-2.598-4.22-2.409-7.547 0-.328.047-.985.095-1.969a34.5 34.5 0 01.283-2.953c.142-.985.283-1.875.52-2.625.236-.75.519-1.125.944-1.078.189 0 .52 0 .898.047.377.046.802.093 1.18.187a6.41 6.41 0 011.134.375c.33.14.614.328.85.563.047.047.095.093.142.187l.094.188-.33 9.422c0 .468.141.937.377 1.312.236.422.567.75.992 1.031.425.282.85.563 1.37.75.52.188.992.328 1.511.328.898.047 1.606-.14 2.126-.609.52-.469.897-1.078 1.133-1.781.236-.703.425-1.453.473-2.25.047-.797.141-1.453.141-1.969l.284-6.234.189-.188 4.44.14c.188 0 .33.095.33.329 0 .187 0 .328-.047.422l-1.795 25.172c-.095 1.687-.378 3.375-.803 5.109-.425 1.734-1.086 3.328-1.984 4.734a10.164 10.164 0 01-3.637 3.422c-1.51.89-3.447 1.266-5.809 1.219-1.7-.047-3.117-.375-4.25-.984-1.134-.61-2.079-1.453-2.74-2.438-.709-.984-1.181-2.11-1.464-3.328-.237-1.078-.331-2.297-.284-3.563z" fill="#69A4D4"/><path d="M49.31 33.453c0-.562.047-1.078.094-1.64.047-.516.094-1.079.094-1.688v-.328a52.243 52.243 0 00-4.203-.703 34.547 34.547 0 00-4.393-.282h-1.18l-.284.188-.708 5.39c-.047.47-.284.891-.614 1.172-.33.282-.756.422-1.276.422s-1.086-.093-1.7-.234a2.53 2.53 0 01-1.511-.984v-1.922c0-1.125.047-2.203.141-3.282a25.36 25.36 0 00.048-3.28c0-.048.189-.282.567-.61.377-.328.85-.75 1.322-1.172.472-.422.992-.844 1.464-1.266.472-.422.803-.75.992-.984a21.055 21.055 0 002.598-5.39 27.98 27.98 0 001.18-5.86h.993c.755.047 1.794.14 3.022.234 1.228.094 2.456.188 3.637.282 1.18.093 2.173.14 3.023.187.85.047 1.275.094 1.275.094l.378.281v.469c0 2.297-.047 4.594-.189 6.89a111.847 111.847 0 00-.189 6.891c0 .047.047.14.095.188a.8.8 0 01.283.28c.094.142.189.329.33.563.095.235.142.61.142 1.032v.28c0 .188 0 .423.047.61 0 .235.048.469.048.703v2.063c0 .469 0 .89-.048 1.312 0 .422-.047.891-.094 1.36a92.45 92.45 0 00-.142 1.547c-.094.422-.283.703-.614.843-.283.141-.614.188-1.039.188a4.249 4.249 0 01-2.172-.61 3.116 3.116 0 01-1.417-1.78v-1.454zm-6.99-8.156s.141.047.472.094c.33.047.708.093 1.133.14.425.047.898.094 1.37.14.472.048.85.095 1.18.095h1.56c.236-1.641.425-3.094.52-4.36.094-1.265.142-2.672.142-4.172 0-.187 0-.515-.048-.937 0-.422-.047-.656-.047-.703l-.189-.281h-2.597l-.19.28c-.141 1.173-.33 2.25-.614 3.188-.283.938-.566 1.969-.991 3.188a13.52 13.52 0 01-.803 1.828c-.33.703-.709 1.172-1.087 1.453l.19.047z" fill="#A3C754"/><path d="M87.284 32a18 18 0 01.141-2.25c.095-.75.142-1.5.142-2.297v-.422a83.239 83.239 0 00-5.337-.984 36.407 36.407 0 00-5.479-.422c-.189 0-.425 0-.803.047-.378 0-.567.047-.661.047l-.33.281-.898 7.453a2.852 2.852 0 01-.803 1.64c-.425.423-.945.61-1.559.61a7.498 7.498 0 01-2.22-.328 3.634 3.634 0 01-1.842-1.266v-2.812c0-1.547.048-3.047.142-4.547.094-1.5.142-3 .047-4.594 0-.093.236-.422.756-.89.472-.47 1.04-1.032 1.653-1.641l1.842-1.828c.614-.61.992-1.078 1.228-1.406 1.417-2.25 2.503-4.735 3.26-7.407A42.978 42.978 0 0078.025.875h1.228c.661.047 1.465.14 2.41.188.944.046 1.888.14 2.927.234 1.04.094 2.031.187 3.023.234.992.047 1.89.14 2.692.188.803.047 1.465.14 1.937.14.52.047.756.047.756.047l.472.328v.704c0 3.187-.095 6.328-.236 9.515a211.02 211.02 0 00-.236 9.516c0 .047.047.14.189.234.141.094.236.235.377.422.142.188.284.469.378.797.142.328.19.844.236 1.453v.375c0 .234 0 .516.048.844 0 .328.047.656.047.984v2.86c0 .609 0 1.265-.047 1.875 0 .609-.048 1.218-.095 1.875-.047.656-.094 1.359-.189 2.109-.141.61-.425.984-.803 1.172-.377.187-.803.281-1.322.281-.898 0-1.842-.281-2.74-.89-.897-.61-1.511-1.407-1.794-2.391V32zM78.45 20.703c0 .047.19.094.614.14.425.048.898.095 1.417.188.567.047 1.134.14 1.7.188.615.047 1.087.093 1.465.093h1.936c.142-1.125.284-2.156.378-3.14.095-.985.19-1.922.236-2.86.047-.937.095-1.828.142-2.765.047-.938.047-1.922.047-2.953V9.03c0-.234 0-.468-.047-.75 0-.234-.047-.468-.047-.656v-.328l-.284-.328h-3.211l-.19.328c-.188 1.64-.424 3.094-.755 4.406-.33 1.313-.756 2.766-1.228 4.36a9.09 9.09 0 01-.425 1.171l-.567 1.266a5.965 5.965 0 01-.708 1.172c-.237.375-.473.656-.709.797l.236.234z" fill="#7163AA"/><path d="M104.759 22.156c0 .75.047 1.36.095 1.922.047.563.189 1.031.425 1.453.236.422.614.703 1.181.89.519.188 1.275.282 2.267.282.472 0 .992 0 1.606-.047.614-.047 1.039-.187 1.275-.515 0-.141 0-.422.047-.797 0-.375.047-.61.047-.75 0-.469 0-1.125-.047-1.922 0-.797-.142-1.547-.331-2.297-.189-.75-.566-1.36-1.039-1.875-.472-.516-1.18-.797-2.078-.797-.85 0-1.511.14-1.936.422-.473.281-.803.656-.992 1.078a4.694 4.694 0 00-.378 1.453c-.142.563-.142 1.032-.142 1.5zm-6.518 4.969c0-.75.047-1.64.142-2.672.095-1.031.283-2.062.52-3.187.283-1.078.614-2.203 1.086-3.235.472-1.078 1.039-2.015 1.747-2.812a9.183 9.183 0 012.598-2.016c.992-.515 2.173-.797 3.543-.797 1.794 0 3.258.422 4.439 1.266 1.181.844 2.078 1.875 2.787 3.094a11.717 11.717 0 011.417 3.89 17.71 17.71 0 01.378 3.61c0 .047 0 .422.047 1.03 0 .61 0 1.313-.095 2.063-.047.75-.236 1.453-.425 2.063-.236.61-.566.937-1.039.937h-9.493c-.236 0-.425.047-.52.188-.094.14-.189.281-.189.422-.047.14-.047.328-.047.468v.329c0 .75.236 1.312.709 1.78.472.47.991.845 1.605 1.173.567.328 1.134.656 1.606.984.473.328.756.703.756 1.078 0 .235-.047.516-.189.844a5.295 5.295 0 01-.567.984c-.236.328-.519.563-.85.797-.33.188-.708.328-1.086.328-1.984 0-3.543-.468-4.676-1.359-1.181-.89-2.031-2.016-2.645-3.328a13.8 13.8 0 01-1.18-4.125 19.742 19.742 0 01-.379-3.797z" fill="#ECC64C"/><path d="M132.956 35.75l.095-6-5.762-.375h-.142c-.047 0-.095 0-.142.047 0 0-.047.047-.094.047-.378.047-.614.093-.756.234-.094.14-.142.281-.142.516l.095 5.531c-.047.047-.095.188-.189.281-.095.14-.236.188-.425.235h-.095c-.141 0-.377 0-.755-.047-.331 0-.709-.047-1.134-.047-.425 0-.803-.047-1.181-.094s-.614-.047-.708-.094c-.331-.047-.567-.093-.614-.187a.881.881 0 01-.095-.375l-.803-21.328c.048-.094.142-.235.331-.422.189-.188.331-.281.52-.328a4.893 4.893 0 011.417.047l1.558.14c.52.047 1.039.14 1.512.188.519.094.944.14 1.322.187.142.094.236.188.331.281.047.047.141.141.141.282 0 .187 0 .281.048.281l-.945 11.578a21.3 21.3 0 001.37.14c.614.048 1.228.141 1.889.141.661.047 1.322.047 1.889.047.614 0 1.087 0 1.464-.047l1.181-12.703c.189-.234.378-.375.614-.422h2.362c.85 0 1.653-.046 2.361-.093.284.046.473.14.52.187.047.047.142.14.142.281 0 .047 0 .141.047.141l-1.37 21.328c-.047.234-.142.469-.283.61-.142.187-.473.28-.992.328-.189.047-.567.047-1.039.093a8.155 8.155 0 01-1.512 0 73.433 73.433 0 01-1.417-.14c-.425-.047-.661-.188-.755-.375v-.094h.141z" fill="#A3C754"/><path d="M153.077 34.766c0-.047 0-.047-.047-.094 0 0-.048-.047-.048-.094v-.047l-.566-16.172v-.515c0-.235 0-.516.047-.797 0-.281.047-.563.047-.797v-.563c0-.046 0-.093.047-.14 0-.047.048-.094.048-.14a3.036 3.036 0 01-.142-.376c-.047-.14-.236-.187-.52-.14l-7.415.609c-.236.047-.378 0-.425-.14-.047-.141-.094-.235-.142-.282-.141-.75-.189-1.594-.189-2.437 0-.891.142-1.688.425-2.532a.4.4 0 01.331-.187c.142 0 .331-.047.425-.047l17.806-.094 1.653-.14c.048 0 .142.046.189.14a.35.35 0 00.142.14c0 .048.047.188.095.376.047.234.094.375.094.515.142.75.189 1.407.189 1.97 0 .562-.047 1.312-.095 2.202-.047.188-.141.282-.188.329-.048.046-.189.046-.426.046-1.039.094-1.983.094-2.975-.046a11.873 11.873 0 00-2.881-.094c-.331.047-.52.094-.614.234-.095.14-.142.281-.142.516l.472 18.422c-.094.187-.283.28-.566.375-.284.047-.52.14-.803.14-.284.047-.52.047-.803.094-.284 0-.473.047-.567.047-.047 0-.189 0-.331.047-.141 0-.33.047-.519.047s-.378 0-.52.047c-.141 0-.236.046-.283.046a2.08 2.08 0 01-.567-.093c-.142-.188-.236-.282-.236-.375z" fill="#DE6489"/><path d="M172.489 31.625c0 .328.095.61.283.797.189.187.426.328.709.375.283.094.614.14.992.14s.755.047 1.133.047c1.087 0 1.984-.093 2.74-.328.708-.234 1.086-.703 1.086-1.5 0-.328-.047-.61-.142-.797-.094-.187-.425-.375-.991-.515h-1.465c-.425 0-.897 0-1.417.047-.519.047-.991.093-1.417.187a2.6 2.6 0 00-1.086.516c-.283.281-.425.61-.425 1.031zm-5.762.797c0-1.313.472-2.39 1.417-3.234.944-.797 2.125-1.454 3.542-1.922 1.417-.47 2.976-.797 4.676-.985 1.7-.187 3.306-.281 4.865-.375l.378-.281c.047-.047.047-.234.047-.61v-.89c0-.703 0-1.453-.047-2.297-.048-.844-.189-1.64-.52-2.344a4.18 4.18 0 00-1.558-1.828c-.709-.468-1.748-.75-3.07-.75-.426 0-.851.047-1.323.094a5.447 5.447 0 00-1.322.328c-.426.14-.756.328-1.04.61-.283.28-.425.562-.425.937v5.203c0 .094-.189.188-.519.281-.331.047-.756.094-1.228.141-.473 0-.945.047-1.37.047h-.85c-.425 0-.756-.094-.992-.328a1.662 1.662 0 01-.519-.75c-.142-.282-.189-.61-.237-.89-.047-.282-.047-.563-.047-.75 0-.938.189-1.97.567-3.095a9.888 9.888 0 011.747-3.14c.803-.985 1.795-1.781 3.023-2.438 1.228-.656 2.645-.984 4.298-.984 1.984 0 3.637.328 5.007 1.031 1.37.703 2.456 1.594 3.259 2.625.803 1.078 1.417 2.203 1.795 3.469.377 1.265.566 2.437.566 3.562v12.844c0 .188-.141.281-.377.375-.237.047-.52.14-.851.14-.33.048-.614.048-.944.048h-.614c-.709 0-1.275-.141-1.701-.422-.425-.282-.944-.422-1.511-.422-.945 0-1.889.187-2.834.516a9.368 9.368 0 01-3.07.515c-.897 0-1.842-.094-2.787-.234-.944-.14-1.794-.422-2.597-.75-.756-.328-1.417-.75-1.89-1.219-.708-.563-.944-1.125-.944-1.828z" fill="#7163AA"/><path d="M183.636 41.844c2.031-1.172 3.684-2.485 4.959-3.938 1.275-1.453 2.22-3 2.881-4.64a19.208 19.208 0 001.275-5.157c.189-1.78.236-3.609.189-5.437-.047-1.406-.189-2.766-.378-4.172-.189-1.36-.33-2.766-.33-4.125-.047-.047-.047-.188-.047-.422v-.422c.188-.281.377-.422.661-.515.283-.047.519-.094.803-.188 1.842-.375 3.637-.703 5.431-.937a100.11 100.11 0 015.526-.563h1.276c.283 0 .519 0 .755-.047.237 0 .425-.047.52-.047.047.047.189.141.283.282a.622.622 0 01.236.28l1.417 8.11v.188l2.315 12.984.094 1.172c0 .047-.189.14-.567.234a27.63 27.63 0 01-1.275.282c-.472.093-.897.14-1.322.187-.425.047-.709.094-.803.094-.189 0-.425 0-.709.047h-.803c-.283 0-.472-.047-.708-.14-.189-.095-.331-.235-.331-.423l-2.975-16.828c0-.187-.048-.422-.142-.797-.094-.375-.331-.515-.661-.515h-.236c-.095 0-.142 0-.189.047-.095 0-.284 0-.52.046a26.71 26.71 0 01-.803.141c-.283.047-.567.094-.803.14-.236.047-.425.047-.519.047-.189.047-.236.188-.236.329 0 .14.047.28.094.328.047.937.094 1.875.189 2.765.094.891.189 1.828.189 2.813a27.245 27.245 0 01-.331 5.156c-.236 1.735-.708 3.422-1.322 5.016-.661 1.64-1.512 3.187-2.598 4.734-1.086 1.5-2.409 2.906-3.967 4.219a5.9 5.9 0 01-1.606 1.031 4.55 4.55 0 01-1.842.516h-.095c-.047-.047-.236-.094-.472-.188-.236-.093-.52-.234-.756-.328-.283-.14-.519-.234-.755-.328-.237-.094-.378-.188-.52-.281a2.804 2.804 0 00-.331-.282c-.189-.093-.283-.187-.378-.28l-.094-.094.331-.094z" fill="#69A4D4"/><path d="M163.987 55.203c-.189 0-.33.094-.472.328a1.99 1.99 0 00-.283.797c-.095.281-.142.656-.189.984-.047.376-.095.704-.142 1.032-.047.328-.094.562-.189.797-.047.187-.142.28-.283.28h-2.834l1.653-13.312c0-.14.094-.234.283-.234h1.323c.33 0 .614 0 .897.047.284.047.52.094.709.187.189.094.283.235.283.422l-.756 4.266c0 .047 0 .14.048.234.047.094.141.14.33.14h.047a1.09 1.09 0 00.331-.233c.142-.094.236-.188.283-.188l4.346-3.984.236-.235c.047 0 .142-.047.331-.047h.614c.283 0 .614.047.897.094.283.047.567.094.803.188.236.093.378.187.378.328l-6.66 5.625v.047l5.81 5.203v.094h.047c-.142.14-.378.28-.709.515a3.866 3.866 0 01-.944.563 1.999 1.999 0 01-.992.28c-.331 0-.567-.14-.709-.421a10.418 10.418 0 01-.897-.984 29.068 29.068 0 00-1.181-1.266 9.876 9.876 0 00-1.322-1.125 1.77 1.77 0 00-1.087-.422zm11.997 3.891a.396.396 0 01-.33-.188c-.095-.093-.142-.187-.189-.281l-.709-12.422c0-.14.095-.281.284-.328a1.7 1.7 0 01.519-.094c.189 0 .378 0 .614.047s.425.047.661.094c.142 0 .331.047.52.094s.331.093.378.187l.283 6.516c0 .093.095.14.142.14.094 0 .142 0 .189-.047.047-.046.094-.093.189-.14l3.636-6.094c.048-.047.237-.094.567-.14.331 0 .662-.047 1.039-.047h1.039c.331 0 .567 0 .756.047.142 0 .236.046.331.187.094.14.094.234.094.281 0 1.922.047 3.563.095 4.969.047 1.36.047 2.531.094 3.469 0 .937.047 1.687.047 2.297 0 .562 0 .984-.047 1.312 0 .281-.047.516-.047.61 0 .093-.047.14-.142.187 0 0-.141 0-.378-.047-.236 0-.472-.047-.755-.047-.236 0-.52-.047-.756-.047s-.378-.047-.378-.047h-.094c-.236 0-.378-.093-.473-.234a2.28 2.28 0 00-.141-.328l-.048-8.063c0-.046-.094-.093-.236-.093-1.133 1.687-2.031 3.14-2.645 4.312a104.486 104.486 0 01-1.606 2.766c-.425.656-.802 1.125-1.133 1.312-.425.094-.85.094-1.37-.14zm21.018-1.219c0-.328 0-.656.047-.938.048-.28.048-.609.048-.984v-.14c-.756-.141-1.606-.282-2.456-.422-.851-.094-1.701-.188-2.551-.188h-.661l-.142.14-.378 3.141c-.047.282-.141.516-.378.703-.188.188-.425.282-.755.282-.284 0-.614-.047-.992-.14-.378-.095-.661-.282-.85-.563v-1.172c0-.657.047-1.266.094-1.922.047-.61.047-1.266 0-1.922 0-.047.095-.14.331-.375.236-.188.472-.422.756-.703.283-.234.566-.516.85-.75.283-.234.472-.422.566-.563.662-.984 1.134-2.015 1.512-3.14.33-1.125.567-2.25.661-3.422h.567c.472.047 1.039.094 1.747.14.709.047 1.417.094 2.079.141.661.047 1.275.094 1.747.14.472.048.756.048.756.048l.236.14v.282c0 1.359-.047 2.671-.094 3.984-.095 1.312-.095 2.672-.095 3.984 0 .047 0 .094.047.094a.63.63 0 01.142.188c.047.093.142.187.189.328.047.14.094.328.094.609v3c0 .234-.047.516-.047.797s-.047.562-.094.89c-.048.235-.189.422-.331.47-.189.093-.378.14-.614.14-.425 0-.85-.14-1.275-.375a1.822 1.822 0 01-.85-1.031v-.891h.094zm-4.062-4.734s.095 0 .284.047c.189.046.425.046.661.093.236 0 .519.047.803.094a4.1 4.1 0 00.708.047h.898c.141-.938.236-1.781.283-2.531.047-.75.095-1.547.095-2.438v-.937l-.142-.141h-1.464l-.142.14c-.094.704-.189 1.313-.331 1.829-.141.515-.33 1.172-.566 1.828a4.791 4.791 0 01-.473 1.031 2.521 2.521 0 01-.661.844l.047.094zm9.021-1.266c0-.75.237-1.453.662-2.156a7.492 7.492 0 011.794-1.875c.756-.563 1.606-.985 2.551-1.313.945-.328 1.936-.468 2.976-.468.566 0 1.039.093 1.369.28.331.188.52.47.52.891v.47c0 .233-.047.468-.095.655a1.44 1.44 0 01-.283.61.747.747 0 01-.472.375c-.614-.047-1.181-.047-1.653-.047-.473 0-.945.094-1.323.187a5.053 5.053 0 00-1.181.422c-.378.188-.755.469-1.181.797v.89c0 .563.142.985.473 1.36.283.375.661.656 1.133.89.425.235.945.47 1.465.61.519.188 1.039.328 1.464.516a8.41 8.41 0 011.133.562c.284.188.473.469.473.75v.422c0 .14-.048.328-.095.469-.047.14-.142.328-.236.469-.094.14-.283.234-.52.28h-1.18c-1.181 0-2.267-.14-3.259-.468a7.118 7.118 0 01-2.456-1.266c-.662-.562-1.228-1.218-1.559-1.968-.331-.657-.52-1.453-.52-2.344z" fill="#A3C754"/></g><defs><clipPath id="clip0_2_358"><path fill="#fff" transform="translate(0 .5)" d="M0 0h212.069v60H0z"/></clipPath></defs></svg>