<svg width="342" height="97" fill="none" xmlns="http://www.w3.org/2000/svg"><g clip-path="url(#clip0_80_579)" fill-rule="evenodd" clip-rule="evenodd"><path d="M.229 4.352c0-.75.761-1.2 2.208-1.35l14.396-1.275c.077-.075.305-.075.686-.075.457 0 .762.075.99.075h.305c.228 0 .457 0 .685.075.229 0 .457.075.61.15.228.075.304.15.304.225l.457 8.325c0 .225 0 .45-.076.675-.076.375-.305.525-.61.525l-8.15.3c0 .075-.075.3-.152.825-.076.525-.152.9-.152 1.125l1.524 39c-.077.525-.458.9-1.22 1.2-.76.3-1.675.525-2.665.675-.99.15-1.98.3-2.97.3-.991 0-1.753.075-2.286.075-.61 0-1.142-.075-1.6-.225-.456-.15-.685-.45-.685-.9l-1.6-48.75v-.975z" fill="#DE6489"/><path d="M13.253 74.027c0-.675.077-1.875.153-3.675.076-1.8.304-3.6.533-5.55.305-1.875.685-3.6 1.295-5.025.533-1.425 1.295-2.175 2.285-2.175.914 0 1.752.075 2.59.3.761.225 1.675.45 2.666.675.533.225.761.45.837.675.077.225.077.45.153.75-.076 1.875-.457 3.75-.99 5.475-.534 1.725-.838 3.6-.99 5.475-.077 1.2.075 2.4.304 3.75a10.76 10.76 0 001.371 3.675 8.957 8.957 0 002.742 2.85c1.143.75 2.59 1.125 4.266 1.2 1.37.075 2.513-.45 3.427-1.575.914-1.125 1.676-2.475 2.21-4.125.532-1.65.99-3.525 1.218-5.55.228-2.025.457-3.975.533-5.85.076-1.875.152-3.45.229-4.8 0-1.35.076-2.25.152-2.625 0-.3 0-.9-.076-1.65 0-.75-.076-1.275-.076-1.575-.077-.3-.305-.45-.534-.6-.228-.075-.457-.225-.685-.3-6.322-.225-10.968-1.725-13.863-4.425-2.894-2.7-4.19-6.75-3.885-12.075 0-.525.077-1.575.153-3.15.076-1.5.228-3.075.457-4.725.228-1.575.457-3 .838-4.2.38-1.2.838-1.8 1.523-1.725.305 0 .838 0 1.447.075.61.075 1.295.15 1.904.3.686.15 1.295.375 1.829.6.533.225.99.525 1.37.9.077.075.153.15.23.3l.151.3-.533 15.075c0 .75.229 1.5.61 2.1.38.675.914 1.2 1.6 1.65.685.45 1.37.9 2.208 1.2.838.3 1.6.525 2.438.525 1.447.075 2.59-.225 3.427-.975.838-.75 1.447-1.725 1.828-2.85s.686-2.325.762-3.6c.076-1.275.228-2.325.228-3.15l.457-9.975.305-.3 7.16.225c.305 0 .533.15.533.525 0 .3 0 .525-.076.675l-2.894 40.275c-.153 2.7-.61 5.4-1.295 8.175-.686 2.775-1.752 5.325-3.2 7.575a16.338 16.338 0 01-5.864 5.475c-2.438 1.425-5.56 2.025-9.37 1.95-2.741-.075-5.026-.6-6.855-1.575-1.828-.975-3.351-2.325-4.417-3.9-1.143-1.575-1.905-3.375-2.362-5.325-.38-1.725-.533-3.675-.457-5.7z" fill="#69A4D4"/><path d="M79.52 53.251c0-.9.077-1.725.153-2.625.076-.825.152-1.725.152-2.7v-.525a84.894 84.894 0 00-6.779-1.125c-2.36-.3-4.722-.45-7.083-.45h-1.905l-.457.3-1.142 8.625a2.855 2.855 0 01-.99 1.875c-.534.45-1.22.675-2.057.675-.838 0-1.752-.15-2.742-.375s-1.828-.75-2.438-1.575v-3.075c0-1.8.077-3.525.23-5.25.151-1.725.151-3.525.075-5.25 0-.075.305-.45.914-.975.61-.525 1.371-1.2 2.133-1.875s1.6-1.35 2.361-2.025c.762-.675 1.295-1.2 1.6-1.575a33.605 33.605 0 004.19-8.625c.99-3.075 1.599-6.225 1.903-9.375h1.6c1.219.075 2.894.225 4.875.375 1.98.15 3.96.3 5.865.45 1.904.15 3.504.225 4.875.3 1.37.075 2.056.15 2.056.15l.61.45v.75c0 3.675-.077 7.35-.305 11.025-.229 3.675-.305 7.35-.305 11.025 0 .075.076.225.152.3.153.075.305.225.457.45.153.225.305.525.534.9.152.375.228.975.228 1.65v.45c0 .3 0 .675.076.975 0 .375.077.75.077 1.125v3.3c0 .75 0 1.425-.077 2.1 0 .675-.076 1.425-.152 2.175-.076.75-.152 1.575-.228 2.475-.153.675-.457 1.125-.99 1.35-.458.225-.99.3-1.676.3-1.143 0-2.362-.3-3.504-.975-1.143-.675-1.904-1.65-2.285-2.85v-2.325zm-11.272-13.05s.228.075.761.15c.534.075 1.143.15 1.828.225.686.075 1.448.15 2.21.225.761.075 1.37.15 1.904.15h2.513c.381-2.625.686-4.95.838-6.975.152-2.025.228-4.275.228-6.675 0-.3 0-.825-.076-1.5 0-.675-.076-1.05-.076-1.125l-.305-.45h-4.189l-.305.45c-.228 1.875-.533 3.6-.99 5.1-.457 1.5-.914 3.15-1.6 5.1-.304.825-.685 1.8-1.294 2.925-.533 1.125-1.143 1.875-1.752 2.325l.305.075z" fill="#A3C754"/><path d="M140.761 50.927c0-1.2.076-2.4.228-3.6.153-1.2.229-2.4.229-3.675v-.675c-2.742-.6-5.637-1.125-8.607-1.575a59.19 59.19 0 00-8.836-.675c-.305 0-.686 0-1.295.075-.609 0-.914.075-1.066.075l-.533.45-1.448 11.925c-.152 1.05-.609 1.95-1.295 2.625-.685.675-1.523.975-2.513.975-1.143 0-2.361-.15-3.58-.525-1.219-.375-2.209-1.05-2.971-2.025v-4.5c0-2.475.077-4.875.229-7.275.152-2.4.228-4.8.076-7.35 0-.15.381-.675 1.219-1.425l2.666-2.625 2.97-2.925c.99-.975 1.6-1.725 1.981-2.25 2.285-3.6 4.037-7.575 5.255-11.85 1.219-4.275 1.981-8.55 2.362-12.975h1.98c1.066.075 2.361.225 3.885.3 1.523.075 3.046.225 4.722.375 1.676.15 3.275.3 4.875.375 1.599.075 3.047.225 4.342.3 1.294.075 2.361.225 3.123.225.837.075 1.218.075 1.218.075l.762.525v1.125c0 5.1-.152 10.125-.381 15.225-.228 5.025-.381 10.125-.381 15.225 0 .075.076.225.305.375.228.15.381.375.609.675.229.3.457.75.61 1.275.228.525.304 1.35.38 2.325v.6c0 .375 0 .825.077 1.35 0 .525.076 1.05.076 1.575v4.575c0 .975 0 2.025-.076 3 0 .975-.077 1.95-.153 3s-.152 2.175-.304 3.375c-.229.975-.686 1.575-1.295 1.875-.61.3-1.295.45-2.133.45-1.447 0-2.971-.45-4.418-1.425-1.447-.975-2.437-2.25-2.894-3.825v-3.15zm-14.244-18.075c0 .075.305.15.99.225.686.075 1.448.15 2.285.3.914.075 1.828.225 2.742.3.991.075 1.752.15 2.362.15h3.123c.228-1.8.457-3.45.609-5.025.152-1.575.305-3.075.381-4.575.076-1.5.152-2.925.228-4.425.077-1.5.077-3.075.077-4.725v-.9c0-.375 0-.75-.077-1.2 0-.375-.076-.75-.076-1.05v-.525l-.457-.525h-5.179l-.305.525c-.305 2.625-.686 4.95-1.219 7.05-.533 2.1-1.218 4.425-1.98 6.975-.152.525-.381 1.2-.686 1.875l-.914 2.025a9.5 9.5 0 01-1.142 1.875c-.381.6-.762 1.05-1.143 1.275l.381.375z" fill="#fff"/><path d="M168.943 35.176c0 1.2.077 2.175.153 3.075.076.9.305 1.65.685 2.325.381.675.991 1.125 1.905 1.425.837.3 2.056.45 3.656.45.761 0 1.599 0 2.589-.075.991-.075 1.676-.3 2.057-.825 0-.225 0-.675.076-1.275 0-.6.076-.975.076-1.2 0-.75 0-1.8-.076-3.075 0-1.275-.228-2.475-.533-3.675-.305-1.2-.914-2.175-1.676-3-.761-.825-1.904-1.275-3.351-1.275-1.371 0-2.438.225-3.123.675-.762.45-1.295 1.05-1.6 1.725a7.49 7.49 0 00-.609 2.325c-.229.9-.229 1.65-.229 2.4zm-10.511 7.95c0-1.2.076-2.625.229-4.275.152-1.65.457-3.3.837-5.1.458-1.725.991-3.525 1.752-5.175.762-1.725 1.676-3.225 2.819-4.5a14.766 14.766 0 014.189-3.225c1.6-.825 3.504-1.275 5.713-1.275 2.894 0 5.255.675 7.16 2.025 1.904 1.35 3.351 3 4.494 4.95a18.656 18.656 0 012.285 6.225c.457 2.175.609 4.125.609 5.775 0 .075 0 .675.076 1.65 0 .975 0 2.1-.152 3.3-.076 1.2-.381 2.325-.686 3.3-.381.975-.914 1.5-1.675 1.5h-15.31c-.381 0-.686.075-.838.3-.153.225-.305.45-.305.675-.076.225-.076.525-.076.75v.525c0 1.2.381 2.1 1.142 2.85.762.75 1.6 1.35 2.59 1.875.914.525 1.828 1.05 2.59 1.575.762.525 1.219 1.125 1.219 1.725 0 .375-.077.825-.305 1.35a8.424 8.424 0 01-.914 1.575c-.381.525-.838.9-1.371 1.275-.533.3-1.143.525-1.752.525-3.199 0-5.713-.75-7.541-2.175-1.904-1.425-3.275-3.225-4.265-5.325-.99-2.1-1.6-4.275-1.905-6.6a31.346 31.346 0 01-.609-6.075z" fill="#ECC64C"/><path d="M214.417 56.927l.152-9.6-9.293-.6h-.228c-.076 0-.153 0-.229.075 0 0-.076.075-.152.075-.609.075-.99.15-1.219.375-.152.225-.228.45-.228.825l.152 8.85c-.076.075-.152.3-.305.45-.152.225-.381.3-.685.375h-.153c-.228 0-.609 0-1.218-.075-.533 0-1.143-.075-1.828-.075-.686 0-1.295-.075-1.905-.15-.609-.075-.99-.075-1.142-.15-.533-.075-.914-.15-.99-.3a1.398 1.398 0 01-.153-.6l-1.295-34.125c.077-.15.229-.375.534-.675.304-.3.533-.45.838-.525a7.944 7.944 0 012.285.075l2.513.225c.838.075 1.676.225 2.438.3.837.15 1.523.225 2.132.3.229.15.381.3.534.45.076.075.228.225.228.45 0 .3 0 .45.076.45l-1.523 18.525c.533.075 1.219.15 2.209.225.99.075 1.98.225 3.047.225 1.066.075 2.132.075 3.046.075.99 0 1.752 0 2.362-.075l1.904-20.325c.304-.375.609-.6.99-.675h3.808c1.371 0 2.666-.075 3.809-.15.457.075.762.225.838.3.076.075.228.225.228.45 0 .075 0 .225.076.225l-2.208 34.125c-.077.375-.229.75-.457.975-.229.3-.762.45-1.6.525-.305.075-.914.075-1.676.15-.761.075-1.599.075-2.437 0-.838-.075-1.6-.15-2.285-.225-.686-.075-1.067-.3-1.219-.6v-.15h.229z" fill="#A3C754"/><path d="M246.865 55.352c0-.075 0-.075-.077-.15 0 0-.076-.075-.076-.15v-.075l-.914-25.875v-.825c0-.375 0-.825.076-1.275 0-.45.077-.9.077-1.275v-.9c0-.075 0-.15.076-.225 0-.075.076-.15.076-.225-.076-.15-.152-.375-.229-.6-.076-.225-.38-.3-.837-.225l-11.959.975c-.381.075-.609 0-.686-.225-.076-.225-.152-.375-.228-.45-.229-1.2-.305-2.55-.305-3.9 0-1.425.229-2.7.686-4.05.076-.15.304-.3.533-.3.228 0 .533-.075.685-.075l28.716-.15 2.666-.225c.076 0 .229.075.305.225.076.15.228.225.228.225 0 .075.077.3.153.6.076.375.152.6.152.825.229 1.2.305 2.25.305 3.15 0 .9-.076 2.1-.153 3.525-.076.3-.228.45-.304.525-.076.075-.305.075-.686.075-1.675.15-3.199.15-4.798-.075-1.524-.225-3.123-.3-4.647-.15-.533.075-.838.15-.99.375-.152.225-.228.45-.228.825l.761 29.475c-.152.3-.457.45-.914.6-.457.075-.838.225-1.295.225-.457.075-.838.075-1.295.15-.457 0-.761.075-.914.075-.076 0-.304 0-.533.075-.228 0-.533.075-.838.075-.304 0-.609 0-.838.075-.228 0-.38.075-.457.075-.304 0-.685-.075-.914-.15-.228-.3-.38-.45-.38-.6z" fill="#DE6489"/><path d="M278.17 50.326c0 .525.153.975.457 1.275.305.3.686.525 1.143.6.457.15.99.225 1.599.225.61 0 1.219.075 1.828.075 1.752 0 3.199-.15 4.418-.525 1.143-.375 1.752-1.125 1.752-2.4 0-.525-.076-.975-.228-1.275-.153-.3-.686-.6-1.6-.825h-2.361c-.686 0-1.447 0-2.285.075-.838.075-1.6.15-2.285.3a4.2 4.2 0 00-1.752.825c-.457.45-.686.975-.686 1.65zm-9.292 1.275c0-2.1.761-3.825 2.285-5.175 1.523-1.275 3.427-2.325 5.712-3.075 2.285-.75 4.799-1.275 7.541-1.575 2.742-.3 5.332-.45 7.846-.6l.609-.45c.076-.075.076-.375.076-.975v-1.425c0-1.125 0-2.325-.076-3.675-.076-1.35-.305-2.625-.838-3.75-.533-1.2-1.371-2.175-2.514-2.925-1.142-.75-2.818-1.2-4.951-1.2-.685 0-1.371.075-2.132.15-.762.075-1.524.3-2.133.525-.686.225-1.219.525-1.676.975-.457.45-.685.9-.685 1.5v8.325c0 .15-.305.3-.838.45a50.9 50.9 0 01-1.981.225c-.761 0-1.523.075-2.208.075h-1.372c-.685 0-1.218-.15-1.599-.525a2.66 2.66 0 01-.838-1.2c-.228-.45-.305-.975-.381-1.425-.076-.45-.076-.9-.076-1.2 0-1.5.305-3.15.914-4.95.609-1.8 1.523-3.45 2.818-5.025 1.295-1.575 2.895-2.85 4.875-3.9 1.981-1.05 4.266-1.575 6.932-1.575 3.199 0 5.865.525 8.074 1.65 2.208 1.125 3.96 2.55 5.255 4.2 1.295 1.725 2.285 3.525 2.895 5.55.609 2.025.914 3.9.914 5.7v20.55c0 .3-.229.45-.61.6-.381.075-.838.225-1.371.225-.533.075-.99.075-1.523.075h-.99c-1.143 0-2.057-.225-2.742-.675-.686-.45-1.524-.675-2.438-.675-1.523 0-3.047.3-4.57.825a15.215 15.215 0 01-4.951.825c-1.447 0-2.971-.15-4.494-.375-1.523-.225-2.894-.675-4.189-1.2-1.219-.525-2.285-1.2-3.047-1.95-1.143-.9-1.523-1.8-1.523-2.925z" fill="#fff"/><path d="M296.146 66.676c3.275-1.875 5.941-3.975 7.998-6.3 2.056-2.325 3.58-4.8 4.646-7.425a30.506 30.506 0 002.057-8.25c.304-2.85.381-5.775.304-8.7-.076-2.25-.304-4.425-.609-6.675-.305-2.175-.533-4.425-.533-6.6-.076-.075-.076-.3-.076-.675v-.675c.304-.45.609-.675 1.066-.825.457-.075.838-.15 1.295-.3 2.971-.6 5.865-1.125 8.759-1.5 2.895-.375 5.865-.675 8.912-.9h2.057c.457 0 .838 0 1.219-.075.38 0 .685-.075.837-.075.077.075.305.225.457.45a1 1 0 01.381.45l2.285 12.975v.3l3.733 20.775.152 1.875c0 .075-.305.225-.914.375s-1.295.3-2.057.45c-.761.15-1.447.225-2.132.3-.686.075-1.143.15-1.295.15-.305 0-.686 0-1.143.075h-1.295c-.457 0-.761-.075-1.142-.225-.305-.15-.533-.375-.533-.675l-4.799-26.925c0-.3-.076-.675-.229-1.275-.152-.6-.533-.825-1.066-.825h-.381c-.152 0-.228 0-.304.075-.153 0-.457 0-.838.075-.381.075-.838.15-1.295.225-.457.075-.914.15-1.295.225-.381.075-.686.075-.838.075-.305.075-.381.3-.381.525 0 .225.076.45.153.525.076 1.5.152 3 .304 4.425.153 1.425.305 2.925.305 4.5a43.32 43.32 0 01-.533 8.25c-.381 2.775-1.143 5.475-2.133 8.025-1.066 2.625-2.437 5.1-4.189 7.575-1.752 2.4-3.885 4.65-6.399 6.75-.685.6-1.523 1.2-2.589 1.65-.99.525-1.981.75-2.971.825h-.152c-.076-.075-.381-.15-.762-.3s-.838-.375-1.219-.525c-.457-.225-.838-.375-1.218-.525-.381-.15-.61-.3-.838-.45a4.578 4.578 0 00-.533-.45c-.305-.15-.457-.3-.61-.45l-.152-.15.533-.15z" fill="#69A4D4"/><path d="M264.46 88.052c-.305 0-.533.15-.762.525-.228.375-.381.75-.457 1.275-.152.45-.228 1.05-.305 1.575-.076.6-.152 1.125-.228 1.65-.076.525-.153.9-.305 1.275-.076.3-.228.45-.457.45h-4.57l2.666-21.3c0-.225.152-.375.457-.375h2.133c.533 0 .99 0 1.447.075.457.075.838.15 1.142.3.305.15.457.375.457.675l-1.218 6.825c0 .075 0 .225.076.375s.228.225.533.225h.076c.153-.075.305-.15.533-.375.229-.15.381-.3.457-.3l7.008-6.375.381-.375c.076 0 .228-.075.533-.075h.99c.457 0 .99.075 1.447.15.457.075.915.15 1.295.3.381.15.61.3.61.525l-10.74 9v.075l9.369 8.325v.15h.076c-.229.225-.61.45-1.143.825-.457.375-.99.675-1.523.9-.533.3-1.066.45-1.6.45-.533 0-.914-.225-1.142-.675-.381-.375-.914-.9-1.447-1.575-.61-.675-1.219-1.35-1.905-2.025-.685-.675-1.371-1.275-2.132-1.8-.534-.45-1.219-.675-1.752-.675zm19.347 6.225c-.229 0-.457-.15-.533-.3-.153-.15-.229-.3-.305-.45l-1.143-19.875c0-.225.153-.45.457-.526.229-.075.534-.15.838-.15.305 0 .61 0 .99.076.381.075.686.075 1.067.15.228 0 .533.075.838.15.304.075.533.15.609.3l.457 10.425c0 .15.152.225.228.225.153 0 .229 0 .305-.075.076-.075.152-.15.305-.226l5.865-9.75c.076-.075.381-.15.914-.224.533 0 1.066-.075 1.676-.075h1.675c.534 0 .914 0 1.219.075.229 0 .381.075.533.3.153.225.153.375.153.45 0 3.075.076 5.7.152 7.95.076 2.175.076 4.05.152 5.55 0 1.5.076 2.7.076 3.675 0 .9 0 1.575-.076 2.1 0 .45-.076.825-.076.975 0 .15-.076.225-.228.3 0 0-.229 0-.61-.076-.381 0-.761-.074-1.218-.074-.381 0-.838-.075-1.219-.075-.381 0-.61-.075-.61-.075h-.152c-.381 0-.609-.15-.762-.375a3.633 3.633 0 00-.228-.526l-.076-12.9c0-.074-.153-.15-.381-.15-1.828 2.7-3.275 5.026-4.266 6.9a172.935 172.935 0 01-2.589 4.426c-.686 1.05-1.295 1.8-1.828 2.1-.686.15-1.371.15-2.209-.225zm33.895-1.95c0-.525 0-1.05.076-1.5.076-.45.076-.975.076-1.575v-.225a209.07 209.07 0 00-3.96-.675c-1.371-.15-2.743-.3-4.114-.3h-1.066l-.228.225-.61 5.025c-.076.45-.228.825-.609 1.125-.305.3-.686.45-1.219.45-.457 0-.99-.075-1.599-.225-.61-.15-1.067-.45-1.371-.9v-1.875c0-1.05.076-2.025.152-3.075.076-.975.076-2.025 0-3.075 0-.075.152-.225.533-.6.381-.3.762-.675 1.219-1.125.457-.375.914-.825 1.371-1.2.457-.375.761-.675.914-.9 1.066-1.575 1.828-3.225 2.437-5.025.533-1.8.914-3.6 1.067-5.475h.914c.761.075 1.675.15 2.818.225 1.142.075 2.285.15 3.351.225 1.067.075 2.057.15 2.819.225.761.075 1.218.075 1.218.075l.381.225v.45c0 2.175-.076 4.275-.152 6.375-.152 2.1-.152 4.275-.152 6.375 0 .075 0 .15.076.15.076.075.152.15.228.3.076.15.229.3.305.525.076.225.152.525.152.975v4.8c0 .375-.076.825-.076 1.275 0 .45-.076.9-.152 1.425-.076.375-.305.675-.533.75a2.14 2.14 0 01-.991.225c-.685 0-1.371-.225-2.056-.6a2.92 2.92 0 01-1.371-1.65v-1.425h.152zm-6.551-7.575s.153 0 .457.075c.305.075.686.075 1.067.15.381 0 .838.075 1.295.15.457.075.838.075 1.142.075h1.447c.229-1.5.381-2.85.458-4.05.076-1.2.152-2.475.152-3.9v-1.5l-.229-.225h-2.361l-.228.225c-.153 1.125-.305 2.1-.534 2.925a39.513 39.513 0 01-.914 2.925c-.152.45-.38 1.05-.761 1.65-.305.6-.686 1.05-1.067 1.35l.076.15zm14.549-2.024c0-1.2.381-2.325 1.066-3.45a12.025 12.025 0 012.895-3c1.218-.9 2.589-1.575 4.113-2.1 1.523-.525 3.123-.75 4.798-.75.914 0 1.676.15 2.209.45.534.3.838.75.838 1.425v.75c0 .375-.076.75-.152 1.05a2.312 2.312 0 01-.457.975c-.152.3-.457.525-.762.6-.99-.075-1.904-.075-2.666-.075-.761 0-1.523.15-2.132.3a8.195 8.195 0 00-1.905.675c-.609.3-1.218.75-1.904 1.275v1.425c0 .9.229 1.575.762 2.175.457.6 1.066 1.05 1.828 1.425.685.375 1.523.75 2.361.975.838.3 1.676.525 2.361.825.762.3 1.295.6 1.828.9.457.3.762.75.762 1.2v.675c0 .225-.076.525-.152.75a3.49 3.49 0 01-.381.75c-.152.225-.457.375-.838.45h-1.904c-1.904 0-3.656-.225-5.256-.75-1.599-.45-2.894-1.2-3.961-2.025-1.066-.9-1.98-1.95-2.513-3.15-.533-1.05-.838-2.325-.838-3.75z" fill="#A3C754"/></g><defs><clipPath id="clip0_80_579"><path fill="#fff" transform="translate(0 .527)" d="M0 0h342v96H0z"/></clipPath></defs></svg>