<svg width="40" height="40" fill="none" xmlns="http://www.w3.org/2000/svg"><path d="M29.167 40c-5.974 0-10.834-4.86-10.834-10.833 0-5.974 4.86-10.834 10.834-10.834C35.14 18.333 40 23.193 40 29.167 40 35.14 35.14 40 29.167 40zm0-20C24.112 20 20 24.112 20 29.167s4.112 9.166 9.167 9.166 9.166-4.111 9.166-9.166c0-5.055-4.111-9.167-9.166-9.167z" fill="#7163AA"/><path d="M27.5 33.333a.842.842 0 01-.59-.243l-3.333-3.333a.833.833 0 011.178-1.179l2.703 2.704 5.247-5.997a.834.834 0 111.255 1.098l-5.833 6.667a.832.832 0 01-.6.283H27.5zM8.433 35a3.739 3.739 0 01-3.711-3.322l-.619-5.84a31.091 31.091 0 00-1.315-6.2l-1.216-3.785A32.74 32.74 0 010 5.833 5.84 5.84 0 015.833 0c2.33 0 4.592.578 7.032 1.768 1.997.977 3.938.977 5.935 0C21.242.578 23.503 0 25.717 0c1.671 0 3.136.607 4.238 1.71a5.79 5.79 0 011.712 4.123c0 2.869-.385 5.752-1.145 8.567a.84.84 0 01-1.022.588.835.835 0 01-.588-1.021A31.248 31.248 0 0030 5.833a4.14 4.14 0 00-1.222-2.945 4.133 4.133 0 00-2.945-1.221c-2.071 0-4.095.523-6.301 1.598-2.455 1.202-4.942 1.2-7.399 0C9.928 2.19 7.905 1.667 5.95 1.667c-2.413 0-4.283 1.87-4.283 4.166 0 3.225.501 6.425 1.493 9.512l1.217 3.783a32.79 32.79 0 011.385 6.532l.616 5.835a2.072 2.072 0 002.055 1.838 2.08 2.08 0 002.032-1.691l1.582-8.51A3.85 3.85 0 0115.833 20c.394 0 .74.052 1.064.158a.834.834 0 01-.525 1.582 1.758 1.758 0 00-.539-.073 2.183 2.183 0 00-2.148 1.771l-1.583 8.515A3.75 3.75 0 018.433 35z" fill="#7163AA"/></svg>