<svg width="189" height="189" fill="none" xmlns="http://www.w3.org/2000/svg"><path fill-rule="evenodd" clip-rule="evenodd" d="M171.191 17.54c9.404 9.405 9.404 24.82 0 34.224L51.336 171.62c-9.404 9.404-24.82 9.404-34.224 0-9.404-9.405-9.404-24.82 0-34.224L136.967 17.54c9.404-9.404 24.819-9.404 34.224 0z" fill="#ECC64C"/><mask id="a" style="mask-type:luminance" maskUnits="userSpaceOnUse" x="10" y="10" width="169" height="169"><path d="M171.191 17.54c9.404 9.405 9.404 24.82 0 34.224L51.336 171.62c-9.404 9.404-24.82 9.404-34.224 0-9.404-9.405-9.404-24.82 0-34.224L136.967 17.54c9.404-9.404 24.819-9.404 34.224 0z" fill="#fff"/></mask><g mask="url(#a)" fill="#fff"><path fill-rule="evenodd" clip-rule="evenodd" d="M34.578 164.901a.895.895 0 000-1.272.895.895 0 00-1.273 0 .895.895 0 000 1.272c.283.283.919.354 1.273 0zm-4.738-4.737a.897.897 0 000-1.273.895.895 0 00-1.273 0 .896.896 0 000 1.273.897.897 0 001.273 0zm.212 7.848a.897.897 0 00-1.273 0 .896.896 0 000 1.273.895.895 0 001.273 0c.424-.283.354-.919 0-1.273zm-5.727 4.455a.897.897 0 000 1.273.895.895 0 001.272 0 .896.896 0 000-1.273.897.897 0 00-1.273 0zm-9.193-.141a.895.895 0 000 1.272.895.895 0 001.273 0 .895.895 0 000-1.272c-.283-.425-.92-.354-1.273 0zm-3.182 4.454a.897.897 0 00-1.273 0 .897.897 0 000 1.273.895.895 0 001.273 0 .896.896 0 000-1.273zm22.133-30.334a.897.897 0 000-1.273.895.895 0 00-1.273 0 .896.896 0 000 1.273.897.897 0 001.273 0z"/><path d="M28.143 141.779a.9.9 0 101.273-1.275.9.9 0 00-1.273 1.275z"/><path fill-rule="evenodd" clip-rule="evenodd" d="M24.678 137.041a.896.896 0 000-1.273.897.897 0 00-1.273 0 .897.897 0 000 1.273.895.895 0 001.273 0zm-4.667-4.667a.896.896 0 000-1.273.897.897 0 00-1.273 0 .896.896 0 000 1.273.895.895 0 001.273 0zm-4.737-4.737a.896.896 0 000-1.273.895.895 0 00-1.273 0 .897.897 0 000 1.273.897.897 0 001.273 0zm17.819 26.728a.897.897 0 000 1.273.895.895 0 001.272 0 .897.897 0 000-1.273.897.897 0 00-1.272 0zm-4.738-4.737a.895.895 0 000 1.272.895.895 0 001.273 0 .895.895 0 000-1.272.895.895 0 00-1.273 0zm10.607 19.657c.212-.212.212-.495 0-.707-.213-.212-.495-.212-.708 0-.212.212-.212.495 0 .707.213.212.566.142.708 0zm-5.162 3.748c-.212.212-.212.495 0 .707.212.212.495.212.707 0 .212-.212.212-.495 0-.707-.212-.212-.495-.212-.707 0zm-5.091-49.922c.212-.212.212-.495 0-.707-.213-.212-.495-.212-.708 0-.212.212-.212.495 0 .707.142.283.495.212.707 0zm-4.738-4.737c.212-.212.212-.495 0-.707-.212-.213-.495-.213-.707 0-.212.212-.212.495 0 .707.141.282.495.212.707 0zm19.021 27.365c-.212-.212-.495-.212-.707 0-.212.212-.212.495 0 .707.212.212.495.212.707 0 .212-.212.212-.495 0-.707zm-4.667-3.96c.212-.212.212-.495 0-.707-.212-.212-.495-.212-.707 0-.212.212-.212.495 0 .707.142.141.495.212.707 0zm-4.737-4.738c.212-.212.212-.495 0-.707-.213-.212-.495-.212-.708 0-.212.212-.212.495 0 .707.213.212.495.212.708 0zm-5.445-5.445c-.212.212-.212.495 0 .707.212.212.495.212.707 0 .212-.212.212-.495 0-.707-.212-.212-.495-.212-.707 0zm-4.667-4.666c-.212.212-.212.495 0 .707.212.212.495.212.707 0 .212-.212.212-.495 0-.707-.212-.212-.495-.212-.707 0zm-4.031-4.031c.213-.212.213-.495 0-.707-.212-.212-.494-.212-.707 0-.212.212-.212.495 0 .707.213.212.495.212.707 0zm-4.666-4.667c.212-.212.212-.495 0-.707-.213-.212-.495-.212-.707 0-.213.212-.213.495 0 .707.14.141.495.212.707 0zm32.456 41.366c-.212.212-.212.495 0 .707.212.212.495.212.707 0 .212-.212.212-.495 0-.707-.212-.212-.495-.212-.707 0zm-4.738-4.738c-.212.213-.212.495 0 .707.212.213.495.213.707 0 .212-.212.212-.494 0-.707-.141-.141-.495-.212-.707 0zm-4.667-4.667c-.212.213-.212.495 0 .708.212.212.495.212.707 0 .212-.213.212-.495 0-.708-.212-.212-.495-.212-.707 0zm-27.506-27.506c.212-.212.212-.495 0-.707-.212-.212-.495-.212-.707 0-.212.212-.212.495 0 .707.141.142.495.212.707 0zm33.163 42.073c.212-.212.212-.495 0-.707-.212-.212-.495-.212-.707 0-.212.212-.212.495 0 .707.212.212.495.212.707 0zm-4.667-4.667c.212-.212.212-.495 0-.707-.212-.212-.495-.212-.707 0-.212.212-.212.495 0 .707.142.141.495.212.707 0zm4.88 13.93c.211-.212.211-.495 0-.707-.213-.212-.496-.212-.708 0-.212.212-.212.495 0 .707.142.141.566.141.707 0zm-5.233 3.677c-.212.212-.212.495 0 .707.212.212.495.212.707 0 .212-.212.212-.495 0-.707-.142-.142-.495-.212-.707 0zm-8.415-.212c-.212-.212-.495-.212-.707 0-.212.212-.212.495 0 .707.212.212.495.212.707 0 .212-.212.212-.495 0-.707zm-9.122.495c.212-.213.212-.495 0-.708-.212-.212-.495-.212-.707 0-.212.213-.212.495 0 .708.07.212.495.212.707 0zm26.729 0c-.212.212-.212.495 0 .707.212.212.495.212.707 0 .212-.212.212-.495 0-.707-.141-.283-.495-.212-.707 0zm41.224-3.606c-.212.212-.212.494 0 .707.213.212.495.212.708 0 .212-.213.212-.495 0-.707-.213-.213-.495-.213-.708 0zm-3.747 5.161c.212-.212.212-.495 0-.707-.212-.212-.495-.212-.707 0-.213.212-.213.495 0 .707.141.283.495.212.707 0zm-4.667-4.667c.212-.212.212-.495 0-.707-.212-.212-.495-.212-.707 0-.213.212-.213.495 0 .707.141.283.495.212.707 0zm-4.526 4.526c.212-.212.212-.495 0-.707-.212-.212-.495-.212-.707 0-.212.212-.212.495 0 .707.212.212.495.212.707 0zm-4.737-4.738c.212-.212.212-.495 0-.707-.213-.212-.495-.212-.707 0-.213.212-.213.495 0 .707.212.212.495.212.707 0zm-5.162 3.748c-.212.212-.212.495 0 .707.212.212.495.212.707 0 .212-.212.212-.495 0-.707-.212-.212-.495-.212-.707 0zm-4.667-4.667c-.212.212-.212.495 0 .707.212.212.495.212.707 0 .212-.212.212-.495 0-.707-.212-.212-.495-.212-.707 0zm-3.747 5.162c.211-.212.211-.495 0-.707-.213-.212-.496-.212-.708 0-.212.212-.212.495 0 .707.212.212.495.212.707 0zm-4.738-4.738c.212-.212.212-.495 0-.707-.213-.212-.495-.212-.708 0-.212.212-.212.495 0 .707.213.212.495.212.708 0zm45.184.495c-.212.212-.212.495 0 .707.212.212.495.212.707 0 .212-.212.212-.495 0-.707-.212-.212-.495-.212-.707 0zm43.628-28.072a2.796 2.796 0 000 3.96 2.794 2.794 0 003.96 0 2.795 2.795 0 000-3.96 2.796 2.796 0 00-3.96 0z"/><path d="M136.967 145.809a2.798 2.798 0 003.959 0 2.798 2.798 0 000-3.959 2.798 2.798 0 00-3.959 0 2.798 2.798 0 000 3.959z"/><path fill-rule="evenodd" clip-rule="evenodd" d="M132.229 137.112a2.795 2.795 0 000 3.96 2.796 2.796 0 003.96 0 2.796 2.796 0 000-3.96c-1.061-1.061-2.899-1.061-3.96 0z"/><path d="M127.562 136.405a2.801 2.801 0 103.96-3.963 2.801 2.801 0 00-3.96 3.963z"/><path fill-rule="evenodd" clip-rule="evenodd" d="M122.824 127.707a2.796 2.796 0 000 3.96 2.794 2.794 0 003.96 0 2.794 2.794 0 000-3.96c-1.06-1.06-2.899-1.06-3.96 0zm-4.666-4.667a2.794 2.794 0 000 3.96 2.793 2.793 0 003.959 0 2.794 2.794 0 000-3.96c-1.06-1.06-2.899-1.06-3.959 0zm-4.738-4.737a2.793 2.793 0 000 3.959 2.794 2.794 0 003.96 0 2.795 2.795 0 000-3.959c-1.061-1.061-2.899-1.061-3.96 0zm23.759 32.81a2.793 2.793 0 000 3.959 2.794 2.794 0 003.96 0 2.795 2.795 0 000-3.959c-1.061-1.202-2.829-1.132-3.96 0zm-4.738-4.738a2.795 2.795 0 000 3.96 2.796 2.796 0 003.96 0 2.795 2.795 0 000-3.96c-.99-1.132-2.829-1.132-3.96 0zm-4.737-4.737a2.793 2.793 0 000 3.959 2.793 2.793 0 003.959 0 2.793 2.793 0 000-3.959c-.99-1.132-2.828-1.132-3.959 0zm-4.667-4.667a2.793 2.793 0 000 3.959 2.793 2.793 0 003.959 0 2.793 2.793 0 000-3.959c-.99-1.132-2.828-1.132-3.959 0zm-4.738-4.738a2.795 2.795 0 000 3.96 2.796 2.796 0 003.96 0 2.796 2.796 0 000-3.96c-.99-1.132-2.829-1.132-3.96 0zm-4.667-4.667a2.795 2.795 0 000 3.96 2.796 2.796 0 003.96 0 2.796 2.796 0 000-3.96c-.99-1.132-2.829-1.132-3.96 0zm32.527 14.566a2.795 2.795 0 000 3.96 2.795 2.795 0 003.96 0 2.796 2.796 0 000-3.96c-1.132-1.131-2.829-1.131-3.96 0zm-4.738-4.737a2.796 2.796 0 000 3.96 2.796 2.796 0 003.96 0 2.794 2.794 0 000-3.96 2.795 2.795 0 00-3.96 0zm-18.809-18.809a2.796 2.796 0 000 3.96 2.796 2.796 0 003.96 0 2.795 2.795 0 000-3.96 2.794 2.794 0 00-3.96 0zm-4.737-4.738a2.794 2.794 0 000 3.96 2.795 2.795 0 003.96 0 2.796 2.796 0 000-3.96 2.795 2.795 0 00-3.96 0zm-13.86-4.95a2.796 2.796 0 000 3.96 2.794 2.794 0 003.96 0 2.794 2.794 0 000-3.96c-1.06-1.06-2.899-1.06-3.96 0zm-4.666-4.667a2.795 2.795 0 000 3.96 2.794 2.794 0 003.959 0 2.794 2.794 0 000-3.96 2.796 2.796 0 00-3.96 0zm.141 9.193a2.794 2.794 0 000 3.959 2.795 2.795 0 003.96 0 2.795 2.795 0 000-3.959c-.99-1.132-2.829-1.132-3.96 0zm-4.667-4.667a2.794 2.794 0 000 3.959 2.794 2.794 0 003.96 0 2.794 2.794 0 000-3.959c-1.06-1.202-2.829-1.132-3.96 0zm17.678-.283a2.796 2.796 0 000-3.96 2.795 2.795 0 00-3.96 0 2.794 2.794 0 000 3.96 2.795 2.795 0 003.96 0zm-3.748 5.162a2.795 2.795 0 000 3.96 2.795 2.795 0 003.96 0 2.796 2.796 0 000-3.96 2.796 2.796 0 00-3.96 0zm-4.525 4.525a2.794 2.794 0 000 3.96 2.793 2.793 0 003.959 0 2.794 2.794 0 000-3.96c-1.06-1.202-2.828-1.131-3.959 0zm8.98-8.98a2.794 2.794 0 000 3.96 2.795 2.795 0 003.96 0 2.796 2.796 0 000-3.96c-1.132-1.131-2.829-1.131-3.96 0zm17.607-98.359c.07.071.283.142.424 0 .071-.07.141-.282 0-.424-.071-.07-.283-.141-.424 0 0 .142-.071.354 0 .424zM95.247 55.441c-.07.07-.141.283 0 .424.142.142.283.142.425 0 .07-.07.141-.282 0-.424-.142-.141-.283-.141-.425 0zm22.416-21.991c.07.07.282.141.424 0 .071-.07.141-.283 0-.424-.142-.142-.283-.142-.424 0-.142.141-.142.282 0 .424zm-4.455 4.455c.07.07.283.141.424 0 .071-.07.141-.283 0-.424-.141-.142-.283-.142-.424 0-.142.141-.142.282 0 .424zm-4.455 4.455c.071.07.283.141.424 0 .071-.071.142-.283 0-.425-.141-.141-.282-.141-.424 0-.141.142-.141.283 0 .424zm-4.525 4.525c.07.07.282.141.424 0 .071-.07.141-.283 0-.424-.142-.142-.283-.142-.424 0-.142.141-.142.282 0 .424zm-4.455 4.455c.07.07.283.141.424 0 .071-.07.141-.283 0-.424-.141-.142-.283-.142-.424 0-.142.141-.142.283 0 .424zm31.678-31.679c-.071-.07-.283-.141-.424 0-.071.071-.142.283 0 .425.141.141.283.141.424 0 .071-.212.071-.354 0-.425zm-4.808 4.809c.071.07.283.141.424 0 .071-.07.142-.283 0-.424-.141-.142-.283-.142-.424 0-.142.141-.142.282 0 .424zm-4.101 4.101c-.071-.07-.283-.141-.425 0-.141.141-.141.283 0 .424.142.142.283.142.425 0 .141-.141.07-.353 0-.424zM18.526 104.019c-.07.071-.141.283 0 .425.071.07.283.141.425 0 .07-.071.14-.283 0-.425-.142-.141-.354-.07-.425 0zm27.507 1.061c.07.07.282.141.424 0 .07-.071.141-.283 0-.425-.142-.141-.283-.141-.424.001-.142.141-.142.282 0 .424zm-4.455 4.455c.07.071.283.141.424 0 .07-.071.142-.283 0-.424-.141-.142-.283-.142-.424 0-.142.141-.142.282 0 .424zm-4.172 4.454c.07-.07.141-.282 0-.424-.142-.141-.283-.141-.424 0-.071.071-.142.283 0 .424.141.142.353.071.424 0zm26.446-45.255c.07-.07.141-.282 0-.424-.07-.07-.283-.141-.424 0-.071.071-.142.283 0 .424.14.142.282.142.424 0zM50.417 82.17c.07-.071.141-.283 0-.425-.071-.07-.283-.141-.425 0-.07.071-.141.283 0 .425.142.141.283.141.425 0zm-26.87 71.7a1.324 1.324 0 000 1.839 1.324 1.324 0 001.838 0 1.324 1.324 0 000-1.839c-.495-.495-1.273-.565-1.838 0zm-4.667-4.667a1.324 1.324 0 000 1.839 1.324 1.324 0 001.838 0 1.324 1.324 0 000-1.839c-.495-.495-1.273-.565-1.838 0zm4.95 13.86a1.323 1.323 0 000 1.838 1.324 1.324 0 001.838 0 1.323 1.323 0 000-1.838 1.324 1.324 0 00-1.838 0zm-2.617 4.454a1.324 1.324 0 00-1.838 0 1.324 1.324 0 000 1.839 1.324 1.324 0 001.838 0 1.324 1.324 0 000-1.839zm-9.263-.212a1.324 1.324 0 00-1.838 0 1.324 1.324 0 000 1.839 1.324 1.324 0 001.838 0c.566-.566.566-1.273 0-1.839zm13.294-20.788a1.324 1.324 0 000-1.839 1.324 1.324 0 00-1.839 0 1.325 1.325 0 000 1.839 1.326 1.326 0 001.839 0zm-4.738-4.738a1.324 1.324 0 000-1.839 1.324 1.324 0 00-1.838 0 1.324 1.324 0 000 1.839 1.324 1.324 0 001.838 0zm-4.666-4.667a1.325 1.325 0 000-1.839 1.324 1.324 0 00-1.84 0 1.324 1.324 0 000 1.839 1.324 1.324 0 001.84 0zm-4.738-4.738a1.323 1.323 0 000-1.838 1.324 1.324 0 00-1.839 0 1.323 1.323 0 000 1.838 1.324 1.324 0 001.839 0zm2.828 11.88c-.636.636-.636 1.768 0 2.404a1.686 1.686 0 002.404 0c.637-.636.637-1.768 0-2.404-.707-.707-1.697-.707-2.404 0zm-2.333-2.334c.636-.636.636-1.768 0-2.404-.637-.636-1.768-.636-2.405 0-.636.636-.636 1.768 0 2.404.708.566 1.768.637 2.405 0zm9.616 18.527c.637-.637.637-1.768 0-2.405-.636-.636-1.768-.636-2.404 0-.636.637-.636 1.768 0 2.405a1.686 1.686 0 002.404 0zm-4.667-4.667c.637-.637.637-1.768 0-2.405-.636-.636-1.767-.636-2.404 0-.636.637-.636 1.768 0 2.405.637.636 1.768.636 2.404 0zm-2.121 6.788c-.636.636-.636 1.768 0 2.404.636.636 1.768.636 2.404 0 .636-.636.636-1.768 0-2.404a1.685 1.685 0 00-2.404 0zm-5.233-14.143c-.777.778-.848 2.122 0 2.97.778.778 2.122.849 2.97 0 .778-.778.849-2.121 0-2.97-.848-.848-2.121-.848-2.97 0zm3.112 12.022c.777-.778.848-2.122 0-2.97-.778-.778-2.122-.849-2.97 0-.778.777-.849 2.121 0 2.969.848.849 2.121.849 2.97.001zm29.627-68.802a.896.896 0 000-1.273.896.896 0 00-1.272 0 .896.896 0 000 1.273.896.896 0 001.272 0zm-4.737-4.738a.896.896 0 000-1.273.896.896 0 00-1.273 0 .896.896 0 000 1.273.896.896 0 001.273 0zm-.99 7.92a.896.896 0 000 1.273.896.896 0 001.273 0 .896.896 0 000-1.273.896.896 0 00-1.273 0zm-4.738-4.737a.896.896 0 000 1.272.896.896 0 001.273 0 .896.896 0 000-1.272.896.896 0 00-1.273 0zM26.8 85.422a.896.896 0 000 1.273.896.896 0 001.272 0 .896.896 0 000-1.272.896.896 0 00-1.273 0zm-4.738-4.737a.896.896 0 000 1.272.896.896 0 001.272 0 .896.896 0 000-1.272.896.896 0 00-1.272 0zm.283 9.192a.896.896 0 000 1.273.896.896 0 001.272 0 .896.896 0 000-1.273.896.896 0 00-1.272 0zm-4.738-4.737a.896.896 0 000 1.272.896.896 0 001.273 0 .896.896 0 000-1.273.896.896 0 00-1.273 0zm-3.253 5.798a.896.896 0 000-1.273.896.896 0 00-1.272 0 .896.896 0 000 1.273.896.896 0 001.272 0zM9.617 86.2a.896.896 0 000-1.273.896.896 0 00-1.273 0 .896.896 0 000 1.273.896.896 0 001.273 0zm45.325-26.375a.896.896 0 000-1.273.896.896 0 00-1.273 0 .896.896 0 000 1.273.896.896 0 001.273 0zm-4.525 4.525a.896.896 0 000-1.272.896.896 0 00-1.273 0 .896.896 0 000 1.273.896.896 0 001.273 0zm-4.737-4.737a.896.896 0 000-1.273.896.896 0 00-1.274 0 .896.896 0 000 1.273.896.896 0 001.273 0zm.282 9.192a.896.896 0 000-1.273.896.896 0 00-1.273 0 .896.896 0 000 1.273.896.896 0 001.273 0zm-4.738-4.737a.896.896 0 000-1.273.896.896 0 00-1.272 0 .896.896 0 000 1.273.896.896 0 001.272 0zm.283 7.919a.896.896 0 00-1.273 0 .896.896 0 000 1.273.896.896 0 001.273 0 .896.896 0 000-1.273zm.213 9.122a.896.896 0 00-1.273 0 .896.896 0 000 1.273.896.896 0 001.272 0c.283-.283.354-.92 0-1.273zm76.296-65.549a.895.895 0 000-1.273.896.896 0 00-1.273 0 .897.897 0 000 1.273.897.897 0 001.273 0zm-4.738-4.737a.896.896 0 000-1.273.895.895 0 00-1.272 0 .895.895 0 000 1.273.895.895 0 001.272 0zm-4.454 4.454a.897.897 0 000-1.272.896.896 0 00-1.273 0 .895.895 0 000 1.272.896.896 0 001.273 0zm-58.619 39.81a.896.896 0 000-1.272.896.896 0 00-1.273 0 .896.896 0 000 1.272.896.896 0 001.273 0zm35.213-9.475a.896.896 0 000 1.273.896.896 0 001.273 0 .896.896 0 000-1.273.896.896 0 00-1.273 0zm-4.738-4.737a.896.896 0 000 1.273.896.896 0 001.274 0 .896.896 0 000-1.273.896.896 0 00-1.273 0zm1.557 10.465a.896.896 0 000-1.273.896.896 0 00-1.273 0 .896.896 0 000 1.273.896.896 0 001.273 0zm-4.738-4.738a.896.896 0 000-1.273.896.896 0 00-1.273 0 .896.896 0 000 1.273.896.896 0 001.273 0zm-5.728 3.182a.896.896 0 000 1.273.896.896 0 001.273 0 .896.896 0 000-1.273.896.896 0 00-1.273 0zm-4.666-4.667a.896.896 0 000 1.273.896.896 0 001.272 0 .896.896 0 000-1.273.896.896 0 00-1.272 0zm.141 9.193a.896.896 0 000 1.273.896.896 0 001.273 0 .896.896 0 000-1.273.896.896 0 00-1.273 0zm-4.667-4.667a.896.896 0 000 1.273.896.896 0 001.273 0 .896.896 0 000-1.273.896.896 0 00-1.273 0zm-3.182 4.454a.896.896 0 00-1.273 0 .896.896 0 000 1.273.896.896 0 001.273 0 .896.896 0 000-1.273zm48.437-30.9a.895.895 0 000 1.273.896.896 0 001.273 0 .897.897 0 000-1.273.897.897 0 00-1.273 0zm-4.455 4.454a.895.895 0 000 1.273.896.896 0 001.273 0 .897.897 0 000-1.273.897.897 0 00-1.273 0zm-4.525 4.526a.896.896 0 000 1.273.896.896 0 001.272 0 .895.895 0 000-1.273.896.896 0 00-1.272 0zm-3.183 4.455a.896.896 0 00-1.272 0 .896.896 0 000 1.273.896.896 0 001.272 0 .896.896 0 000-1.273zm-5.727 4.455a.896.896 0 000 1.272.896.896 0 001.273 0 .896.896 0 000-1.272.896.896 0 00-1.273 0zm23.617-21.072a.895.895 0 000-1.273.895.895 0 00-1.272 0 .895.895 0 000 1.273.895.895 0 001.272 0zm-82.59 60.67a1.324 1.324 0 000 1.838 1.324 1.324 0 001.839 0 1.324 1.324 0 000-1.838c-.566-.566-1.344-.495-1.839 0zm-4.737-4.738a1.324 1.324 0 000 1.839 1.324 1.324 0 001.838 0 1.324 1.324 0 000-1.839 1.324 1.324 0 00-1.838 0zm-7.354-.283a1.324 1.324 0 00-1.839 0 1.324 1.324 0 000 1.839 1.324 1.324 0 001.839 0c.495-.495.566-1.273 0-1.839zm-4.455 6.293a1.324 1.324 0 000-1.838 1.324 1.324 0 00-1.839 0 1.324 1.324 0 000 1.838c.566.566 1.273.566 1.839 0zM9.758 77.29a1.324 1.324 0 000-1.838 1.324 1.324 0 00-1.838 0 1.324 1.324 0 000 1.838c.495.495 1.272.566 1.838 0zm29.699-23.9a1.324 1.324 0 000 1.839 1.324 1.324 0 001.838 0 1.324 1.324 0 000-1.839c-.566-.565-1.273-.565-1.838 0zm-4.455 4.455a1.324 1.324 0 000 1.839 1.324 1.324 0 001.838 0 1.324 1.324 0 000-1.839c-.565-.566-1.343-.495-1.838 0zm-4.738-4.737a1.324 1.324 0 000 1.838 1.324 1.324 0 001.839 0 1.324 1.324 0 000-1.838 1.324 1.324 0 00-1.839 0zm4.95 13.859a1.324 1.324 0 000 1.839 1.324 1.324 0 001.838 0 1.324 1.324 0 000-1.839 1.324 1.324 0 00-1.838 0zM30.547 62.3a1.324 1.324 0 000 1.839 1.324 1.324 0 001.838 0 1.324 1.324 0 000-1.839c-.565-.566-1.343-.495-1.838 0zm-4.737-4.738a1.324 1.324 0 000 1.839 1.324 1.324 0 001.838 0 1.324 1.324 0 000-1.839 1.324 1.324 0 00-1.839 0zm9.687 18.598a1.324 1.324 0 000 1.838 1.324 1.324 0 001.838 0 1.324 1.324 0 000-1.839c-.636-.495-1.343-.495-1.838 0zm-4.737-4.738a1.324 1.324 0 000 1.838 1.324 1.324 0 001.838 0 1.324 1.324 0 000-1.838c-.566-.425-1.344-.495-1.839 0zm71.841-62.367a1.324 1.324 0 000 1.838 1.324 1.324 0 001.839 0 1.324 1.324 0 000-1.838c-.566-.566-1.344-.495-1.839 0zm-58.619 39.81a1.324 1.324 0 000 1.838 1.324 1.324 0 001.839 0 1.324 1.324 0 000-1.838c-.566-.566-1.344-.495-1.839 0zm-9.263-.212a1.324 1.324 0 000 1.838 1.324 1.324 0 001.838 0 1.324 1.324 0 000-1.838c-.495-.495-1.272-.566-1.838 0zM77.57 35.925a1.324 1.324 0 00-1.839 0 1.324 1.324 0 000 1.839 1.324 1.324 0 001.839 0c.424-.566.495-1.344 0-1.839zm-6.294 4.455a1.324 1.324 0 000 1.838 1.324 1.324 0 001.839 0 1.324 1.324 0 000-1.838c-.566-.566-1.344-.495-1.839 0zm-7.354-.283a1.324 1.324 0 00-1.838 0 1.324 1.324 0 000 1.838 1.324 1.324 0 001.838 0 1.324 1.324 0 000-1.838zm-4.525 6.363a1.324 1.324 0 000-1.838 1.324 1.324 0 00-1.839 0 1.324 1.324 0 000 1.839 1.324 1.324 0 001.839 0zm-4.737-4.737a1.324 1.324 0 000-1.838 1.324 1.324 0 00-1.84 0 1.324 1.324 0 000 1.838c.567.566 1.344.495 1.84 0zm-1.556 7.354a1.324 1.324 0 000 1.838 1.324 1.324 0 001.838 0 1.324 1.324 0 000-1.838 1.324 1.324 0 00-1.838 0zm-4.667-4.667a1.324 1.324 0 000 1.838 1.324 1.324 0 001.838 0 1.324 1.324 0 000-1.838c-.565-.566-1.343-.495-1.838 0zm54.376-26.233a1.324 1.324 0 000 1.838 1.324 1.324 0 001.839 0 1.324 1.324 0 000-1.838 1.324 1.324 0 00-1.839 0zm-4.667-4.667a1.324 1.324 0 000 1.838 1.324 1.324 0 001.839 0 1.323 1.323 0 000-1.838c-.566-.566-1.344-.495-1.839 0zm.213 9.121a1.324 1.324 0 000 1.839 1.324 1.324 0 001.838 0 1.324 1.324 0 000-1.839c-.566-.424-1.343-.495-1.838 0zm-4.526 4.526a1.324 1.324 0 000 1.838 1.324 1.324 0 001.839 0 1.324 1.324 0 000-1.838 1.324 1.324 0 00-1.839 0zm-4.455 4.455a1.324 1.324 0 000 1.838 1.324 1.324 0 001.839 0 1.324 1.324 0 000-1.838 1.324 1.324 0 00-1.839 0zm-2.616 6.293a1.324 1.324 0 000-1.839 1.324 1.324 0 00-1.838 0 1.324 1.324 0 000 1.839c.494.495 1.272.565 1.838 0zm-4.738-4.738a1.324 1.324 0 000-1.838 1.324 1.324 0 00-1.838 0 1.324 1.324 0 000 1.838c.566.566 1.273.566 1.838 0zm-60.74 37.831c-.636.636-.636 1.767 0 2.404.636.636 1.768.636 2.404 0 .637-.637.636-1.768 0-2.404a1.686 1.686 0 00-2.404 0zm-9.193-.283c-.636.636-.636 1.767 0 2.404.637.636 1.768.636 2.405 0 .636-.636.636-1.768 0-2.404-.637-.637-1.768-.637-2.405 0zm16.052-1.91c.636-.636.636-1.767 0-2.404-.637-.636-1.768-.636-2.404 0-.637.637-.637 1.768 0 2.404.707.708 1.697.708 2.404 0zm-4.667-4.667c.636-.636.636-1.767 0-2.404-.636-.636-1.768-.636-2.404 0-.637.637-.637 1.768 0 2.404a1.686 1.686 0 002.404 0zm17.89-17.889c.636-.637.636-1.768 0-2.404-.637-.637-1.768-.637-2.404 0-.637.636-.637 1.767 0 2.404a1.686 1.686 0 002.404 0zM70.71 30.904c-.636.637-.636 1.768 0 2.404.637.637 1.768.637 2.405 0 .636-.636.636-1.767 0-2.404a1.686 1.686 0 00-2.404 0zm-4.666-4.666c-.637.636-.637 1.768 0 2.404.636.636 1.767.636 2.404 0 .636-.636.636-1.768 0-2.404-.707-.707-1.697-.707-2.404 0zm2.616 11.526c.636-.637.636-1.768 0-2.405-.636-.636-1.768-.636-2.404 0-.636.637-.636 1.768 0 2.404.636.637 1.768.637 2.404 0zm-4.738-4.738c.637-.637.637-1.768 0-2.405-.636-.636-1.767-.636-2.404 0-.636.637-.636 1.768 0 2.405a1.686 1.686 0 002.404 0zm-6.788 2.121c-.636.636-.636 1.768 0 2.404.637.636 1.768.636 2.404 0 .637-.636.637-1.768 0-2.404-.777-.636-1.767-.636-2.404 0zm-4.737-4.737c-.637.636-.637 1.767 0 2.404.636.636 1.767.636 2.404 0 .636-.637.636-1.768 0-2.404-.707-.566-1.768-.637-2.404 0zm-4.526 4.525c-.636.636-.636 1.768 0 2.404.636.637 1.768.637 2.404 0 .637-.636.637-1.768 0-2.404a1.685 1.685 0 00-2.404 0zm-2.051 6.859c.637-.637.637-1.768 0-2.404-.636-.637-1.767-.637-2.404 0-.636.636-.636 1.767 0 2.404.637.636 1.768.636 2.405 0zM93.126 8.49c-.636.636-.636 1.767 0 2.403.636.637 1.768.637 2.404 0 .636-.636.636-1.767 0-2.404-.636-.636-1.768-.636-2.404 0zm.283 9.192c-.637.636-.637 1.767 0 2.404.636.636 1.767.636 2.404 0 .636-.637.636-1.768 0-2.404-.778-.637-1.768-.637-2.404 0zm-4.738-4.738c-.636.636-.636 1.768 0 2.404.637.636 1.768.636 2.404 0 .637-.636.637-1.768 0-2.404-.707-.566-1.767-.637-2.404 0zm.212 9.263c-.636.636-.636 1.768 0 2.404.637.636 1.768.636 2.404 0 .637-.636.637-1.768 0-2.404a1.685 1.685 0 00-2.404 0zm-4.455 4.455c-.636.636-.636 1.768 0 2.404.637.637 1.768.637 2.405 0 .636-.636.636-1.768 0-2.404a1.686 1.686 0 00-2.404 0zm-4.737-4.738c-.636.637-.636 1.768 0 2.404a1.686 1.686 0 002.404 0c.637-.636.637-1.767 0-2.404-.636-.636-1.768-.636-2.404 0zm-4.455 4.455c-.636.636-.636 1.768 0 2.404.637.636 1.768.636 2.404 0 .637-.636.637-1.768 0-2.404-.707-.566-1.767-.637-2.404 0zM16.264 65.977c-.778.778-.849 2.121 0 2.97.777.778 2.12.849 2.97 0 .777-.778.848-2.121 0-2.97-.85-.848-2.122-.848-2.97 0zm44.759-44.76c-.777.778-.848 2.121 0 2.97.778.777 2.122.848 2.97 0 .778-.778.849-2.122 0-2.97-.848-.849-2.121-.849-2.97 0zm-4.454 4.455c-.778.778-.849 2.121 0 2.97.777.778 2.12.848 2.97 0 .777-.778.848-2.122 0-2.97-.85-.849-2.193-.778-2.97 0zM83.722 7.994c-.778.778-.849 2.122 0 2.97.777.778 2.12.849 2.97 0 .777-.778.848-2.121 0-2.97-.92-.778-2.193-.778-2.97 0zm.141 9.193c-.778.777-.849 2.12 0 2.97.778.777 2.121.848 2.97 0 .778-.778.848-2.122 0-2.97-.778-.778-2.122-.849-2.97 0zm-4.667-4.667c-.778.777-.849 2.12 0 2.97.778.777 2.121.848 2.97 0 .778-.778.848-2.122 0-2.97-.849-.849-2.121-.849-2.97 0zm-4.455 4.455c-.778.777-.848 2.121 0 2.97.778.777 2.121.848 2.97 0 .778-.778.849-2.122 0-2.97-.849-.849-2.192-.778-2.97 0zm-4.737-4.738c-.778.778-.849 2.121 0 2.97.777.777 2.12.848 2.97 0 .777-.778.848-2.122 0-2.97-.85-.849-2.193-.778-2.97 0zm.282 9.193c-.777.777-.848 2.12 0 2.97.778.777 2.122.848 2.97 0 .778-.779.849-2.122 0-2.97-.919-.779-2.192-.779-2.97 0zm-4.737-4.738c-.778.777-.849 2.12 0 2.97.778.777 2.121.848 2.97 0 .777-.778.848-2.122 0-2.97-.92-.778-2.192-.778-2.97 0zM74.175 7.5c-.99.99-.99 2.545 0 3.535.99.99 2.546.99 3.536 0 .99-.99.99-2.546 0-3.536a2.476 2.476 0 00-3.535 0zM14.354 99.847c.212-.212.212-.495 0-.707-.212-.212-.495-.212-.707 0-.212.212-.212.495 0 .707.142.142.495.212.707 0zm31.254-4.525c-.212.212-.212.495 0 .707.213.212.495.212.708 0 .212-.212.212-.495 0-.707-.213-.212-.495-.212-.708 0zm-3.748 4.454c-.211-.212-.494-.212-.706 0-.213.213-.213.495 0 .708.212.212.495.212.707 0 .212-.213.212-.495 0-.708zm-4.454 5.163c.212-.213.212-.495 0-.708-.212-.212-.495-.212-.707 0-.212.213-.212.495 0 .708.141.282.495.212.707 0zm-4.666-4.667c.211-.213.211-.495 0-.708-.213-.212-.496-.212-.708 0-.212.213-.212.495 0 .708.07.212.495.212.707 0zm-4.739-4.738c.212-.212.212-.495 0-.707-.212-.212-.495-.212-.707 0-.212.212-.212.495 0 .707.142.283.495.212.707 0zm-4.525 4.526c.212-.212.212-.495 0-.707-.212-.213-.495-.213-.707 0-.212.212-.212.495 0 .707.212.212.495.212.707 0zm-4.667-4.667c.212-.212.212-.495 0-.707-.212-.213-.495-.213-.707 0-.212.212-.212.495 0 .707.141.141.495.212.707 0zM58.62 63.502c-.213.212-.213.495 0 .707.211.212.494.212.706 0 .212-.212.212-.495 0-.707-.212-.212-.495-.212-.707 0zm-4.526 4.526c-.212.212-.212.495 0 .707.212.212.495.212.707 0 .212-.212.212-.495 0-.707-.142-.283-.495-.213-.707 0zm-3.748 4.455c-.212-.213-.495-.213-.707 0-.212.212-.212.494 0 .707.212.212.495.212.707 0 .212-.213.212-.495 0-.707zm-5.162 4.454c-.212.212-.212.495 0 .707.212.212.495.212.707 0 .212-.212.212-.495 0-.707-.212-.212-.495-.212-.707 0zm4.95 13.859c-.212.213-.212.495 0 .707.212.213.495.213.707 0 .212-.212.212-.494 0-.707-.212-.212-.566-.141-.707 0zm-4.738-4.737c-.212.212-.212.495 0 .707.212.212.495.212.707 0 .212-.212.212-.495 0-.707-.141-.142-.565-.142-.707 0zm80.823-71.348c-.213.213-.213.495 0 .708.212.212.495.212.707 0 .212-.213.212-.495 0-.708-.212-.212-.495-.212-.707 0zm-4.738-4.737c-.212.212-.212.495 0 .707.212.212.495.212.707 0 .212-.212.212-.495 0-.707-.141-.141-.495-.212-.707 0zM91.075 50.562c-.212-.212-.495-.212-.707 0-.212.212-.212.495 0 .707.212.212.495.212.707 0 .212-.212.212-.495 0-.707zm-5.162 4.455c-.212.212-.212.495 0 .707.213.212.496.212.708 0 .212-.212.212-.495 0-.707-.212-.213-.495-.213-.707 0zm-3.747 5.162c.212-.212.212-.495 0-.707-.212-.212-.495-.212-.707 0-.212.212-.212.495 0 .707.212.212.495.212.707 0zm-4.526 4.525c.212-.212.212-.495 0-.707-.212-.212-.495-.212-.707 0-.212.212-.212.495 0 .707.212.212.495.212.707 0zm-.141-9.192c.212-.212.212-.495 0-.707-.212-.212-.495-.212-.707 0-.212.212-.212.495 0 .707.141.141.495.212.707 0zm-4.526 4.525c.213-.212.213-.495 0-.707-.212-.212-.495-.212-.707 0-.212.212-.212.495 0 .707.142.142.495.212.707 0zm-5.233 3.677c-.211.212-.211.495 0 .707.213.213.496.213.708 0 .212-.212.212-.495 0-.707-.141-.141-.495-.212-.707 0zm-4.666-4.667c-.212.213-.212.495 0 .708.212.212.495.212.707 0 .212-.213.212-.495 0-.708-.212-.212-.495-.212-.707 0zm50.417-30.901c-.212-.212-.495-.212-.707 0-.213.213-.213.495 0 .708.212.212.495.212.707 0 .212-.212.212-.495 0-.707zm-4.455 4.456c-.212-.212-.495-.212-.707 0-.212.212-.212.495 0 .707.212.212.495.212.707 0 .141-.142.212-.495 0-.707zm-4.526 4.525c-.212-.212-.495-.212-.707 0-.212.212-.212.495 0 .707.212.212.495.212.707 0 .213-.212.213-.495 0-.707zm-4.454 4.455c-.213-.213-.495-.213-.707 0-.213.212-.213.495 0 .707.212.212.494.212.707 0 .212-.212.212-.495 0-.707zM95.6 46.037c-.211-.212-.494-.212-.706 0-.212.212-.212.495 0 .707.212.212.495.212.707 0 .141-.142.212-.495 0-.707zm26.871-26.871c-.212-.212-.495-.212-.707 0-.212.213-.212.495 0 .708.212.212.495.212.707 0 .141-.142.212-.495 0-.707zm-5.233 4.526c-.212.212-.212.495 0 .707.212.212.495.212.707 0 .213-.212.213-.495 0-.707-.212-.212-.495-.212-.707 0zm-98.5 89.449c-.07.071-.141.283 0 .424.071.071.283.142.425 0 .07-.071.141-.283 0-.424-.212-.071-.354-.071-.425 0zM9.546 113c-.07.07-.142.283 0 .424.07.071.283.141.424 0 .07-.071.142-.283 0-.424-.141-.142-.283-.142-.424 0zm38.113 56.356c.07.071.283.142.424 0 .07-.071.142-.283 0-.424-.07-.071-.283-.142-.424 0-.142.141-.142.283 0 .424zm-10.324-46.528c-.07.071-.141.283 0 .425.071.07.283.141.425 0 .07-.071.14-.283 0-.425-.142-.141-.354-.07-.425 0zm-4.737-4.737c-.071.07-.142.282 0 .424.141.141.282.141.424 0 .07-.071.141-.283 0-.424-.142-.142-.354-.071-.424 0zm-4.668-4.667c-.07.07-.14.282 0 .424.071.071.284.141.425 0 .07-.071.141-.283 0-.424-.142-.142-.354-.071-.424 0zm-4.737-4.738c-.07.071-.141.283 0 .425.07.07.283.141.424 0 .071-.071.142-.283 0-.425-.141-.141-.353-.07-.424 0zm23.759 32.669c-.07.07-.142.283 0 .424.07.071.283.141.424 0 .07-.071.142-.283 0-.424-.141 0-.353-.071-.424 0zm-4.667-4.667c-.07.07-.141.283 0 .424.07.071.283.141.424 0 .07-.071.142-.283 0-.424-.212-.071-.353-.071-.424 0zm-4.738-4.738c-.07.071-.141.283 0 .424.071.071.283.142.425 0 .07-.071.141-.283 0-.424-.212-.071-.354-.071-.425 0zm-4.667-4.667c-.07.071-.141.283 0 .424.071.071.283.142.425 0 .07-.071.141-.283 0-.424-.212-.071-.354-.071-.425 0zm-18.809-18.809c-.07.071-.141.283 0 .424.071.071.283.142.425 0 .07-.071.141-.283 0-.424-.212-.071-.354-.071-.425 0zm42.851 51.902c.07-.071.142-.283 0-.425-.07-.07-.283-.141-.424 0-.07.071-.142.283 0 .425.212.07.353.07.424 0zm-4.667-4.667c.07-.071.142-.283 0-.425-.07-.07-.283-.141-.424 0-.07.071-.142.283 0 .425.141 0 .353.07.424 0zm-5.091-5.092c-.07.071-.141.283 0 .425.07.07.283.141.424 0 .071-.071.142-.283 0-.425-.141-.141-.283-.141-.424 0zm5.374 13.86c-.07-.071-.283-.142-.424 0-.07.071-.142.283 0 .424.07.071.283.141.424 0 0-.141.07-.354 0-.424zm-19.799-55.155c.07-.07.141-.282 0-.424-.07-.071-.283-.141-.424 0-.071.071-.142.283 0 .424.212.071.353.071.424 0zm-4.667-5.091c-.07-.071-.283-.141-.424 0-.07.071-.142.283 0 .424.07.071.283.142.424 0 .07-.212.07-.353 0-.424zm22.84-4.03c-.071-.071-.283-.142-.425 0-.07.071-.141.283 0 .424.142.142.283.142.425 0 .07-.212.07-.353 0-.424zM68.59 73.472c.07-.07.14-.282 0-.424-.071-.07-.284-.141-.425 0-.07.07-.141.283 0 .424.141.142.283.142.424 0zm-4.526 4.526c.07-.071.141-.283 0-.425-.07-.07-.283-.141-.424 0-.071.071-.142.283 0 .425.212.07.353.07.424 0zm-4.738-4.738c.071-.07.142-.283 0-.424-.07-.071-.283-.142-.424 0-.07.07-.141.282 0 .424.212.07.353.07.424 0zm-4.737 4.455c.07.07.282.141.424 0 .07-.07.141-.283 0-.424-.07-.071-.283-.142-.424 0-.142.141-.142.283 0 .424zm.565 9.192c.071-.07.142-.282 0-.424-.07-.07-.283-.141-.424 0-.07.07-.141.283 0 .424.142.142.283.142.424 0zm.212 8.839c-.07-.07-.282-.141-.424 0-.07.071-.141.283 0 .425.142.141.283.141.424 0 .071-.213.071-.354 0-.425zm119.148-5.869c.071-.07.141-.283 0-.424-.071-.07-.283-.142-.424 0-.071.07-.142.283 0 .424.141.142.282.142.424 0zm-4.738-4.737c.071-.071.142-.284 0-.425-.07-.07-.282-.141-.424 0-.071.07-.141.283 0 .424.141.142.283.142.424 0zm-4.667-4.667c.071-.07.142-.283 0-.424-.07-.071-.282-.142-.424 0-.07.07-.141.282 0 .424.142.141.283.141.424 0zm-4.737-4.738c.071-.07.141-.283 0-.424-.071-.07-.283-.142-.424 0-.071.07-.142.283 0 .424.141.141.282.141.424 0zm14.354 23.264c.071-.071.141-.283 0-.425-.071-.07-.283-.141-.424 0-.071.071-.142.283 0 .425.141.141.283.141.424 0zm-70.074-34.154c-.071.071-.142.283 0 .425.071.07.283.141.424 0 .071-.071.141-.283 0-.425-.141-.141-.283-.141-.424 0zm-4.667-4.667c-.07.071-.141.283 0 .425.071.07.283.141.424 0 .071-.071.142-.283 0-.425-.141-.141-.283-.141-.424 0zm-8.768-.282c-.07-.071-.283-.142-.424 0-.071.07-.142.283 0 .424.14.141.282.141.424 0 0-.141.07-.354 0-.424zm-4.879 4.879c.07.07.283.141.424 0 .07-.07.141-.283 0-.424-.141-.142-.283-.142-.424 0-.142.141-.142.283 0 .424zm-4.455 4.455c.07.07.283.141.424 0 .07-.071.142-.283 0-.425-.141-.141-.283-.141-.424 0-.141.142-.141.283 0 .425zm-8.839-.637c-.07-.07-.283-.141-.424 0-.07.07-.142.283 0 .424.07.071.283.142.424 0 .07-.07.142-.283 0-.424zm73.469 1.91c-.071-.071-.283-.142-.425 0-.07.07-.141.282 0 .424.071.07.283.141.425 0 .07-.212.07-.354 0-.424zm-9.617-.283c-.071.07-.142.282 0 .424.071.07.283.141.424 0 .071-.071.142-.283 0-.425-.071-.07-.283-.141-.424 0zm-4.667-4.668c-.071.071-.141.283 0 .425.071.07.283.141.424 0 .071-.071.142-.283 0-.425-.141-.14-.283-.141-.424 0zm-9.192.142c.07.07.282.141.424 0 .071-.07.141-.283 0-.424-.071-.071-.283-.142-.424 0-.142.141-.071.353 0 .424zm-9.122-.636c-.071.07-.141.283 0 .424.071.07.283.142.424 0 .071-.07.142-.283 0-.424-.212-.07-.353-.07-.424 0zm-4.738-4.738c-.07.07-.141.283 0 .424.071.071.283.142.425 0 .07-.07.141-.282 0-.424-.213-.07-.354-.07-.425 0zm46.528 10.748c.071-.07.141-.283 0-.424-.071-.07-.283-.142-.424 0-.071.07-.142.283 0 .424.141.142.283.142.424 0zM56.71 142.203c.212-.212.212-.495 0-.707-.212-.212-.495-.212-.707 0-.212.212-.212.495 0 .707.141.142.495.212.707 0zm-1.697-36.769c.212.212.495.212.707 0 .212-.212.212-.495 0-.707-.212-.213-.495-.213-.707 0-.212.212-.212.495 0 .707zm-3.748 4.454c.212-.212.212-.495 0-.707-.212-.212-.495-.212-.707 0-.212.212-.212.495 0 .707.212.212.495.212.707 0zm-4.455 4.455c.213-.212.213-.495 0-.707-.212-.212-.495-.212-.707 0-.212.212-.212.495 0 .707.142.283.495.212.707 0zm5.162 23.122c.212-.212.212-.495 0-.707-.212-.212-.495-.212-.707 0-.212.212-.212.495 0 .707.212.213.495.213.707 0zm-4.666-4.667c.212-.212.212-.495 0-.707-.213-.212-.495-.212-.708 0-.212.212-.212.495 0 .707.142.142.495.213.708 0zm-4.738-4.737c.212-.212.212-.495 0-.707-.212-.212-.495-.212-.707 0-.212.212-.212.495 0 .707.212.212.495.212.707 0zm19.092 28.001c.212-.212.212-.495 0-.707-.212-.212-.495-.212-.707 0-.213.212-.213.495 0 .707.07.212.495.212.707 0zm27.718 9.9c.213-.212.213-.495 0-.707-.212-.212-.495-.212-.707 0-.212.212-.212.495 0 .707.212.212.495.212.707 0zm-9.899-.99c-.212.212-.212.495 0 .707.212.212.495.212.707 0 .212-.212.212-.495 0-.707-.212-.212-.495-.212-.707 0zm-8.415.495c.212-.212.212-.495 0-.707-.212-.212-.495-.212-.707 0-.212.212-.212.495 0 .707.142.283.495.212.707 0zm-9.263-.212c.212-.213.212-.495 0-.708-.212-.212-.495-.212-.707 0-.212.213-.212.495 0 .708.212.212.495.212.707 0zm22.415 4.455c-.212.212-.212.494 0 .707.213.212.495.212.708 0 .212-.213.212-.495 0-.707-.213-.213-.496-.213-.708 0zm-8.485.424c.212-.212.212-.495 0-.707-.212-.212-.495-.212-.707 0-.212.212-.212.495 0 .707.141.283.495.212.707 0zm-9.192-.142c.212-.212.212-.495 0-.707-.212-.212-.495-.212-.707 0-.212.212-.212.495 0 .707.212.212.495.212.707 0zm-9.899-.99c-.213.213-.213.495 0 .708.211.212.494.212.706 0 .213-.213.213-.495 0-.708-.212-.212-.495-.212-.707 0zm50.628 5.799c-.212.212-.212.495 0 .707.212.212.495.212.707 0 .212-.212.212-.495 0-.707-.141-.142-.565-.142-.707 0zm-4.667-4.667c-.212.212-.212.495 0 .707.212.212.495.212.707 0 .212-.212.212-.495 0-.707-.212-.212-.565-.142-.707 0zm-9.263-.213c-.212.213-.212.495 0 .708.212.212.495.212.707 0 .212-.213.212-.495 0-.708-.212-.212-.495-.212-.707 0zm-36.416-18.596c.212-.212.212-.495 0-.707-.212-.212-.495-.212-.707 0-.212.212-.212.495 0 .707.141.283.495.212.707 0zm-4.667-4.667c.212-.212.212-.495 0-.707-.212-.212-.495-.212-.707 0-.212.212-.212.495 0 .707.07.212.495.212.707 0zm-10.677-27.79c.212.212.495.212.707 0 .212-.212.212-.495 0-.707-.212-.212-.495-.212-.707 0-.212.212-.212.495 0 .707zm24.749 41.861c.212-.212.212-.495 0-.707-.213-.212-.495-.212-.707 0-.213.212-.213.495 0 .707.14.283.494.212.707 0zm6.434-82.378c.212.212.495.212.707 0 .213-.212.213-.495 0-.707-.212-.212-.495-.212-.707 0-.212.212-.212.495 0 .707zm-4.525 4.526c.212.212.495.212.707 0 .212-.213.212-.495 0-.707-.212-.213-.495-.213-.707 0-.142.14-.212.494 0 .707zm-8.486-.283c.213-.212.213-.495 0-.707-.212-.212-.494-.212-.707 0-.212.212-.212.495 0 .707.213.212.495.212.708 0zm-.424 9.192c.212.212.495.212.707 0 .212-.212.212-.495 0-.707-.212-.212-.495-.212-.707 0-.212.212-.212.495 0 .707zm.142 9.193c.212.212.495.212.707 0 .212-.213.212-.495 0-.707-.212-.213-.495-.213-.707 0-.142.141-.212.494 0 .707zm110.025-7.213c-.212.212-.212.495 0 .707.213.212.495.212.708 0 .212-.212.212-.495 0-.707-.213-.212-.566-.141-.708 0zm-4.666-4.666c-.213.211-.213.494 0 .706.212.212.495.212.707 0 .212-.212.212-.495 0-.707-.212-.212-.566-.141-.707 0zm-4.738-4.738c-.212.212-.212.495 0 .707.212.212.495.212.707 0 .212-.212.212-.495 0-.707-.212-.212-.566-.142-.707 0zm-4.667-4.667c-.212.212-.212.495 0 .707.212.212.495.212.707 0 .212-.212.212-.495 0-.707-.212-.212-.565-.142-.707 0zm18.951 28.001c-.213.212-.213.495 0 .707.212.213.494.213.707 0 .212-.212.212-.495 0-.707-.142-.141-.495-.212-.707 0zm-4.667-4.667c-.212.212-.212.495 0 .707.212.213.495.213.707 0 .212-.212.212-.495 0-.707-.212-.212-.495-.212-.707 0zm-59.751-32.88c.212-.212.212-.495 0-.707-.212-.212-.495-.212-.707 0-.212.212-.212.495 0 .707.141.141.495.212.707 0zm-9.899-.99c-.212.212-.212.495 0 .707.212.212.495.212.707 0 .212-.212.212-.495 0-.707-.212-.212-.495-.212-.707 0zm-4.738-4.738c-.212.213-.212.495 0 .707.212.213.495.213.707 0 .212-.212.212-.494 0-.707-.212-.212-.495-.212-.707 0zm-3.748 5.162c.213-.212.213-.495 0-.707-.212-.212-.495-.212-.707 0-.212.212-.212.495 0 .707.212.212.495.212.707 0zm-4.525 4.526c.212-.213.212-.495 0-.708-.212-.212-.495-.212-.707 0-.212.213-.212.495 0 .708.212.212.495.212.707 0zm-9.829-.212c.212.212.495.212.707 0 .212-.213.212-.495 0-.708-.212-.212-.495-.212-.707 0-.212.213-.212.496 0 .708zm64.983 1.626c.212-.212.212-.495 0-.707-.212-.212-.495-.212-.707 0-.212.212-.212.495 0 .707.141.142.495.212.707 0zm-9.899-.99c-.212.212-.212.495 0 .707.212.212.495.212.707 0 .212-.212.212-.495 0-.707-.212-.212-.495-.212-.707 0zm-4.738-4.738c-.212.213-.212.495 0 .708.212.212.495.212.707 0 .212-.213.212-.495 0-.708-.141-.141-.495-.212-.707 0zm-8.415.495c.213-.212.213-.495 0-.707-.212-.212-.494-.212-.707 0-.212.212-.212.495 0 .707.142.283.495.212.707 0zm31.537 4.667c-.212.212-.212.495 0 .707.213.212.495.212.708 0 .212-.212.212-.495 0-.707-.213-.212-.566-.141-.708 0zm-3.818 5.233c.212-.213.212-.495 0-.707-.212-.213-.495-.213-.707 0-.212.212-.212.494 0 .707.212.212.495.212.707 0zm-81.741 70.428a.896.896 0 000 1.273.897.897 0 001.272 0 .897.897 0 000-1.273.895.895 0 00-1.272 0zm-4.738-4.738a.897.897 0 000 1.273.897.897 0 001.273 0 .896.896 0 000-1.273.895.895 0 00-1.273 0zm.353-35.426a.896.896 0 000-1.273.897.897 0 00-1.272 0 .897.897 0 000 1.273.895.895 0 001.272 0zm-5.727 4.455a.897.897 0 001.273 0 .896.896 0 000-1.273.895.895 0 00-1.273 0 .897.897 0 000 1.273zm-4.455 4.454a.895.895 0 001.273 0 .895.895 0 000-1.272.896.896 0 00-1.273-.001.897.897 0 000 1.273zm15.557 23.335a.897.897 0 000-1.273.895.895 0 00-1.273 0 .897.897 0 000 1.273.897.897 0 001.273 0zm-4.667-4.667a.897.897 0 000-1.273.897.897 0 00-1.273 0 .896.896 0 000 1.273c.283.283.919.354 1.273 0zm-6.011-6.01a.895.895 0 000 1.272.895.895 0 001.273 0 .895.895 0 000-1.272.895.895 0 00-1.273 0zm-3.465-3.465a.897.897 0 000-1.273.895.895 0 00-1.273 0 .897.897 0 000 1.273.897.897 0 001.273 0zm-5.939-4.667a.895.895 0 001.273 0 .897.897 0 000-1.273.897.897 0 00-1.273 0 .896.896 0 000 1.273zm27.86-36.062a.896.896 0 000-1.273.896.896 0 00-1.273 0 .896.896 0 000 1.273.896.896 0 001.273 0zm-10.395-.213a.896.896 0 001.273 0 .896.896 0 000-1.273.896.896 0 00-1.273 0 .896.896 0 000 1.273zm6.222 13.86a.897.897 0 000-1.273.896.896 0 00-1.272 0 .896.896 0 000 1.273.897.897 0 001.273 0zm-4.737-4.738a.896.896 0 000-1.273.896.896 0 00-1.273 0 .896.896 0 000 1.273.896.896 0 001.273 0z"/><path d="M63.993 105.928a.9.9 0 101.273-1.27.9.9 0 00-1.273 1.27z"/><path fill-rule="evenodd" clip-rule="evenodd" d="M74.529 160.022a.897.897 0 000 1.273.897.897 0 001.273 0 .896.896 0 000-1.273.897.897 0 00-1.273 0zm-4.738-4.738a.896.896 0 000 1.273.895.895 0 001.273 0 .896.896 0 000-1.273.897.897 0 00-1.272 0zm46.387 19.516a.896.896 0 000 1.273.895.895 0 001.272 0 .896.896 0 000-1.273.896.896 0 00-1.272 0zm-4.738-4.737a.896.896 0 000 1.273.897.897 0 001.273 0 .897.897 0 000-1.273.897.897 0 00-1.273 0zm-4.667-4.667a.897.897 0 000 1.273.897.897 0 001.273 0 .897.897 0 000-1.273.897.897 0 00-1.273 0zm-4.738-4.738a.897.897 0 00.001 1.273.895.895 0 001.272 0 .896.896 0 000-1.273.897.897 0 00-1.273 0zm-4.455 4.455a.896.896 0 000 1.273.895.895 0 001.274 0 .897.897 0 000-1.273.897.897 0 00-1.273 0zm-4.666-4.667a.896.896 0 000 1.273.895.895 0 001.273 0 .897.897 0 000-1.273.897.897 0 00-1.273 0zm-4.738-4.737a.895.895 0 000 1.272.895.895 0 001.273 0 .895.895 0 000-1.272.895.895 0 00-1.273 0zm-4.526 4.525a.897.897 0 000 1.273.897.897 0 001.273 0 .896.896 0 000-1.273.895.895 0 00-1.272 0zm81.035-62.225a.897.897 0 000 1.273.897.897 0 001.273 0 .897.897 0 000-1.273.896.896 0 00-1.273 0zm-4.667-4.667a.897.897 0 000 1.273.896.896 0 001.273 0 .895.895 0 000-1.273.896.896 0 00-1.273 0zm-4.737-4.738a.895.895 0 000 1.273.895.895 0 001.272 0 .895.895 0 000-1.273.895.895 0 00-1.272 0zm-4.667-4.666a.895.895 0 000 1.272.897.897 0 001.273 0 .897.897 0 000-1.272.896.896 0 00-1.273 0zm23.759 32.668a.895.895 0 000 1.272.895.895 0 001.272 0 .895.895 0 000-1.272.895.895 0 00-1.272 0zm-4.738-4.738a.896.896 0 000 1.273.896.896 0 001.273 0 .897.897 0 000-1.273.897.897 0 00-1.273 0zm-3.394-3.394a.897.897 0 000-1.273.897.897 0 00-1.273 0 .896.896 0 000 1.273.896.896 0 001.273 0zm-6.011-6.01a.896.896 0 000 1.272.896.896 0 001.273 0 .895.895 0 000-1.272.896.896 0 00-1.273 0zm1.556 10.465a.896.896 0 000-1.273.896.896 0 00-1.273 0 .897.897 0 000 1.273.897.897 0 001.273 0zm-4.738-4.738a.895.895 0 000-1.272.895.895 0 00-1.272 0 .895.895 0 000 1.272.895.895 0 001.272 0zm-78.63-24.89a.896.896 0 000-1.273.896.896 0 00-1.273 0 .896.896 0 000 1.273.896.896 0 001.273 0zm35.214-8.202a.896.896 0 001.273 0 .897.897 0 000-1.273.897.897 0 00-1.273 0 .895.895 0 000 1.273zm-7.92-.283a.895.895 0 000-1.273.895.895 0 00-1.272 0 .895.895 0 000 1.273.895.895 0 001.272 0zm-10.394-.213a.896.896 0 001.273 0 .896.896 0 000-1.272.896.896 0 00-1.273 0 .896.896 0 000 1.272zm-4.525 4.526a.896.896 0 001.272 0 .896.896 0 000-1.273.896.896 0 00-1.272 0 .896.896 0 000 1.273zm-7.92-.283a.896.896 0 000-1.273.896.896 0 00-1.273 0 .896.896 0 000 1.273.896.896 0 001.273 0zm55.154 1.414a.895.895 0 000-1.273.896.896 0 00-1.273 0 .897.897 0 000 1.273.897.897 0 001.273 0zm-10.465-1.555a.897.897 0 000 1.273.897.897 0 001.273 0 .897.897 0 000-1.273.896.896 0 00-1.273 0zm-4.738-4.738a.897.897 0 000 1.273.896.896 0 001.273 0 .895.895 0 000-1.273.897.897 0 00-1.273 0zm19.87 10.96a.895.895 0 000-1.273.896.896 0 00-1.273 0 .897.897 0 000 1.273.897.897 0 001.273 0zm-78.842 30.477a1.324 1.324 0 001.838 0 1.324 1.324 0 000-1.839 1.324 1.324 0 00-1.838 0 1.324 1.324 0 000 1.839zm2.121 9.192a1.323 1.323 0 000-1.838 1.324 1.324 0 00-1.838 0 1.323 1.323 0 000 1.838 1.324 1.324 0 001.838 0zm-4.738-4.738a1.323 1.323 0 000-1.838 1.324 1.324 0 00-1.838 0 1.323 1.323 0 000 1.838c.566.566 1.343.495 1.838 0zm14.425 23.335a1.324 1.324 0 000-1.839 1.324 1.324 0 00-1.838 0 1.324 1.324 0 000 1.839c.495.495 1.273.565 1.838 0zm-4.737-4.738a1.323 1.323 0 000-1.838 1.324 1.324 0 00-1.839 0 1.323 1.323 0 000 1.838c.495.495 1.273.566 1.839 0zm-4.738-4.737a1.324 1.324 0 000-1.839 1.324 1.324 0 00-1.838 0 1.324 1.324 0 000 1.839c.565.565 1.273.565 1.838 0zm-4.667-4.667a1.324 1.324 0 000-1.839 1.324 1.324 0 00-1.838 0 1.324 1.324 0 000 1.839c.495.495 1.273.565 1.838 0zm-4.738-4.738a1.323 1.323 0 000-1.838 1.324 1.324 0 00-1.838 0 1.323 1.323 0 000 1.838c.566.566 1.273.566 1.839 0zm14.355 23.406a1.324 1.324 0 000-1.839 1.324 1.324 0 00-1.839 0 1.324 1.324 0 000 1.839 1.324 1.324 0 001.839 0zm-3.253-55.155a1.324 1.324 0 001.839 0 1.324 1.324 0 000-1.838 1.324 1.324 0 00-1.839 0 1.324 1.324 0 000 1.838zm4.95 13.859a1.324 1.324 0 001.839 0 1.323 1.323 0 000-1.838 1.324 1.324 0 00-1.839 0 1.323 1.323 0 000 1.838zm-4.455 4.455a1.324 1.324 0 001.839 0 1.323 1.323 0 000-1.838 1.324 1.324 0 00-1.839 0c-.565.566-.495 1.343 0 1.838zm51.973 59.185a1.324 1.324 0 000 1.839 1.323 1.323 0 001.838 0 1.324 1.324 0 000-1.839 1.323 1.323 0 00-1.838 0zm-4.667-4.667a1.324 1.324 0 000 1.839 1.323 1.323 0 001.838 0 1.324 1.324 0 000-1.839c-.566-.565-1.343-.495-1.838 0zm-4.738-4.738a1.324 1.324 0 000 1.839 1.324 1.324 0 001.839 0 1.325 1.325 0 00-.001-1.839 1.325 1.325 0 00-1.838 0zm-4.738-4.737a1.325 1.325 0 000 1.838 1.324 1.324 0 001.839 0 1.323 1.323 0 000-1.838 1.324 1.324 0 00-1.839 0zm-4.667-4.667a1.326 1.326 0 000 1.839 1.324 1.324 0 001.839 0 1.324 1.324 0 000-1.839 1.324 1.324 0 00-1.839 0zm-4.454 4.455a1.323 1.323 0 000 1.838 1.324 1.324 0 001.838 0 1.323 1.323 0 000-1.838 1.324 1.324 0 00-1.838 0zm-4.738-4.738a1.323 1.323 0 000 1.838 1.324 1.324 0 001.839 0 1.323 1.323 0 000-1.838 1.324 1.324 0 00-1.839 0zm-4.667-4.666a1.323 1.323 0 000 1.838 1.324 1.324 0 001.839 0 1.324 1.324 0 000-1.839 1.325 1.325 0 00-1.839.001zm-4.454 4.454a1.324 1.324 0 000 1.839 1.324 1.324 0 001.838 0 1.324 1.324 0 000-1.839c-.566-.424-1.343-.495-1.838 0zm-4.526 4.525a1.324 1.324 0 000 1.839 1.324 1.324 0 001.839 0 1.324 1.324 0 000-1.839 1.324 1.324 0 00-1.839 0zm-4.738-4.737a1.323 1.323 0 000 1.838 1.324 1.324 0 001.839 0 1.323 1.323 0 000-1.838 1.324 1.324 0 00-1.839 0zm88.247-28.143a1.323 1.323 0 000-1.838 1.323 1.323 0 00-1.838 0 1.323 1.323 0 000 1.838c.565.566 1.343.495 1.838 0zm-4.667-4.667a1.323 1.323 0 000-1.838 1.323 1.323 0 00-1.838 0 1.323 1.323 0 000 1.838 1.323 1.323 0 001.838 0zm-4.737-4.738a1.323 1.323 0 000-1.838 1.324 1.324 0 00-1.839 0 1.323 1.323 0 000 1.838 1.324 1.324 0 001.839 0zm2.475-15.485a1.324 1.324 0 000 1.839 1.323 1.323 0 001.838 0 1.324 1.324 0 000-1.839 1.323 1.323 0 00-1.838 0zm-4.738-4.738a1.324 1.324 0 000 1.839 1.324 1.324 0 001.839 0 1.325 1.325 0 000-1.839 1.324 1.324 0 00-1.839 0zm-4.667-4.666a1.324 1.324 0 000 1.838 1.325 1.325 0 001.839 0 1.324 1.324 0 000-1.839 1.324 1.324 0 00-1.839 0zm23.759 32.668a1.323 1.323 0 000 1.838 1.323 1.323 0 001.838 0 1.323 1.323 0 000-1.838c-.565-.425-1.343-.495-1.838 0zm-4.667-4.667a1.323 1.323 0 000 1.838 1.323 1.323 0 001.838 0 1.323 1.323 0 000-1.838c-.636-.495-1.343-.495-1.838 0zm-14.142-14.142a1.323 1.323 0 000 1.838 1.323 1.323 0 001.838 0 1.323 1.323 0 000-1.838c-.565-.425-1.343-.495-1.838 0zm-7.566-7.566a1.324 1.324 0 000-1.839 1.324 1.324 0 00-1.839 0 1.324 1.324 0 000 1.839c.495.495 1.273.565 1.839 0zM81.6 88.322a1.324 1.324 0 001.839 0 1.324 1.324 0 000-1.839 1.324 1.324 0 00-1.839 0 1.324 1.324 0 000 1.839zm-4.455 4.454a1.324 1.324 0 001.839 0 1.324 1.324 0 000-1.838 1.324 1.324 0 00-1.839 0c-.565.566-.495 1.343 0 1.838zm47.447-7.99a1.324 1.324 0 000-1.838 1.323 1.323 0 00-1.838 0 1.324 1.324 0 000 1.838 1.323 1.323 0 001.838 0zm-4.737-4.738a1.324 1.324 0 000-1.838 1.324 1.324 0 00-1.839 0 1.324 1.324 0 000 1.838c.566.566 1.344.495 1.839 0zm-10.961-.212a1.324 1.324 0 001.839 0 1.324 1.324 0 000-1.838 1.325 1.325 0 00-1.839 0 1.325 1.325 0 000 1.838zm-7.353-.283a1.324 1.324 0 000-1.838 1.324 1.324 0 00-1.839 0 1.324 1.324 0 000 1.838c.566.566 1.344.495 1.839 0zm-4.526 4.526a1.324 1.324 0 000-1.838 1.324 1.324 0 00-1.838 0 1.324 1.324 0 000 1.838c.565.566 1.343.495 1.838 0zm-10.96-.212a1.324 1.324 0 001.838 0 1.324 1.324 0 000-1.839 1.324 1.324 0 00-1.838 0 1.324 1.324 0 000 1.839zm47.8 1.131a1.324 1.324 0 000-1.839 1.323 1.323 0 00-1.838 0 1.324 1.324 0 000 1.839c.495.495 1.273.566 1.838 0zm4.667 4.667a1.324 1.324 0 000-1.839 1.323 1.323 0 00-1.838 0 1.324 1.324 0 000 1.839c.495.495 1.273.566 1.838 0zM70.71 120.424c.637-.636.637-1.768 0-2.404-.636-.636-1.767-.636-2.403 0-.637.636-.637 1.768 0 2.404.636.637 1.767.637 2.404 0zm7.284 16.193c-.637.637-.636 1.768 0 2.404.636.637 1.768.637 2.404 0 .636-.636.636-1.767 0-2.404a1.686 1.686 0 00-2.404 0zm-4.738-4.738c-.636.637-.636 1.768 0 2.404.637.637 1.768.637 2.404 0 .637-.636.637-1.767 0-2.404-.636-.636-1.767-.636-2.404 0zm-4.666-4.667c-.637.637-.637 1.768 0 2.405.636.636 1.767.636 2.404 0 .636-.637.636-1.768 0-2.405a1.686 1.686 0 00-2.405 0zm6.151-29.627c.636-.637.636-1.768 0-2.404a1.686 1.686 0 00-2.404 0c-.636.636-.636 1.767 0 2.404.636.636 1.768.636 2.404 0zm.495 18.314c.637-.637.636-1.768 0-2.404-.636-.637-1.768-.637-2.404 0-.636.636-.636 1.767 0 2.404a1.686 1.686 0 002.404 0zm21.284 30.334c-.636.637-.636 1.768 0 2.404a1.684 1.684 0 002.404 0c.637-.636.637-1.767 0-2.404-.636-.636-1.768-.636-2.404 0zm-4.667-4.666a1.685 1.685 0 000 2.404c.637.636 1.768.636 2.404 0 .637-.636.637-1.768 0-2.404a1.685 1.685 0 00-2.404 0zm-4.737-4.738a1.685 1.685 0 000 2.404c.636.637 1.767.637 2.404 0 .636-.636.636-1.768 0-2.404-.637-.636-1.768-.636-2.404 0zm-4.456 4.455a1.685 1.685 0 000 2.404c.637.636 1.769.636 2.405 0 .636-.637.636-1.768 0-2.404-.636-.637-1.768-.637-2.404 0zm-4.454 4.455a1.685 1.685 0 000 2.404c.636.636 1.768.636 2.404 0 .637-.637.637-1.768 0-2.404-.707-.566-1.768-.637-2.404 0zm46.386 19.516c-.636.636-.636 1.768 0 2.404.637.636 1.768.636 2.404 0 .637-.636.637-1.768 0-2.404-.707-.566-1.767-.637-2.404 0zm-4.667-4.667c-.636.636-.636 1.768 0 2.404.637.636 1.768.636 2.405 0 .636-.636.636-1.768 0-2.404-.778-.637-1.768-.637-2.405 0zm-4.737-4.738c-.637.636-.637 1.768 0 2.404.636.637 1.767.637 2.404 0 .636-.636.636-1.768 0-2.404-.707-.566-1.768-.636-2.404 0zm-4.667-4.666c-.637.636-.637 1.767 0 2.404.636.636 1.768.636 2.404 0 .636-.637.636-1.768 0-2.404-.778-.637-1.768-.637-2.404 0zm-4.738-4.738c-.636.636-.636 1.768 0 2.404.637.636 1.768.636 2.404 0 .637-.637.637-1.768 0-2.404-.707-.566-1.767-.637-2.404 0zm-4.737-4.738c-.637.636-.637 1.768 0 2.404.636.636 1.767.636 2.404 0 .636-.636.636-1.768 0-2.404-.637-.636-1.768-.636-2.404 0zm63.781-16.688c-.637.637-.637 1.768 0 2.405.636.636 1.767.636 2.404 0 .636-.637.636-1.768 0-2.405-.637-.636-1.697-.707-2.404 0zm-18.809-18.809c-.637.637-.637 1.768 0 2.405.636.636 1.767.636 2.404 0 .636-.637.636-1.768 0-2.405-.637-.636-1.697-.707-2.404 0zm-4.738-4.737c-.636.636-.636 1.767 0 2.404.636.636 1.768.636 2.404 0 .637-.637.637-1.768 0-2.404a1.684 1.684 0 00-2.404 0zm-4.667-4.667a1.686 1.686 0 000 2.404c.636.636 1.768.636 2.404 0 .637-.637.637-1.768 0-2.404-.707-.707-1.697-.707-2.404 0zm26.163 35.072c.636-.636.636-1.768 0-2.404-.636-.636-1.768-.636-2.404 0-.637.636-.637 1.768 0 2.404.636.637 1.768.637 2.404 0zm-4.738-4.737c.637-.637.637-1.768 0-2.404-.636-.637-1.767-.637-2.404 0-.636.636-.636 1.767 0 2.404a1.686 1.686 0 002.404 0zm-4.666-4.667c.636-.637.636-1.768 0-2.404-.637-.637-1.768-.637-2.405 0-.636.636-.636 1.767 0 2.404.637.636 1.768.636 2.405 0zm-4.738-4.738c.636-.636.636-1.768 0-2.404-.637-.636-1.768-.636-2.404 0-.637.636-.637 1.768 0 2.404.707.707 1.767.636 2.404 0z"/><path d="M145.805 99.352a1.701 1.701 0 002.405-2.404 1.701 1.701 0 00-2.405 2.404z"/><path fill-rule="evenodd" clip-rule="evenodd" d="M88.388 93.271c.637-.636.637-1.767 0-2.404-.636-.636-1.767-.636-2.404 0-.636.636-.636 1.768 0 2.404.707.707 1.697.707 2.404 0zm-4.525 4.526c.636-.637.636-1.768 0-2.404-.637-.637-1.768-.637-2.404 0-.637.636-.637 1.767 0 2.404.778.636 1.767.636 2.404 0zm-4.455 4.455c.636-.637.636-1.768 0-2.404-.636-.637-1.768-.637-2.404 0-.636.636-.636 1.767 0 2.404a1.686 1.686 0 002.404 0zm.283 9.192c.636-.637.636-1.768 0-2.405-.636-.636-1.768-.636-2.404 0-.637.637-.637 1.768 0 2.405.636.636 1.768.636 2.404 0zm47.518-24.042c-.637.637-.637 1.768 0 2.404.636.637 1.767.637 2.404 0 .636-.636.636-1.767 0-2.404-.707-.707-1.697-.707-2.404 0zm-2.122 6.788c.637-.636.637-1.767 0-2.403-.636-.637-1.768-.637-2.404 0-.636.636-.636 1.767 0 2.404a1.685 1.685 0 002.404 0zm-4.667-4.666c.637-.637.637-1.768 0-2.404-.636-.637-1.767-.637-2.404 0-.636.636-.636 1.767 0 2.404.637.636 1.768.636 2.404 0zm-4.737-4.738c.636-.636.636-1.768 0-2.404-.637-.637-1.768-.637-2.404 0-.637.636-.637 1.767 0 2.404.707.707 1.767.636 2.404 0zm-9.122-.212c.636-.636.636-1.768 0-2.404-.636-.636-1.768-.636-2.404 0-.637.636-.637 1.768 0 2.404a1.685 1.685 0 002.404 0zm-4.526 4.526c.637-.637.637-1.768 0-2.405-.636-.636-1.767-.636-2.404 0-.636.637-.636 1.768 0 2.404.707.566 1.768.637 2.404 0zm-9.192-.283c.636-.637.636-1.768 0-2.404-.636-.637-1.768-.637-2.404 0-.636.636-.636 1.767 0 2.404a1.686 1.686 0 002.404 0zm39.032 3.253a1.686 1.686 0 000 2.404c.637.636 1.768.636 2.405 0 .636-.637.636-1.768 0-2.405a1.686 1.686 0 00-2.405 0zm-49.709 39.809c-.778.778-.849 2.122 0 2.97.778.778 2.121.849 2.97 0 .778-.778.848-2.121 0-2.97-.849-.848-2.122-.848-2.97 0zm-4.738-4.737c-.778.777-.848 2.121 0 2.969.778.778 2.121.849 2.97 0 .778-.777.849-2.121 0-2.969-.778-.778-2.121-.849-2.97 0zm-4.667-4.667c-.777.777-.848 2.121 0 2.97.778.777 2.122.848 2.97-.001.778-.777.849-2.121 0-2.969-.848-.849-2.121-.849-2.97 0zm13.93 4.879c-.778.777-.848 2.121 0 2.969.778.778 2.122.849 2.97 0 .778-.777.849-2.121 0-2.969-.919-.778-2.192-.778-2.97 0zm42.073 33.163c-.778.778-.848 2.121 0 2.97.778.778 2.121.849 2.97 0 .778-.778.848-2.121 0-2.97-.849-.707-2.192-.778-2.97 0zm-4.667-4.667c-.778.778-.848 2.121 0 2.97.849.849 2.122.849 2.97 0 .778-.778.849-2.121 0-2.97-.848-.848-2.192-.778-2.97 0zm-4.737-4.738c-.778.778-.849 2.122 0 2.97.777.778 2.121.849 2.969 0 .778-.778.849-2.121 0-2.97-.919-.777-2.192-.777-2.969 0zm-4.667-4.666c-.778.778-.849 2.121 0 2.97.777.778 2.121.848 2.97 0 .777-.778.848-2.122 0-2.97-.92-.778-2.192-.778-2.97 0zm-4.738-4.738c-.778.778-.848 2.121 0 2.97.778.778 2.121.848 2.97 0 .778-.778.849-2.121 0-2.97-.919-.778-2.192-.778-2.97 0zm-4.667-4.667c-.778.778-.848 2.121 0 2.97.778.778 2.121.848 2.97 0 .778-.778.849-2.121 0-2.97-.919-.778-2.192-.778-2.97 0zm-4.737-4.737c-.778.778-.849 2.121 0 2.97.777.777 2.121.848 2.969 0 .778-.778.849-2.122 0-2.97-.919-.778-2.192-.778-2.969 0zm-4.738-4.738c-.778.778-.849 2.121 0 2.97.778.778 2.121.848 2.97 0 .778-.778.848-2.121 0-2.97-.849-.707-2.192-.778-2.97 0zm.283 9.192c-.778.778-.849 2.122 0 2.97.778.778 2.121.849 2.97 0 .778-.778.848-2.121 0-2.97-.92-.777-2.192-.777-2.97 0zm-4.738-4.737c-.778.777-.848 2.121 0 2.969.778.778 2.121.849 2.97 0 .778-.777.849-2.121 0-2.969-.849-.708-2.192-.778-2.97 0zm49.922-21.638c-.778.778-.849 2.122 0 2.97.778.778 2.121.849 2.97 0 .778-.778.848-2.121 0-2.97-.849-.848-2.192-.777-2.97 0zm-4.667-4.667c-.778.778-.849 2.122 0 2.97.778.778 2.121.849 2.97 0 .778-.778.848-2.121 0-2.97-.849-.848-2.192-.777-2.97 0z"/><path d="M131.875 103.948a2.1 2.1 0 102.97-2.97 2.1 2.1 0 00-2.97 2.97z"/><path fill-rule="evenodd" clip-rule="evenodd" d="M155.634 133.647c-.778.778-.848 2.121 0 2.97.778.778 2.122.848 2.97 0 .778-.778.849-2.121 0-2.97-.848-.707-2.192-.778-2.97 0zm-4.667-4.667c-.777.778-.848 2.121 0 2.97.849.848 2.122.848 2.97 0 .778-.778.849-2.121 0-2.97-.848-.848-2.192-.778-2.97 0zm-4.737-4.737c-.778.778-.849 2.121 0 2.97.777.777 2.121.848 2.97 0 .777-.778.848-2.122 0-2.97-.92-.778-2.193-.778-2.97 0zm-4.667-4.667c-.778.778-.849 2.121 0 2.97.778.777 2.121.848 2.97 0 .777-.778.848-2.122 0-2.97-.92-.778-2.192-.778-2.97 0zM93.409 98.292c.778-.778.848-2.122 0-2.97-.778-.778-2.122-.849-2.97 0-.778.778-.849 2.121 0 2.97.778.778 2.121.848 2.97 0zm-4.526 4.525c.778-.778.849-2.121 0-2.97-.777-.778-2.121-.848-2.97 0-.777.778-.848 2.122 0 2.97.849.707 2.193.778 2.97 0zm.212 9.122c.778-.778.849-2.122 0-2.97-.777-.778-2.12-.849-2.97 0-.777.778-.848 2.121 0 2.97.85.848 2.193.777 2.97 0zm-4.666-4.667c.777-.778.848-2.121 0-2.97-.778-.778-2.122-.848-2.97 0-.778.778-.849 2.122 0 2.97.778.778 2.192.778 2.97 0zm.211 9.122c.778-.778.85-2.122 0-2.97-.777-.778-2.12-.849-2.97 0-.777.778-.848 2.121 0 2.97.85.848 2.122.848 2.97 0zm-2.686 6.222c-.778.778-.849 2.122 0 2.97.778.778 2.121.849 2.97 0 .777-.778.848-2.121 0-2.97-.849-.707-2.193-.778-2.97 0zm-4.667-4.667c-.778.778-.849 2.122 0 2.97.778.778 2.121.849 2.97 0 .777-.778.848-2.121 0-2.97-.92-.778-2.192-.778-2.97 0zm43.628-19.021c.778-.778.849-2.121 0-2.97-.778-.778-2.121-.849-2.97 0-.777.778-.848 2.121 0 2.97.849.849 2.122.849 2.97 0zm-4.667-4.667c.778-.777.849-2.12 0-2.97-.777-.777-2.121-.848-2.97 0-.777.778-.848 2.122 0 2.97.778.778 2.122.849 2.97 0zm-4.737-4.737c.778-.778.848-2.122 0-2.97-.778-.778-2.122-.849-2.97 0-.778.778-.849 2.121 0 2.97.848.848 2.121.848 2.97 0zm-4.526 4.525c.778-.778.849-2.121 0-2.97-.778-.778-2.121-.848-2.97 0-.777.778-.848 2.122 0 2.97.92.778 2.192.778 2.97 0zm-4.455 4.455c.778-.778.849-2.121 0-2.97-.777-.778-2.121-.848-2.97 0-.777.778-.848 2.122 0 2.97.849.849 2.193.778 2.97 0zm-4.666-4.667c.777-.778.848-2.121 0-2.97-.778-.778-2.122-.848-2.97 0-.778.778-.849 2.122 0 2.97.778.778 2.192.778 2.97 0zm29.274 2.404c-.778.778-.849 2.122 0 2.97.778.778 2.121.849 2.97 0 .777-.778.848-2.121 0-2.97-.778-.778-2.192-.778-2.97 0zm-1.485 7.425c.778-.778.848-2.122 0-2.97-.778-.778-2.121-.849-2.97 0-.778.778-.848 2.121 0 2.97.849.848 2.121.848 2.97 0zm-13.011 22.91c.99-.99.99-2.546 0-3.536a2.475 2.475 0 00-3.535 0c-.99.99-.99 2.546 0 3.536 1.06.919 2.616.919 3.535 0zm23.759 32.668c.99-.99.919-2.475-.071-3.465-.99-.989-2.545-.989-3.465-.07-.99.99-.99 2.545 0 3.535 1.132.99 2.617.92 3.536 0zm-8.132-8.132c-.99.99-.919 2.475.071 3.465.99.99 2.546.99 3.465.071.99-.99.99-2.546 0-3.536a2.478 2.478 0 00-3.536 0zm-4.737-4.737c-.99.99-.99 2.546 0 3.536.989.99 2.545.99 3.535 0 .99-.99.99-2.546 0-3.536a2.475 2.475 0 00-3.535 0zm-4.667-4.667c-.99.99-.92 2.475.07 3.465.99.99 2.546.99 3.465.071.99-.99.99-2.546 0-3.536a2.475 2.475 0 00-3.535 0zm-4.738-4.738c-.99.99-.919 2.475.071 3.465.99.99 2.545.99 3.465.071a2.478 2.478 0 000-3.536 2.476 2.476 0 00-3.536 0zm-4.667-4.667c-.99.99-.919 2.475.071 3.465.99.99 2.545.99 3.465.071.99-.99.99-2.546 0-3.536a2.476 2.476 0 00-3.536 0zm-4.738-4.737c-.989.99-.919 2.475.071 3.465.99.99 2.546.99 3.465.071.99-.99.99-2.546 0-3.536a2.476 2.476 0 00-3.536 0zm-4.666-4.667c-.99.99-.99 2.546 0 3.536.99.99 2.545.99 3.535 0 .99-.99.99-2.546 0-3.536a2.475 2.475 0 00-3.535 0zm36.486-8.344c-.99.99-.99 2.546 0 3.536.99.99 2.546.99 3.536 0 .99-.99.99-2.546 0-3.536-1.061-.919-2.616-.919-3.536 0zm-4.667-4.667c-.99.99-.99 2.546 0 3.536.99.99 2.546.99 3.536 0 .99-.99.99-2.546 0-3.536-1.061-.919-2.616-.919-3.536 0zm-4.737-4.737c-.99.99-.99 2.545 0 3.535.99.99 2.545.99 3.535 0 .99-.99.99-2.545 0-3.535-1.06-.92-2.616-.92-3.535 0zm23.688 32.739c-.99.99-.99 2.545 0 3.535.99.99 2.545.99 3.535 0 .99-.99.99-2.545 0-3.535a2.475 2.475 0 00-3.535 0zm-4.667-4.667c-.99.99-.99 2.545 0 3.535.99.99 2.546.99 3.536 0a2.477 2.477 0 000-3.535 2.476 2.476 0 00-3.536 0zm-4.738-4.738c-.99.99-.99 2.546 0 3.536.99.99 2.546.99 3.536 0 .99-.99.99-2.546 0-3.536a2.476 2.476 0 00-3.536 0zm-4.667-4.667a2.478 2.478 0 000 3.536c.99.99 2.546.99 3.536 0 .99-.99.99-2.546 0-3.536a2.476 2.476 0 00-3.536 0zm-4.737-4.737c-.99.99-.99 2.545 0 3.535.99.99 2.545.99 3.535 0 .99-.99.99-2.545 0-3.535a2.475 2.475 0 00-3.535 0zm-4.667-4.667c-.99.99-.99 2.545 0 3.535.99.99 2.545.99 3.535 0 .99-.99.99-2.545 0-3.535a2.475 2.475 0 00-3.535 0zm-4.738-4.738c-.99.99-.99 2.546 0 3.536.99.989 2.546.989 3.536 0 .99-.99.99-2.546 0-3.536a2.476 2.476 0 00-3.536 0zm17.819 26.729c.99-.99.99-2.546 0-3.536a2.475 2.475 0 00-3.535 0c-.99.99-.99 2.546 0 3.536 1.061.919 2.616.919 3.535 0zm-4.667-4.667c.99-.99.99-2.546 0-3.536a2.475 2.475 0 00-3.535 0c-.99.99-.99 2.546 0 3.536 1.061.919 2.616.919 3.535 0zM131.027 127c.99-.99.99-2.546 0-3.535a2.476 2.476 0 00-3.536 0 2.475 2.475 0 000 3.535c1.061.919 2.617.919 3.536 0zm-32.668-23.759c.99-.99.99-2.545 0-3.535a2.476 2.476 0 00-3.536 0c-.99.99-.99 2.545 0 3.535.99.99 2.546.99 3.536 0zm-4.526 4.526c.99-.99.99-2.545 0-3.535a2.476 2.476 0 00-3.535 0c-.99.99-.99 2.545 0 3.535 1.06.919 2.616.919 3.535 0zm1.485 10.394c-.99.99-.99 2.546 0 3.536.99.99 2.546.99 3.536 0 .99-.99.99-2.546 0-3.536a2.476 2.476 0 00-3.536 0zm-1.202-1.201c.99-.99.99-2.546 0-3.536a2.476 2.476 0 00-3.536 0c-.99.99-.919 2.475.071 3.465.99.99 2.546.99 3.465.071zm-3.253 5.656c-.99.99-.99 2.546 0 3.536.99.99 2.546.99 3.536 0 .99-.99.99-2.546 0-3.536-1.06-.919-2.617-.919-3.536 0zm-4.667-4.667c-.99.99-.99 2.546 0 3.536.99.99 2.546.99 3.536 0 .99-.99.99-2.546 0-3.536-1.06-.919-2.616-.919-3.536 0zm27.012-17.677c-.99.99-.99 2.545 0 3.535.99.99 2.545.99 3.535 0 .99-.99.99-2.545 0-3.535a2.474 2.474 0 00-3.535 0zm-4.667-4.667c-.99.99-.99 2.545 0 3.535.99.99 2.546.99 3.535 0 .99-.99.99-2.545 0-3.535a2.475 2.475 0 00-3.535 0zm-.99 7.919c.99-.989.99-2.545 0-3.535a2.476 2.476 0 00-3.536 0c-.99.99-.919 2.475.071 3.465.99.99 2.546.99 3.465.07zm10.394 1.485c-.99.99-.99 2.546 0 3.536.99.99 2.546.99 3.536 0 .99-.99.99-2.546 0-3.536a2.478 2.478 0 00-3.536 0zm21.921-94.469c-.212.212-.212.495 0 .707.212.212.495.212.707 0 .212-.212.212-.495 0-.707-.142-.283-.495-.212-.707 0zm-3.748 5.162c.212-.212.212-.495 0-.707-.212-.212-.495-.212-.707 0-.212.212-.212.495 0 .707.212.212.495.212.707 0zm14.284 50.063c-.213.212-.213.495 0 .707.212.212.495.212.707 0 .212-.212.212-.495 0-.707-.142-.142-.495-.212-.707 0zm-4.667-4.667c-.212.212-.212.495 0 .707.212.212.495.212.707 0 .212-.212.212-.495 0-.707-.212-.212-.495-.212-.707 0zm-4.738-4.738c-.212.212-.212.495 0 .708.212.212.495.212.707 0 .212-.213.212-.495 0-.708-.141-.141-.495-.212-.707 0zm-18.102-18.102c.212-.212.212-.495 0-.707-.212-.212-.495-.212-.707 0-.212.212-.212.495 0 .707.212.212.495.212.707 0zm18.385 27.295c-.212.212-.212.495 0 .707.212.212.495.212.707 0 .212-.212.212-.495 0-.707-.212-.212-.566-.142-.707 0zm-4.738-4.738c-.212.212-.212.495 0 .707.212.212.495.212.707 0 .213-.212.213-.495 0-.707-.141-.141-.565-.141-.707 0zm-4.667-4.667c-.212.212-.212.495 0 .707.213.212.495.212.708 0 .212-.212.212-.495 0-.707-.213-.212-.566-.141-.708 0zM118.44 42.713c.212-.212.212-.495 0-.707-.212-.212-.495-.212-.707 0-.212.212-.212.495 0 .707.142.283.495.212.707 0zm9.617 18.668c.212-.212.212-.495 0-.707-.212-.212-.495-.212-.707 0-.212.212-.212.495 0 .707.212.212.495.212.707 0zm-4.667-4.667c.212-.212.212-.495 0-.707-.212-.212-.495-.212-.707 0-.212.212-.212.495 0 .707.141.141.495.212.707 0zm-4.737-4.738c.212-.212.212-.495 0-.707-.213-.212-.495-.212-.708 0-.212.212-.212.495 0 .707.213.212.495.212.708 0zm-4.738-4.738c.212-.212.212-.495 0-.707-.212-.212-.495-.212-.707 0-.212.212-.212.495 0 .707.212.212.495.212.707 0zm4.95 13.152c-.212-.212-.495-.212-.707 0-.213.213-.213.496 0 .708.212.212.495.212.707 0 .283-.142.212-.495 0-.707zm-5.374-4.666c-.212.212-.212.495 0 .707.212.212.495.212.707 0 .212-.212.212-.495 0-.707-.212-.212-.495-.212-.707 0zm-4.738-4.738c-.212.213-.212.495 0 .708.212.212.495.212.707 0 .212-.213.212-.495 0-.708-.212-.212-.495-.212-.707 0zm-3.748 5.162c.213-.212.213-.495 0-.707-.212-.212-.495-.212-.707 0-.212.212-.212.495 0 .707.142.283.495.212.707 0zm35.78-35.779c.212-.212.212-.495 0-.707-.212-.212-.495-.212-.707 0-.212.212-.212.495 0 .707.212.212.495.212.707 0zm-5.162 4.454c.212.212.495.212.707 0 .212-.212.212-.495 0-.707-.212-.212-.495-.212-.707 0-.212.212-.212.495 0 .707zm-3.818 4.526c.212-.212.212-.495 0-.707-.212-.212-.495-.212-.707 0-.213.212-.213.495 0 .707.212.212.565.141.707 0zm23.829 32.739c.212-.212.212-.495 0-.707-.212-.212-.495-.212-.707 0-.212.212-.212.495 0 .707.142.141.495.212.707 0zm-28.991-28.285c.212.213.495.213.707 0 .212-.212.212-.495 0-.707-.212-.212-.495-.212-.707 0-.212.212-.212.495 0 .707zm52.255 42.639c.212-.212.212-.495 0-.707-.212-.212-.495-.212-.707 0-.212.212-.212.495 0 .707.212.212.566.141.707 0zm-4.738-4.737c.213-.212.213-.495 0-.707-.212-.213-.495-.213-.707 0-.212.212-.212.495 0 .707.212.212.566.141.707 0zm4.95 13.859c.212-.212.212-.495 0-.707-.212-.213-.495-.213-.707 0-.212.212-.212.495 0 .707.212.212.495.212.707 0zm-4.667-4.667c.212-.212.212-.495 0-.707-.212-.212-.495-.212-.707 0-.212.212-.212.495 0 .707.212.212.495.212.707 0zm-4.737-4.737c.212-.213.212-.496 0-.708-.213-.212-.495-.212-.708 0-.212.212-.212.495 0 .707.213.212.495.212.708 0zm-4.667-4.668c.212-.212.212-.495 0-.707-.212-.212-.495-.212-.707 0-.213.212-.213.495 0 .707.212.212.495.212.707 0zm-4.738-4.738c.212-.212.212-.495 0-.707-.212-.212-.495-.212-.707 0-.212.213-.212.495 0 .707.212.213.495.213.707 0zm-10.041-45.82a.895.895 0 000-1.273.897.897 0 00-1.273 0 .897.897 0 000 1.273.896.896 0 001.273 0zm-4.737-4.737a.897.897 0 000-1.273.897.897 0 00-1.273 0 .895.895 0 000 1.273.897.897 0 001.273 0zm-9.476 35.213a.897.897 0 000 1.273.896.896 0 001.273 0 .895.895 0 000-1.273.897.897 0 00-1.273 0zm-4.737-4.737a.895.895 0 000 1.273.896.896 0 001.273 0 .897.897 0 000-1.273.897.897 0 00-1.273 0z"/><path d="M126.643 43.279a.9.9 0 101.273-1.273.9.9 0 00-1.273 1.273z"/><path fill-rule="evenodd" clip-rule="evenodd" d="M126.855 51.128a.895.895 0 000 1.272.897.897 0 001.273 0 .897.897 0 000-1.272.896.896 0 00-1.273 0zm-4.667-4.668a.897.897 0 000 1.273.896.896 0 001.273 0 .897.897 0 000-1.272.897.897 0 00-1.273 0zm22.345-21.07a.895.895 0 001.272 0 .895.895 0 000-1.274.895.895 0 00-1.272 0 .895.895 0 000 1.273zm-3.182 4.454a.897.897 0 000-1.273.896.896 0 00-1.273 0 .895.895 0 000 1.273.897.897 0 001.273 0zm19.021 28.072a.897.897 0 000-1.273.897.897 0 00-1.273 0 .897.897 0 000 1.273.896.896 0 001.273 0zm-4.738-4.738a.896.896 0 000-1.273.897.897 0 00-1.273 0 .897.897 0 000 1.273.897.897 0 001.273 0zm-4.667-4.667a.895.895 0 000-1.273.895.895 0 00-1.272 0 .895.895 0 000 1.273c.282.283.919.354 1.272 0zM135.552 34.37a.897.897 0 001.273 0 .895.895 0 000-1.274.896.896 0 00-1.273 0 .897.897 0 000 1.273zm14.355 21.99a.895.895 0 000 1.273.895.895 0 001.272 0 .895.895 0 000-1.273.895.895 0 00-1.272 0zm-4.738-4.737a.895.895 0 000 1.273.896.896 0 001.273 0 .897.897 0 000-1.273.897.897 0 00-1.273 0zm-4.667-4.667a.897.897 0 000 1.272.896.896 0 001.273 0 .897.897 0 000-1.272.897.897 0 00-1.273 0z"/><path d="M131.098 38.824a.899.899 0 101.272-1.27.899.899 0 00-1.272 1.27z"/><path fill-rule="evenodd" clip-rule="evenodd" d="M178.969 67.462a.897.897 0 000-1.273.897.897 0 00-1.273 0 .895.895 0 000 1.273.896.896 0 001.273 0zm-4.667-4.667a.897.897 0 000-1.273.897.897 0 00-1.273 0 .895.895 0 000 1.273.896.896 0 001.273 0zm-5.799 3.252a.897.897 0 000 1.273.897.897 0 001.273 0 .896.896 0 000-1.272.897.897 0 00-1.273 0zm-3.464-3.464a.897.897 0 000-1.273.897.897 0 00-1.273 0 .895.895 0 000 1.273.896.896 0 001.273 0zM150.048 11.67a.895.895 0 000-1.272.897.897 0 00-1.273 0 .897.897 0 000 1.273.897.897 0 001.273 0zm3.323 14.214a1.324 1.324 0 001.839 0 1.324 1.324 0 000-1.838 1.324 1.324 0 00-1.839 0 1.324 1.324 0 000 1.838zm16.264 23.335a1.324 1.324 0 000-1.839 1.324 1.324 0 00-1.839 0 1.324 1.324 0 000 1.839 1.324 1.324 0 001.839 0zm-6.293 2.616a1.324 1.324 0 000 1.838 1.323 1.323 0 001.838 0 1.324 1.324 0 000-1.838c-.566-.566-1.343-.495-1.838 0zm-12.587-21.496a1.324 1.324 0 000-1.839 1.323 1.323 0 00-1.838 0 1.324 1.324 0 000 1.839c.565.565 1.343.495 1.838 0zm7.849 16.758a1.324 1.324 0 000 1.838 1.324 1.324 0 001.839 0 1.324 1.324 0 000-1.838 1.324 1.324 0 00-1.839 0zm-4.667-4.667a1.324 1.324 0 000 1.839 1.324 1.324 0 001.839 0 1.324 1.324 0 000-1.838c-.566-.566-1.344-.495-1.839 0zm-4.737-4.737a1.324 1.324 0 000 1.838 1.323 1.323 0 001.838 0 1.324 1.324 0 000-1.838 1.323 1.323 0 00-1.838 0zm-4.738-4.738a1.324 1.324 0 000 1.838 1.323 1.323 0 001.838 0 1.324 1.324 0 000-1.838 1.323 1.323 0 00-1.838 0zm.212 9.263a1.324 1.324 0 000 1.838 1.323 1.323 0 001.838 0 1.324 1.324 0 000-1.838c-.494-.495-1.272-.566-1.838 0zm-4.738-4.738a1.324 1.324 0 000 1.84 1.324 1.324 0 001.839 0 1.324 1.324 0 000-1.84c-.495-.494-1.273-.565-1.839 0zm-4.454 4.455a1.324 1.324 0 000 1.839 1.323 1.323 0 001.838 0 1.324 1.324 0 000-1.839 1.323 1.323 0 00-1.838 0zm43.557 16.688a1.324 1.324 0 000-1.838 1.323 1.323 0 00-1.838 0 1.324 1.324 0 000 1.838 1.323 1.323 0 001.838 0zm-4.737-4.737a1.324 1.324 0 000-1.839 1.324 1.324 0 00-1.839 0 1.324 1.324 0 000 1.839 1.324 1.324 0 001.839 0zm-6.293 2.616a1.324 1.324 0 000 1.838 1.323 1.323 0 001.838 0 1.324 1.324 0 000-1.838 1.323 1.323 0 00-1.838 0zm-10.324-46.104a1.324 1.324 0 000 1.839 1.323 1.323 0 001.838 0 1.324 1.324 0 000-1.839 1.323 1.323 0 00-1.838 0zm.212 9.122a1.324 1.324 0 000 1.838 1.323 1.323 0 001.838 0 1.324 1.324 0 000-1.838 1.323 1.323 0 00-1.838 0zm-4.667-4.667a1.324 1.324 0 000 1.839 1.324 1.324 0 001.839 0 1.324 1.324 0 000-1.839 1.324 1.324 0 00-1.839 0zm21.072 30.123c.636-.636.636-1.768 0-2.404-.637-.637-1.768-.637-2.404 0-.637.636-.637 1.767 0 2.404.777.636 1.767.636 2.404 0zm-4.667-7.071c-.636-.637-1.768-.637-2.404 0-.637.636-.637 1.767 0 2.404.636.636 1.768.636 2.404 0a1.686 1.686 0 000-2.404zm-9.405-7c.637-.637.637-1.768 0-2.405-.636-.636-1.767-.636-2.404 0-.636.637-.636 1.768 0 2.405.707.565 1.768.636 2.404 0zm2.546 11.455c-.636.636-.636 1.768 0 2.404.636.636 1.768.636 2.404 0 .636-.636.636-1.768 0-2.404-.636-.637-1.768-.637-2.404 0zm-4.667-4.667c-.636.636-.636 1.768 0 2.404.636.636 1.768.636 2.404 0 .637-.636.637-1.768 0-2.404a1.685 1.685 0 00-2.404 0zm-4.738-4.738c-.636.636-.636 1.768 0 2.404.637.637 1.768.637 2.405 0 .636-.636.636-1.768 0-2.404-.637-.636-1.768-.636-2.405 0zm25.668 16.759c.637-.637.637-1.768 0-2.404-.636-.637-1.767-.637-2.404 0a1.686 1.686 0 000 2.404c.707.565 1.768.636 2.404 0zm-10.111-36.982c.636-.637.636-1.768 0-2.404-.637-.637-1.768-.637-2.404 0-.637.636-.637 1.767 0 2.404.777.636 1.767.636 2.404 0zm.283 9.192c.636-.636.636-1.768 0-2.404-.637-.636-1.768-.636-2.405 0-.636.636-.636 1.768 0 2.404.637.637 1.768.637 2.405 0zm-4.738-4.738c.636-.636.636-1.768 0-2.404-.636-.636-1.768-.636-2.404 0-.636.637-.637 1.768 0 2.404a1.685 1.685 0 002.404 0zm.283 9.193c.636-.637.636-1.768 0-2.404-.636-.637-1.768-.637-2.404 0-.637.636-.637 1.767 0 2.404a1.685 1.685 0 002.404 0zm-2.475 6.576c-.778.778-.848 2.122 0 2.97.778.778 2.121.849 2.97 0 .778-.778.848-2.121 0-2.97-.849-.848-2.121-.848-2.97 0zm16.193-19.728c.778-.778.848-2.122 0-2.97-.778-.778-2.122-.849-2.97 0-.778.778-.849 2.121 0 2.97.778.778 2.121.848 2.97 0zm.141 9.193c.778-.779.849-2.122 0-2.97-.778-.778-2.121-.85-2.97 0-.777.777-.848 2.12 0 2.97.92.777 2.192.777 2.97 0zm-4.667-4.668c.778-.778.849-2.121 0-2.97-.778-.777-2.121-.848-2.97 0-.777.778-.848 2.122 0 2.97.849.707 2.192.778 2.97 0zm.212 9.122c.778-.778.849-2.122 0-2.97-.777-.778-2.121-.849-2.969 0-.778.778-.849 2.121 0 2.97.848.848 2.192.777 2.969 0zm2.051 10.96c-.778.778-.849 2.121 0 2.97.778.778 2.121.848 2.97 0 .778-.778.848-2.121 0-2.97-.919-.778-2.192-.778-2.97 0zm-4.738-4.738c-.777.778-.848 2.122 0 2.97.778.778 2.122.849 2.97 0 .778-.778.849-2.121 0-2.97-.848-.707-2.192-.778-2.97 0zm-4.667-4.666c-.777.777-.848 2.121 0 2.97.778.777 2.122.848 2.97 0 .778-.778.849-2.122 0-2.97-.919-.778-2.192-.778-2.97 0zm16.335-19.446c.99-.99.99-2.546 0-3.536a2.476 2.476 0 00-3.536 0c-.919.92-.99 2.546 0 3.536.99.99 2.546.99 3.536 0zm.283 9.192a2.477 2.477 0 000-3.535 2.476 2.476 0 00-3.536 0c-.99.99-.99 2.545 0 3.535.99.99 2.546.99 3.536 0zm-7.708 10.254c-.99.99-.99 2.545 0 3.535.99.99 2.546.99 3.536 0a2.477 2.477 0 000-3.536 2.476 2.476 0 00-3.536 0z"/></g></svg>