<svg width="361" height="360" fill="none" xmlns="http://www.w3.org/2000/svg"><path d="M-67.712 245.073a1.37 1.37 0 10-1.938-1.938 1.37 1.37 0 001.938 1.938zm14.307 14.308a1.434 1.434 0 10-2.028-2.028 1.434 1.434 0 002.028 2.028zm14.308 14.307a1.497 1.497 0 10-2.116-2.117 1.497 1.497 0 002.116 2.117zm14.293 14.293a1.54 1.54 0 10-2.177-2.177 1.54 1.54 0 002.177 2.177zm14.233 14.233a1.497 1.497 0 10-2.117-2.117 1.497 1.497 0 002.117 2.117zm14.218 14.219a1.434 1.434 0 10-2.028-2.028 1.434 1.434 0 002.028 2.028zm14.219 14.218a1.371 1.371 0 10-1.94-1.939 1.371 1.371 0 001.94 1.939zm-99.633-128.158a1.666 1.666 0 10-2.356-2.356 1.666 1.666 0 002.356 2.356zm14.353 14.352a1.793 1.793 0 10-2.535-2.535 1.793 1.793 0 002.535 2.535zm14.337 14.338a1.898 1.898 0 10-2.683-2.684 1.898 1.898 0 002.683 2.684zm14.353 14.352a2.024 2.024 0 10-2.863-2.863 2.024 2.024 0 002.863 2.863zm14.337 14.338a2.13 2.13 0 10-3.012-3.012 2.13 2.13 0 003.012 3.012zm14.353 14.352a2.256 2.256 0 10-3.191-3.191 2.256 2.256 0 003.19 3.191zM4.14 288.399a2.13 2.13 0 10-3.013-3.012 2.13 2.13 0 003.012 3.012zm14.188 14.188a2.024 2.024 0 10-2.863-2.863 2.024 2.024 0 002.863 2.863zm14.173 14.174a1.898 1.898 0 10-2.684-2.684 1.898 1.898 0 002.684 2.684zm14.189 14.188a1.793 1.793 0 10-2.536-2.535 1.793 1.793 0 002.536 2.535zm14.173 14.174a1.666 1.666 0 10-2.356-2.356 1.666 1.666 0 002.356 2.356zM-95.985 159.749a1.73 1.73 0 10-2.447-2.446 1.73 1.73 0 002.447 2.446zm14.382 14.382a1.898 1.898 0 10-2.683-2.684 1.898 1.898 0 002.683 2.684zm14.383 14.382a2.066 2.066 0 10-2.921-2.922 2.066 2.066 0 002.92 2.922zm14.397 14.397a2.257 2.257 0 10-3.191-3.191 2.257 2.257 0 003.19 3.191zm14.383 14.383a2.426 2.426 0 10-3.431-3.43 2.426 2.426 0 003.43 3.43zm14.381 14.382a2.594 2.594 0 10-3.667-3.668 2.594 2.594 0 003.667 3.668zm14.398 14.397a2.784 2.784 0 10-3.938-3.937 2.784 2.784 0 003.938 3.937zM4.72 260.454a2.952 2.952 0 10-4.174-4.175 2.952 2.952 0 004.175 4.175zm14.144 14.144a2.784 2.784 0 10-3.937-3.937 2.784 2.784 0 003.938 3.937zm14.129 14.129a2.594 2.594 0 10-3.668-3.668 2.594 2.594 0 003.668 3.668zm14.144 14.143a2.424 2.424 0 10-3.428-3.429 2.424 2.424 0 003.428 3.429zm14.143 14.144a2.256 2.256 0 10-3.19-3.191 2.256 2.256 0 003.19 3.191zm14.13 14.129a2.067 2.067 0 10-2.924-2.923 2.067 2.067 0 002.923 2.923zm14.143 14.144a1.898 1.898 0 10-2.684-2.684 1.898 1.898 0 002.684 2.684zm14.144 14.143a1.73 1.73 0 10-2.446-2.445 1.73 1.73 0 002.446 2.445zM-95.94 131.267a1.791 1.791 0 10-2.533-2.534 1.791 1.791 0 002.533 2.534zm14.427 14.427a2.024 2.024 0 10-2.863-2.863 2.024 2.024 0 002.863 2.863zm14.427 14.427a2.256 2.256 0 10-3.19-3.191 2.256 2.256 0 003.19 3.191zm14.426 14.427a2.488 2.488 0 10-3.518-3.519 2.488 2.488 0 003.519 3.519zm14.428 14.427a2.72 2.72 0 10-3.847-3.847 2.72 2.72 0 003.847 3.847zm14.427 14.427a2.952 2.952 0 10-4.175-4.175 2.952 2.952 0 004.175 4.175zm14.427 14.427a3.184 3.184 0 10-4.503-4.503 3.184 3.184 0 004.503 4.503zm14.427 14.427a3.416 3.416 0 10-4.83-4.831 3.416 3.416 0 004.83 4.831zm14.441 14.442a3.67 3.67 0 10-5.188-5.189 3.67 3.67 0 005.189 5.189zm14.085 14.084a3.416 3.416 0 10-4.83-4.831 3.416 3.416 0 004.83 4.831zm14.099 14.099a3.184 3.184 0 10-4.503-4.503 3.184 3.184 0 004.503 4.503zm14.099 14.099a2.952 2.952 0 10-4.175-4.175 2.952 2.952 0 004.175 4.175zm14.099 14.099a2.72 2.72 0 10-3.847-3.847 2.72 2.72 0 003.847 3.847zm14.098 14.099a2.488 2.488 0 10-3.518-3.519 2.488 2.488 0 003.519 3.519zm14.1 14.099a2.257 2.257 0 10-3.192-3.191 2.257 2.257 0 003.192 3.191zm14.099 14.099a2.026 2.026 0 10-2.866-2.863 2.026 2.026 0 002.866 2.863zm14.098 14.099a1.793 1.793 0 10-2.535-2.535 1.793 1.793 0 002.535 2.535zM-95.985 102.697a1.73 1.73 0 10-2.447-2.446 1.73 1.73 0 002.447 2.446zm14.472 14.472a2.024 2.024 0 10-2.863-2.863 2.024 2.024 0 002.863 2.863zm14.472 14.471a2.319 2.319 0 10-3.28-3.28 2.319 2.319 0 003.28 3.28zm14.457 14.457a2.594 2.594 0 10-3.668-3.668 2.594 2.594 0 003.668 3.668zm14.471 14.472a2.89 2.89 0 10-4.086-4.086 2.89 2.89 0 004.086 4.086zm14.472 14.472a3.185 3.185 0 10-4.505-4.504 3.185 3.185 0 004.505 4.504zm14.471 14.471a3.479 3.479 0 10-4.92-4.92 3.479 3.479 0 104.92 4.92zm14.472 14.472a3.774 3.774 0 10-5.337-5.338 3.774 3.774 0 005.337 5.338zm14.472 14.472a4.07 4.07 0 10-5.756-5.756 4.07 4.07 0 005.756 5.756zm14.472 14.471a4.365 4.365 0 10-6.173-6.173 4.365 4.365 0 006.173 6.173zM48.3 246.982a4.07 4.07 0 10-5.756-5.756 4.07 4.07 0 005.756 5.756zm14.054 14.054a3.774 3.774 0 10-5.337-5.338 3.774 3.774 0 005.337 5.338zm14.055 14.054a3.48 3.48 0 10-4.922-4.921 3.48 3.48 0 004.922 4.921zm14.054 14.054a3.184 3.184 0 10-4.503-4.503 3.184 3.184 0 004.503 4.503zm14.054 14.054a2.889 2.889 0 10-4.085-4.085 2.889 2.889 0 004.085 4.085zm14.054 14.055a2.593 2.593 0 10-3.667-3.668 2.593 2.593 0 003.667 3.668zm14.069 14.069a2.32 2.32 0 10-3.281-3.281 2.32 2.32 0 003.281 3.281zm14.054 14.054a2.024 2.024 0 10-2.86-2.863 2.024 2.024 0 002.86 2.863zm14.055 14.054a1.73 1.73 0 10-2.446-2.445 1.73 1.73 0 002.446 2.445zM-81.603 88.553a1.898 1.898 0 10-2.683-2.684 1.898 1.898 0 002.683 2.684zm14.517 14.517a2.257 2.257 0 10-3.192-3.191 2.257 2.257 0 003.192 3.191zm14.502 14.501a2.594 2.594 0 10-3.668-3.668 2.594 2.594 0 003.668 3.668zm14.516 14.517a2.953 2.953 0 10-4.177-4.176 2.953 2.953 0 004.177 4.176zm14.516 14.516a3.31 3.31 0 10-4.682-4.682 3.31 3.31 0 004.682 4.682zm14.517 14.517a3.67 3.67 0 10-5.191-5.19 3.67 3.67 0 005.19 5.19zm14.501 14.501a4.006 4.006 0 10-5.665-5.666 4.006 4.006 0 005.665 5.666zm14.517 14.517a4.366 4.366 0 10-6.175-6.174 4.366 4.366 0 006.175 6.174zM34.5 204.655a4.723 4.723 0 10-6.68-6.68 4.723 4.723 0 006.68 6.68zM49 219.157a5.062 5.062 0 10-7.158-7.158 5.062 5.062 0 007.159 7.158zm14.025 14.024a4.723 4.723 0 10-6.68-6.68 4.723 4.723 0 006.68 6.68zm14.01 14.009a4.365 4.365 0 10-6.173-6.173 4.365 4.365 0 006.173 6.173zm14.009 14.01a4.006 4.006 0 10-5.665-5.666 4.006 4.006 0 005.665 5.666zm14.025 14.024a3.669 3.669 0 10-5.189-5.189 3.669 3.669 0 005.189 5.189zm14.009 14.01a3.31 3.31 0 10-4.681-4.682 3.31 3.31 0 004.681 4.682zm14.01 14.009a2.952 2.952 0 10-4.174-4.175 2.952 2.952 0 004.174 4.175zm14.009 14.01a2.593 2.593 0 10-3.667-3.668 2.593 2.593 0 003.667 3.668zm14.024 14.024a2.257 2.257 0 10-3.191-3.19 2.257 2.257 0 003.191 3.19zm14.01 14.01a1.898 1.898 0 10-2.685-2.684 1.898 1.898 0 002.685 2.684zM-81.767 59.863a1.666 1.666 0 10-2.355-2.356 1.666 1.666 0 002.355 2.356zM-67.22 74.41a2.067 2.067 0 10-2.923-2.923 2.067 2.067 0 002.923 2.922zm14.56 14.56a2.488 2.488 0 10-3.518-3.518 2.488 2.488 0 003.519 3.519zm14.547 14.547a2.89 2.89 0 10-4.086-4.086 2.89 2.89 0 004.086 4.086zm14.561 14.561a3.31 3.31 0 10-4.682-4.682 3.31 3.31 0 004.682 4.682zm14.547 14.546a3.71 3.71 0 10-5.25-5.248 3.71 3.71 0 105.25 5.248zm14.561 14.562a4.134 4.134 0 10-5.847-5.846 4.134 4.134 0 005.847 5.846zm14.546 14.546a4.534 4.534 0 10-6.412-6.412 4.534 4.534 0 006.412 6.412zm14.561 14.561a4.955 4.955 0 10-7.007-7.008 4.955 4.955 0 007.007 7.008zm14.547 14.546a5.356 5.356 0 10-7.576-7.575 5.356 5.356 0 007.576 7.575zm14.56 14.562a5.779 5.779 0 10-8.172-8.172 5.779 5.779 0 008.173 8.172zm13.966 13.964a5.356 5.356 0 10-7.576-7.575 5.356 5.356 0 007.576 7.575zm13.979 13.98a4.955 4.955 0 10-7.007-7.008 4.955 4.955 0 007.007 7.008zm13.965 13.965a4.533 4.533 0 10-6.412-6.412 4.534 4.534 0 006.412 6.412zm13.98 13.979a4.133 4.133 0 10-5.845-5.845 4.133 4.133 0 005.845 5.845zm13.964 13.965a3.71 3.71 0 10-5.248-5.249 3.71 3.71 0 105.248 5.249zm13.98 13.98a3.31 3.31 0 10-4.681-4.682 3.31 3.31 0 004.681 4.682zm13.965 13.964a2.889 2.889 0 10-4.085-4.085 2.889 2.889 0 004.085 4.085zm13.979 13.98a2.488 2.488 0 10-3.518-3.519 2.488 2.488 0 003.518 3.519zm13.965 13.965a2.067 2.067 0 10-2.924-2.923 2.067 2.067 0 002.924 2.923zm13.98 13.98a1.667 1.667 0 10-2.359-2.356 1.667 1.667 0 002.359 2.356zM-67.414 45.69a1.792 1.792 0 10-2.535-2.535 1.792 1.792 0 002.535 2.535zm14.591 14.59a2.257 2.257 0 10-3.191-3.19 2.257 2.257 0 003.19 3.19zm14.591 14.592a2.72 2.72 0 10-3.847-3.847 2.72 2.72 0 003.847 3.847zm14.591 14.591a3.184 3.184 0 10-4.503-4.503 3.184 3.184 0 004.503 4.503zm14.606 14.606a3.67 3.67 0 10-5.19-5.19 3.67 3.67 0 005.19 5.19zM5.556 118.66a4.134 4.134 0 10-5.847-5.846 4.134 4.134 0 005.847 5.846zm14.591 14.591a4.598 4.598 0 10-6.503-6.502 4.598 4.598 0 006.503 6.502zm14.591 14.591a5.062 5.062 0 10-7.159-7.158 5.062 5.062 0 007.159 7.158zm14.606 14.606a5.547 5.547 0 10-7.845-7.844 5.547 5.547 0 007.845 7.844zm14.591 14.591a6.01 6.01 0 10-8.501-8.5 6.01 6.01 0 008.5 8.5zm14.591 14.591a6.475 6.475 0 10-9.157-9.156 6.475 6.475 0 009.157 9.156zm13.934 13.935a6.01 6.01 0 10-8.5-8.5 6.01 6.01 0 008.5 8.5zm13.936 13.935a5.547 5.547 0 10-7.844-7.844 5.547 5.547 0 007.844 7.844zm13.92 13.919a5.061 5.061 0 10-7.159-7.157 5.061 5.061 0 007.159 7.157zm13.935 13.935a4.597 4.597 0 10-6.502-6.501 4.597 4.597 0 006.502 6.501zm13.935 13.935a4.133 4.133 0 10-5.845-5.845 4.133 4.133 0 005.845 5.845zm13.934 13.935a3.67 3.67 0 10-5.19-5.19 3.67 3.67 0 005.19 5.19zm13.921 13.92a3.185 3.185 0 10-4.505-4.503 3.185 3.185 0 004.505 4.503zm13.934 13.935a2.719 2.719 0 10-3.847-3.847 2.72 2.72 0 003.847 3.847zm13.935 13.935a2.257 2.257 0 10-3.191-3.19 2.257 2.257 0 003.191 3.19zm13.935 13.935a1.793 1.793 0 10-2.535-2.535 1.793 1.793 0 002.535 2.535zM-67.712 16.865a1.37 1.37 0 10-1.939-1.938 1.37 1.37 0 001.939 1.938zm14.635 14.636a1.898 1.898 0 10-2.683-2.684 1.898 1.898 0 002.683 2.684zm14.637 14.636a2.425 2.425 0 10-3.43-3.43 2.425 2.425 0 003.43 3.43zm14.635 14.636a2.952 2.952 0 10-4.176-4.176 2.952 2.952 0 004.176 4.176zM-9.17 75.409a3.48 3.48 0 10-4.92-4.921 3.48 3.48 0 004.92 4.92zM5.466 90.044A4.007 4.007 0 10-.2 84.378a4.007 4.007 0 005.666 5.666zm14.636 14.636a4.534 4.534 0 10-6.412-6.412 4.534 4.534 0 006.412 6.412zm14.636 14.636a5.062 5.062 0 10-7.159-7.158 5.062 5.062 0 007.159 7.158zm14.636 14.635a5.588 5.588 0 10-7.904-7.903 5.588 5.588 0 007.904 7.903zm14.636 14.636a6.115 6.115 0 000-8.648 6.114 6.114 0 00-8.65 0 6.115 6.115 0 108.65 8.648zm14.635 14.636a6.643 6.643 0 10-9.394-9.394 6.643 6.643 0 009.394 9.394zm14.651 14.651a7.192 7.192 0 10-10.171-10.17 7.192 7.192 0 0010.17 10.17zm13.875 13.875a6.643 6.643 0 10-9.394-9.394 6.643 6.643 0 009.394 9.394zm13.89 13.89a6.113 6.113 0 000-8.648 6.115 6.115 0 100 8.648zm13.89 13.89a5.589 5.589 0 10-7.903-7.901 5.589 5.589 0 007.903 7.901zm13.891 13.89a5.061 5.061 0 10-7.159-7.157 5.061 5.061 0 007.159 7.157zm13.89 13.891a4.535 4.535 0 10-6.415-6.412 4.535 4.535 0 006.415 6.412zm13.89 13.89a4.006 4.006 0 10-5.666-5.666 4.006 4.006 0 105.666 5.666zm13.89 13.89a3.48 3.48 0 10-4.92-4.921 3.48 3.48 0 004.92 4.921zm13.89 13.89a2.952 2.952 0 10-4.174-4.175 2.952 2.952 0 004.174 4.175zm13.891 13.89a2.424 2.424 0 10-3.428-3.429 2.424 2.424 0 003.428 3.429zm13.89 13.891a1.898 1.898 0 10-2.685-2.684 1.898 1.898 0 002.685 2.684zm13.89 13.89a1.372 1.372 0 00-1.938-1.939 1.37 1.37 0 101.938 1.939zM-53.405 2.647A1.434 1.434 0 10-55.433.62a1.434 1.434 0 002.028 2.028zm14.681 14.681a2.024 2.024 0 10-2.863-2.863 2.024 2.024 0 002.863 2.863zm14.665 14.665a2.594 2.594 0 10-3.668-3.668 2.594 2.594 0 003.668 3.668zm14.681 14.681a3.184 3.184 0 10-4.503-4.503 3.184 3.184 0 004.503 4.503zm14.68 14.68a3.775 3.775 0 10-5.338-5.338 3.775 3.775 0 005.338 5.338zm14.681 14.681a4.365 4.365 0 10-6.173-6.173 4.365 4.365 0 006.173 6.173zm14.68 14.68a4.956 4.956 0 10-7.008-7.008 4.956 4.956 0 007.008 7.008zm14.681 14.681a5.546 5.546 0 10-7.844-7.844 5.546 5.546 0 007.844 7.844zm14.666 14.665a6.115 6.115 0 10-8.65-8.648 6.115 6.115 0 000 8.648 6.114 6.114 0 008.65 0zm14.68 14.681a6.706 6.706 0 10-9.485-9.484 6.706 6.706 0 009.485 9.484zm14.68 14.68a7.296 7.296 0 000-10.318 7.295 7.295 0 00-10.318 0 7.296 7.296 0 000 10.318 7.295 7.295 0 0010.318 0zm14.681 14.681a7.887 7.887 0 10-11.154-11.154 7.887 7.887 0 0011.154 11.154zm13.845 13.845a7.295 7.295 0 000-10.318 7.295 7.295 0 00-10.318 0 7.295 7.295 0 000 10.318 7.295 7.295 0 0010.318 0zm13.846 13.846a6.706 6.706 0 10-9.484-9.484 6.706 6.706 0 009.484 9.484zm13.845 13.845a6.115 6.115 0 10-8.648-8.648 6.115 6.115 0 008.648 8.648zm13.861 13.86a5.547 5.547 0 10-7.847-7.843 5.547 5.547 0 007.847 7.843zm13.845 13.846a4.956 4.956 0 10-7.01-7.008 4.956 4.956 0 007.01 7.008zm13.846 13.845a4.366 4.366 0 10-6.176-6.173 4.366 4.366 0 006.176 6.173zm13.845 13.846a3.775 3.775 0 10-5.338-5.338 3.775 3.775 0 005.338 5.338zm13.845 13.845a3.183 3.183 0 10-4.503-4.503 3.185 3.185 0 004.503 4.503zm13.846 13.846a2.593 2.593 0 10-3.667-3.668 2.593 2.593 0 003.667 3.668zm13.86 13.86a2.024 2.024 0 10-2.86-2.863 2.024 2.024 0 002.86 2.863zm13.846 13.846a1.434 1.434 0 10-2.028-2.028 1.434 1.434 0 002.028 2.028zM-39.097-11.571a1.497 1.497 0 10-2.117-2.117 1.497 1.497 0 002.117 2.117zm14.71 14.711A2.13 2.13 0 10-27.399.126a2.13 2.13 0 003.012 3.012zm14.726 14.724a2.784 2.784 0 10-3.937-3.936 2.784 2.784 0 003.937 3.936zm14.71 14.711a3.416 3.416 0 10-4.831-4.831 3.416 3.416 0 004.83 4.83zM19.774 47.3a4.07 4.07 0 10-5.756-5.756 4.07 4.07 0 005.756 5.756zM34.5 62.025a4.724 4.724 0 10-6.681-6.68 4.724 4.724 0 006.68 6.68zm14.71 14.711a5.356 5.356 0 10-7.576-7.575 5.356 5.356 0 007.576 7.575zM63.935 91.46a6.01 6.01 0 10-8.5-8.499 6.01 6.01 0 008.5 8.5zm14.71 14.711a6.643 6.643 0 10-9.394-9.394 6.643 6.643 0 009.394 9.394zm14.725 14.725a7.296 7.296 0 000-10.318 7.295 7.295 0 00-10.318 0 7.296 7.296 0 000 10.318 7.295 7.295 0 0010.318 0zm14.726 14.726a7.952 7.952 0 000-11.244 7.951 7.951 0 100 11.244zm14.71 14.71a8.583 8.583 0 000-12.138 8.583 8.583 0 00-12.138 0 8.583 8.583 0 000 12.138 8.583 8.583 0 0012.138 0zm13.816 13.815a7.951 7.951 0 10-11.246-11.243 7.951 7.951 0 0011.246 11.243zm13.8 13.801a7.295 7.295 0 000-10.318 7.295 7.295 0 00-10.318 0 7.295 7.295 0 000 10.318 7.295 7.295 0 0010.318 0zm13.801 13.801a6.643 6.643 0 10-9.394-9.394 6.643 6.643 0 009.394 9.394zm13.816 13.816a6.01 6.01 0 10-8.501-8.5 6.01 6.01 0 008.501 8.5zm13.8 13.8a5.356 5.356 0 10-7.574-7.575 5.356 5.356 0 007.574 7.575zm13.816 13.816a4.723 4.723 0 10-6.68 0 4.723 4.723 0 006.68 0zm13.801 13.801a4.071 4.071 0 10-5.758-5.756 4.071 4.071 0 005.758 5.756zm13.8 13.8a3.416 3.416 0 10-4.831-4.83 3.416 3.416 0 004.831 4.83zm13.816 13.816a2.784 2.784 0 10-3.938-3.937 2.784 2.784 0 003.938 3.937zm13.801 13.801a2.13 2.13 0 10-3.01-3.012 2.13 2.13 0 003.01 3.012zm13.815 13.815a1.496 1.496 0 10-2.115-2.117 1.496 1.496 0 002.115 2.117zM-24.804-25.804a1.54 1.54 0 10-2.177-2.177 1.54 1.54 0 002.177 2.177zm14.77 14.77a2.256 2.256 0 10-3.191-3.191 2.256 2.256 0 003.19 3.19zM4.72 3.72A2.952 2.952 0 10.547-.453 2.952 2.952 0 004.72 3.72zm14.77 14.77a3.67 3.67 0 10-5.188-5.188 3.67 3.67 0 005.189 5.189zm14.756 14.756a4.365 4.365 0 10-6.173-6.173 4.365 4.365 0 006.173 6.173zM49 48a5.061 5.061 0 10-7.156-7.157A5.061 5.061 0 0049 48.002zm14.77 14.77a5.778 5.778 0 10-8.17-8.17 5.778 5.778 0 008.17 8.17zm14.756 14.756a6.474 6.474 0 10-9.156-9.156 6.474 6.474 0 009.156 9.156zm14.77 14.77a7.191 7.191 0 10-10.17-10.17 7.191 7.191 0 0010.17 10.17zm14.755 14.755a7.887 7.887 0 10-11.154-11.154 7.887 7.887 0 0011.154 11.154zm14.755 14.755a8.583 8.583 0 000-12.138 8.583 8.583 0 00-12.138 0 8.583 8.583 0 000 12.138 8.583 8.583 0 0012.138 0zm14.77 14.77a9.3 9.3 0 000-13.152 9.3 9.3 0 00-13.152 0 9.3 9.3 0 000 13.152 9.3 9.3 0 0013.152 0zm13.756 13.756a8.583 8.583 0 000-12.138 8.583 8.583 0 00-12.138 0 8.583 8.583 0 000 12.138 8.583 8.583 0 0012.138 0zm13.771 13.771a7.887 7.887 0 10-11.154-11.154 7.887 7.887 0 0011.154 11.154zm13.771 13.771a7.192 7.192 0 10-10.172-10.17 7.192 7.192 0 0010.172 10.17zm13.756 13.756a6.475 6.475 0 10-9.158-9.156 6.475 6.475 0 009.158 9.156zm13.771 13.771a5.78 5.78 0 00-8.172-8.172 5.78 5.78 0 008.172 8.172zm13.756 13.756a5.063 5.063 0 00-7.158-7.158 5.063 5.063 0 007.158 7.158zm13.77 13.77a4.364 4.364 0 10-6.173-6.173 4.364 4.364 0 106.173 6.173zm13.771 13.771a3.669 3.669 0 10-5.189-5.189 3.669 3.669 0 005.189 5.189zm13.756 13.756a2.952 2.952 0 10-4.174-4.175 2.952 2.952 0 004.174 4.175zm13.771 13.771a2.257 2.257 0 10-3.192-3.191 2.257 2.257 0 003.192 3.191zm13.756 13.756a1.54 1.54 0 10-2.178-2.177 1.54 1.54 0 002.178 2.177zM-10.571-40.097a1.497 1.497 0 10-2.117-2.117 1.497 1.497 0 002.117 2.117zM4.14-25.387a2.13 2.13 0 10-3.013-3.012 2.13 2.13 0 003.012 3.012zm14.724 14.726a2.784 2.784 0 10-3.936-3.937 2.784 2.784 0 003.936 3.937zm14.711 14.71a3.416 3.416 0 10-4.832-4.831 3.416 3.416 0 004.832 4.83zM48.3 18.774a4.07 4.07 0 10-5.756-5.756 4.07 4.07 0 005.756 5.756zM63.025 33.5a4.724 4.724 0 10-6.68-6.68 4.724 4.724 0 006.68 6.68zm14.711 14.71a5.356 5.356 0 10-7.576-7.575 5.356 5.356 0 007.576 7.575zM92.46 62.935a6.01 6.01 0 10-8.499-8.5 6.01 6.01 0 008.5 8.5zm14.711 14.71a6.643 6.643 0 10-9.395-9.394 6.643 6.643 0 009.395 9.394zm14.725 14.725a7.295 7.295 0 000-10.318 7.296 7.296 0 00-10.318 0 7.295 7.295 0 000 10.318 7.296 7.296 0 0010.318 0zm14.726 14.726a7.951 7.951 0 10-11.244-11.242 7.951 7.951 0 0011.244 11.242zm14.71 14.71a8.583 8.583 0 000-12.138 8.583 8.583 0 00-12.138 0 8.583 8.583 0 000 12.138 8.583 8.583 0 0012.138 0zm13.815 13.816a7.95 7.95 0 10-11.244-11.244 7.95 7.95 0 0011.244 11.244zm13.801 13.8a7.295 7.295 0 000-10.318 7.295 7.295 0 00-10.318 0 7.295 7.295 0 000 10.318 7.295 7.295 0 0010.318 0zm13.801 13.801a6.643 6.643 0 10-9.394-9.394 6.643 6.643 0 009.394 9.394zm13.816 13.816a6.01 6.01 0 10-8.501-8.5 6.01 6.01 0 008.501 8.5zm13.8 13.8a5.356 5.356 0 10-7.574-7.575 5.356 5.356 0 007.574 7.575zm13.816 13.816a4.723 4.723 0 10-6.68 0 4.723 4.723 0 006.68 0zm13.801 13.801a4.071 4.071 0 10-5.758-5.756 4.071 4.071 0 005.758 5.756zm13.8 13.8a3.416 3.416 0 10-4.831-4.831 3.416 3.416 0 004.831 4.831zm13.816 13.816a2.784 2.784 0 10-3.938-3.937 2.784 2.784 0 003.938 3.937zm13.801 13.801a2.13 2.13 0 10-3.012-3.013 2.13 2.13 0 003.012 3.013zm13.815 13.815a1.496 1.496 0 10-2.115-2.117 1.496 1.496 0 002.115 2.117zM3.647-54.405a1.434 1.434 0 10-2.028-2.028 1.434 1.434 0 002.028 2.028zm14.681 14.681a2.024 2.024 0 10-2.863-2.863 2.024 2.024 0 002.863 2.863zm14.665 14.665a2.594 2.594 0 10-3.668-3.668 2.594 2.594 0 003.668 3.668zm14.681 14.681a3.184 3.184 0 10-4.504-4.503 3.184 3.184 0 004.504 4.503zm14.68 14.68a3.775 3.775 0 10-5.338-5.338 3.775 3.775 0 005.338 5.338zm14.681 14.681a4.365 4.365 0 10-6.174-6.173 4.365 4.365 0 006.174 6.173zm14.68 14.68a4.956 4.956 0 10-7.008-7.008 4.956 4.956 0 007.008 7.008zm14.681 14.681a5.546 5.546 0 10-7.843-7.843 5.546 5.546 0 007.843 7.843zm14.665 14.666a6.114 6.114 0 000-8.65 6.115 6.115 0 10-8.648 8.65 6.115 6.115 0 008.648 0zm14.681 14.68a6.706 6.706 0 10-9.484-9.484 6.706 6.706 0 109.484 9.484zm14.68 14.68a7.295 7.295 0 000-10.318 7.296 7.296 0 00-10.318 0 7.295 7.295 0 000 10.318 7.296 7.296 0 0010.318 0zm14.681 14.681a7.887 7.887 0 10-11.154-11.154 7.887 7.887 0 0011.154 11.154zm13.845 13.845a7.295 7.295 0 000-10.318 7.295 7.295 0 00-10.318 0 7.295 7.295 0 000 10.318 7.295 7.295 0 0010.318 0zm13.846 13.846a6.706 6.706 0 10-9.484-9.484 6.706 6.706 0 009.484 9.484zm13.845 13.845a6.115 6.115 0 10-8.648-8.648 6.115 6.115 0 008.648 8.648zm13.861 13.861a5.547 5.547 0 10-7.844-7.844 5.547 5.547 0 007.844 7.844zm13.845 13.845a4.956 4.956 0 10-7.01-7.008 4.956 4.956 0 007.01 7.008zm13.845 13.846a4.366 4.366 0 10-6.174-6.174 4.366 4.366 0 006.174 6.174zm13.846 13.845a3.775 3.775 0 10-5.338-5.338 3.775 3.775 0 005.338 5.338zm13.845 13.845a3.183 3.183 0 10-4.503-4.503 3.185 3.185 0 004.503 4.503zm13.846 13.846a2.593 2.593 0 10-3.667-3.668 2.593 2.593 0 003.667 3.668zm13.86 13.86a2.024 2.024 0 10-2.86-2.863 2.024 2.024 0 002.86 2.863zm13.846 13.846a1.434 1.434 0 10-2.028-2.028 1.434 1.434 0 002.028 2.028zM17.865-68.712a1.37 1.37 0 10-1.938-1.939 1.37 1.37 0 001.938 1.939zm14.636 14.635a1.898 1.898 0 10-2.684-2.684 1.898 1.898 0 002.684 2.684zM47.137-39.44a2.425 2.425 0 10-3.43-3.43 2.425 2.425 0 003.43 3.43zm14.636 14.635a2.952 2.952 0 10-4.175-4.175 2.952 2.952 0 004.175 4.175zM76.409-10.17a3.48 3.48 0 10-4.922-4.92 3.48 3.48 0 004.922 4.92zM91.044 4.466A4.007 4.007 0 1085.378-1.2a4.007 4.007 0 005.666 5.666zm14.636 14.636a4.533 4.533 0 10-6.412-6.412 4.534 4.534 0 106.412 6.412zm14.636 14.636a5.062 5.062 0 10-7.16-7.158 5.062 5.062 0 007.16 7.158zm14.635 14.636a5.588 5.588 0 10-7.903-7.903 5.588 5.588 0 007.903 7.903zm14.636 14.636a6.116 6.116 0 10-8.65-8.65 6.116 6.116 0 008.65 8.65zm14.636 14.635a6.643 6.643 0 10-9.395-9.394 6.643 6.643 0 009.395 9.394zm14.651 14.651a7.191 7.191 0 10-10.17-10.17 7.191 7.191 0 0010.17 10.17zm13.875 13.875a6.643 6.643 0 10-9.394-9.394 6.643 6.643 0 009.394 9.394zm13.89 13.89a6.115 6.115 0 10-8.648-8.648 6.115 6.115 0 008.648 8.648zm13.89 13.89a5.588 5.588 0 10-7.902-7.903 5.588 5.588 0 007.902 7.903zm13.89 13.891a5.06 5.06 0 10-7.156-7.158 5.06 5.06 0 007.156 7.158zm13.891 13.89a4.535 4.535 0 10-6.415-6.412 4.535 4.535 0 006.415 6.412zm13.89 13.89a4.006 4.006 0 10-5.666-5.666 4.006 4.006 0 105.666 5.666zm13.89 13.89a3.478 3.478 0 10-4.921-4.92 3.48 3.48 0 004.921 4.92zm13.89 13.89a2.952 2.952 0 10-4.174-4.175 2.952 2.952 0 004.174 4.175zm13.89 13.891a2.425 2.425 0 10-3.428-3.43 2.425 2.425 0 003.428 3.43zm13.891 13.89a1.898 1.898 0 10-2.685-2.684 1.898 1.898 0 002.685 2.684zm13.89 13.89a1.37 1.37 0 10-1.939-1.938 1.37 1.37 0 001.939 1.938zM46.69-68.414a1.793 1.793 0 10-2.536-2.535 1.793 1.793 0 002.536 2.535zm14.59 14.591a2.256 2.256 0 10-3.19-3.191 2.256 2.256 0 003.19 3.19zm14.592 14.591a2.72 2.72 0 10-3.848-3.847 2.72 2.72 0 003.848 3.847zm14.591 14.591a3.184 3.184 0 10-4.504-4.503 3.184 3.184 0 004.504 4.503zm14.606 14.606a3.67 3.67 0 10-5.189-5.19 3.67 3.67 0 005.189 5.19zM119.66 4.556a4.133 4.133 0 10-5.846-5.845 4.133 4.133 0 005.846 5.845zm14.591 14.591a4.598 4.598 0 10-6.503-6.501 4.598 4.598 0 006.503 6.5zm14.591 14.591a5.062 5.062 0 10-7.16-7.158 5.062 5.062 0 007.16 7.158zm14.606 14.606a5.547 5.547 0 10-7.844-7.842 5.547 5.547 0 007.844 7.842zm14.591 14.591a6.01 6.01 0 10-8.5-8.5 6.01 6.01 0 008.5 8.5zm14.591 14.591a6.474 6.474 0 10-9.157-9.156 6.474 6.474 0 009.157 9.156zm13.935 13.934a6.01 6.01 0 10-8.5-8.499 6.01 6.01 0 008.5 8.5zm13.935 13.936a5.547 5.547 0 10-7.844-7.842 5.547 5.547 0 007.844 7.842zm13.919 13.92a5.06 5.06 0 10-7.156-7.158 5.06 5.06 0 007.156 7.158zm13.935 13.935a4.597 4.597 0 10-6.5-6.502 4.597 4.597 0 006.5 6.502zm13.935 13.935a4.134 4.134 0 00-5.845-5.846 4.134 4.134 0 005.845 5.846zm13.935 13.935a3.67 3.67 0 10-5.19-5.19 3.67 3.67 0 005.19 5.19zm13.92 13.92a3.184 3.184 0 10-4.503-4.504 3.184 3.184 0 004.503 4.504zm13.935 13.934a2.719 2.719 0 10-3.847-3.847 2.72 2.72 0 003.847 3.847zm13.935 13.935a2.257 2.257 0 10-3.192-3.191 2.257 2.257 0 003.192 3.191zm13.935 13.935a1.793 1.793 0 10-2.535-2.535 1.793 1.793 0 002.535 2.535zM60.863-82.767a1.666 1.666 0 10-2.356-2.356 1.666 1.666 0 002.356 2.356zM75.41-68.22a2.067 2.067 0 10-2.923-2.923 2.067 2.067 0 002.922 2.923zm14.56 14.56a2.488 2.488 0 10-3.518-3.518 2.488 2.488 0 003.519 3.519zm14.547 14.547a2.89 2.89 0 10-4.087-4.086 2.89 2.89 0 004.087 4.086zm14.561 14.561a3.31 3.31 0 10-4.682-4.682 3.31 3.31 0 004.682 4.682zm14.546 14.547a3.71 3.71 0 10-5.248-5.25 3.71 3.71 0 105.248 5.25zm14.562 14.561a4.133 4.133 0 10-5.846-5.845 4.133 4.133 0 005.846 5.845zm14.546 14.546a4.535 4.535 0 10-6.415-6.412 4.535 4.535 0 006.415 6.412zm14.561 14.561a4.956 4.956 0 10-7.01-7.008 4.956 4.956 0 007.01 7.008zm14.546 14.547a5.356 5.356 0 10-7.574-7.575 5.356 5.356 0 007.574 7.575zm14.562 14.56a5.779 5.779 0 10-8.174-8.17 5.779 5.779 0 008.174 8.17zm13.964 13.966a5.356 5.356 0 10-7.574-7.575 5.356 5.356 0 007.574 7.575zm13.98 13.979a4.956 4.956 0 10-7.01-7.008 4.956 4.956 0 007.01 7.008zm13.965 13.965a4.535 4.535 0 10-6.415-6.412 4.535 4.535 0 006.415 6.412zm13.979 13.98a4.134 4.134 0 00-5.845-5.846 4.134 4.134 0 005.845 5.846zm13.965 13.964a3.711 3.711 0 10-5.249-5.248 3.711 3.711 0 005.249 5.248zm13.98 13.98a3.31 3.31 0 10-4.681-4.682 3.31 3.31 0 004.681 4.682zm13.964 13.965a2.888 2.888 0 10-4.085-4.086 2.89 2.89 0 004.085 4.086zm13.98 13.979a2.488 2.488 0 10-3.518-3.519 2.488 2.488 0 003.518 3.519zm13.965 13.965a2.066 2.066 0 10-2.921-2.922 2.066 2.066 0 002.921 2.922zm13.98 13.98a1.667 1.667 0 10-2.359-2.356 1.667 1.667 0 002.359 2.356zM89.553-82.603a1.898 1.898 0 10-2.684-2.684 1.898 1.898 0 002.684 2.684zm14.517 14.517a2.257 2.257 0 10-3.192-3.191 2.257 2.257 0 003.192 3.19zm14.501 14.502a2.594 2.594 0 10-3.668-3.669 2.594 2.594 0 003.668 3.669zm14.517 14.516a2.952 2.952 0 10-4.175-4.175 2.952 2.952 0 004.175 4.175zm14.516 14.516a3.31 3.31 0 10-4.682-4.682 3.31 3.31 0 004.682 4.682zm14.517 14.517a3.67 3.67 0 10-5.192-5.188 3.67 3.67 0 005.192 5.188zm14.501 14.501a4.006 4.006 0 10-5.665-5.666 4.006 4.006 0 005.665 5.666zm14.517 14.517a4.366 4.366 0 00-6.174-6.173 4.366 4.366 0 006.174 6.173zM205.655 33.5a4.723 4.723 0 10-6.68-6.68 4.723 4.723 0 106.68 6.68zM220.157 48a5.062 5.062 0 10-7.16-7.157 5.062 5.062 0 007.16 7.158zm14.024 14.025a4.723 4.723 0 10-6.679-6.68 4.723 4.723 0 006.679 6.68zm14.009 14.01a4.365 4.365 0 10-6.172-6.173 4.365 4.365 0 006.172 6.173zm14.01 14.009a4.006 4.006 0 10-5.665-5.666 4.006 4.006 0 005.665 5.666zm14.024 14.025a3.67 3.67 0 10-5.19-5.19 3.67 3.67 0 005.19 5.19zm14.01 14.009a3.31 3.31 0 10-4.681-4.682 3.31 3.31 0 004.681 4.682zm14.009 14.01a2.953 2.953 0 10-4.177-4.176 2.953 2.953 0 004.177 4.176zm14.01 14.009a2.593 2.593 0 10-3.667-3.668 2.593 2.593 0 003.667 3.668zm14.024 14.024a2.257 2.257 0 10-3.192-3.191 2.257 2.257 0 003.192 3.191zm14.01 14.01a1.898 1.898 0 10-2.685-2.684 1.898 1.898 0 002.685 2.684zM103.697-96.985a1.73 1.73 0 10-2.447-2.445 1.73 1.73 0 002.447 2.445zm14.472 14.472a2.026 2.026 0 10-2.866-2.863 2.026 2.026 0 002.866 2.863zm14.471 14.472a2.32 2.32 0 10-3.28-3.28 2.32 2.32 0 003.28 3.28zm14.457 14.457a2.594 2.594 0 10-3.668-3.669 2.594 2.594 0 003.668 3.669zm14.472 14.471a2.89 2.89 0 10-4.087-4.086 2.89 2.89 0 004.087 4.086zm14.472 14.472a3.185 3.185 0 10-4.506-4.503 3.185 3.185 0 004.506 4.503zm14.471 14.471a3.48 3.48 0 10-4.92-4.92 3.48 3.48 0 004.92 4.92zm14.472 14.472a3.775 3.775 0 10-5.339-5.338 3.775 3.775 0 005.339 5.338zm14.472 14.472a4.07 4.07 0 10-5.758-5.756 4.07 4.07 0 005.758 5.756zm14.471 14.472a4.365 4.365 0 10-6.172-6.173 4.365 4.365 0 006.172 6.173zM247.982 47.3a4.07 4.07 0 10-5.758-5.756 4.07 4.07 0 005.758 5.756zm14.054 14.054a3.775 3.775 0 10-5.339-5.338 3.775 3.775 0 005.339 5.338zm14.054 14.055a3.48 3.48 0 10-4.92-4.921 3.48 3.48 0 004.92 4.92zm14.054 14.054a3.183 3.183 0 10-4.5-4.503 3.183 3.183 0 004.5 4.503zm14.054 14.054a2.888 2.888 0 10-4.085-4.087 2.888 2.888 0 004.085 4.087zm14.055 14.054a2.593 2.593 0 10-3.667-3.668 2.593 2.593 0 003.667 3.668zm14.069 14.069a2.319 2.319 0 10-3.281-3.28 2.319 2.319 0 103.281 3.28zm14.054 14.054a2.024 2.024 0 10-2.863-2.863 2.024 2.024 0 102.863 2.863zm14.054 14.055a1.729 1.729 0 10-2.443-2.446 1.729 1.729 0 002.443 2.446zM132.267-96.94a1.792 1.792 0 10-2.535-2.535 1.792 1.792 0 002.535 2.535zm14.427 14.427a2.024 2.024 0 10-2.86-2.863 2.024 2.024 0 002.86 2.863zm14.427 14.427a2.256 2.256 0 10-3.191-3.191 2.256 2.256 0 003.191 3.19zm14.427 14.426a2.488 2.488 0 10-3.518-3.518 2.488 2.488 0 003.518 3.519zm14.427 14.428a2.72 2.72 0 10-3.847-3.847 2.72 2.72 0 003.847 3.847zm14.427 14.427a2.952 2.952 0 10-4.175-4.175 2.952 2.952 0 004.175 4.175zm14.427 14.427a3.183 3.183 0 10-4.5-4.503 3.183 3.183 0 004.5 4.503zm14.427 14.427a3.416 3.416 0 10-4.831-4.832 3.416 3.416 0 004.831 4.832zm14.442 14.441a3.67 3.67 0 10-5.189-5.188 3.67 3.67 0 005.189 5.189zm14.084 14.085a3.416 3.416 0 10-4.832-4.831 3.416 3.416 0 004.832 4.83zm14.099 14.099a3.183 3.183 0 10-4.5-4.503 3.183 3.183 0 004.5 4.503zm14.099 14.099a2.952 2.952 0 10-4.175-4.176 2.952 2.952 0 004.175 4.176zm14.099 14.099a2.72 2.72 0 10-3.847-3.848 2.72 2.72 0 003.847 3.848zm14.099 14.098a2.488 2.488 0 10-3.518-3.519 2.488 2.488 0 003.518 3.52zm14.099 14.1a2.257 2.257 0 10-3.193-3.191 2.257 2.257 0 003.193 3.191zm14.099 14.099a2.024 2.024 0 10-2.863-2.863 2.024 2.024 0 102.863 2.863zm14.099 14.098a1.791 1.791 0 10-2.535-2.534 1.791 1.791 0 102.535 2.534zM160.749-96.985a1.73 1.73 0 10-2.447-2.445 1.73 1.73 0 002.447 2.445zm14.382 14.382a1.898 1.898 0 10-2.685-2.684 1.898 1.898 0 002.685 2.684zm14.382 14.383a2.067 2.067 0 10-2.923-2.923 2.067 2.067 0 002.923 2.923zm14.397 14.397a2.256 2.256 0 10-3.191-3.191 2.256 2.256 0 003.191 3.19zm14.383 14.383a2.425 2.425 0 10-3.43-3.43 2.425 2.425 0 003.43 3.43zm14.382 14.381a2.594 2.594 0 10-3.668-3.668 2.594 2.594 0 003.668 3.668zm14.397 14.398a2.784 2.784 0 10-3.937-3.937 2.784 2.784 0 003.937 3.937zM261.454 3.72a2.952 2.952 0 10-4.175-4.174 2.952 2.952 0 004.175 4.175zm14.144 14.144a2.784 2.784 0 10-3.937-3.936 2.784 2.784 0 003.937 3.936zm14.129 14.129a2.594 2.594 0 10-3.668-3.668 2.594 2.594 0 003.668 3.668zm14.143 14.144a2.424 2.424 0 10-3.427-3.43 2.424 2.424 0 003.427 3.43zm14.144 14.143a2.257 2.257 0 10-3.192-3.19 2.257 2.257 0 003.192 3.19zm14.129 14.13a2.067 2.067 0 10-2.923-2.923 2.067 2.067 0 002.923 2.922zm14.144 14.143a1.898 1.898 0 10-2.685-2.684 1.898 1.898 0 002.685 2.684zm14.143 14.144a1.729 1.729 0 10-2.443-2.446 1.729 1.729 0 002.443 2.446zM203.493-82.767a1.667 1.667 0 10-2.359-2.356 1.667 1.667 0 002.359 2.356zm14.352 14.353a1.793 1.793 0 10-2.535-2.535 1.793 1.793 0 002.535 2.535zm14.338 14.337a1.898 1.898 0 10-2.685-2.684 1.898 1.898 0 002.685 2.684zm14.352 14.353a2.024 2.024 0 10-2.86-2.863 2.024 2.024 0 002.86 2.863zm14.338 14.337a2.13 2.13 0 10-3.01-3.012 2.13 2.13 0 003.01 3.012zm14.352 14.353a2.257 2.257 0 10-3.192-3.191 2.257 2.257 0 003.192 3.19zM289.399 3.14a2.13 2.13 0 10-3.012-3.012 2.13 2.13 0 003.012 3.011zm14.188 14.188a2.024 2.024 0 10-2.86-2.863 2.024 2.024 0 002.86 2.863zm14.174 14.173a1.898 1.898 0 10-2.685-2.684 1.898 1.898 0 002.685 2.684zm14.188 14.189a1.792 1.792 0 10-2.535-2.535 1.792 1.792 0 002.535 2.535zm14.174 14.173a1.667 1.667 0 10-2.359-2.356 1.667 1.667 0 002.359 2.356zM246.073-68.712a1.371 1.371 0 10-1.94-1.939 1.371 1.371 0 001.94 1.939zm14.308 14.307a1.434 1.434 0 10-2.028-2.028 1.434 1.434 0 002.028 2.028zm14.307 14.308a1.497 1.497 0 10-2.116-2.117 1.497 1.497 0 002.116 2.117zm14.293 14.293a1.54 1.54 0 10-2.178-2.177 1.54 1.54 0 002.178 2.177zm14.233 14.233a1.497 1.497 0 10-2.116-2.117 1.497 1.497 0 002.116 2.117zm14.219 14.218A1.434 1.434 0 10315.405.62a1.434 1.434 0 002.028 2.028zm14.218 14.219a1.371 1.371 0 10-1.94-1.939 1.371 1.371 0 001.94 1.939z" opacity=".5" fill="#ECC64C"/></svg>