<svg width="38" height="37" fill="none" xmlns="http://www.w3.org/2000/svg"><path d="M17.565 2.335c.461-.934.692-1.401 1.005-1.55a1 1 0 01.86 0c.313.149.544.616 1.005 1.55l4.373 8.86c.136.275.204.413.304.52a.986.986 0 00.31.226c.133.062.285.084.59.129l9.782 1.43c1.03.15 1.545.226 1.784.477a1 1 0 01.265.819c-.045.343-.418.707-1.164 1.433l-7.076 6.892c-.22.215-.331.322-.402.45a1 1 0 00-.12.366c-.017.145.01.297.061.6l1.67 9.736c.176 1.026.264 1.54.099 1.844a1 1 0 01-.697.506c-.34.063-.802-.18-1.724-.664l-8.745-4.6c-.273-.142-.409-.214-.553-.242a1.001 1.001 0 00-.384 0c-.144.028-.28.1-.553.243L9.51 35.959c-.922.485-1.383.727-1.724.664a1 1 0 01-.697-.506c-.165-.304-.077-.818.1-1.844l1.669-9.735c.052-.304.078-.456.06-.6a1 1 0 00-.119-.367c-.071-.128-.181-.235-.402-.45L1.321 16.23C.575 15.504.202 15.14.157 14.797a1 1 0 01.265-.819c.239-.252.754-.327 1.784-.477l9.783-1.43c.304-.045.456-.067.588-.129a.964.964 0 00.311-.226c.1-.107.168-.245.304-.52l4.373-8.86z" fill="#DE6489"/></svg>