<svg width="20" height="21" fill="none" xmlns="http://www.w3.org/2000/svg"><path d="M5 6.5h5M5 10h8m-8 6v2.335c0 .533 0 .8.11.937a.5.5 0 00.39.188c.176 0 .384-.167.8-.5l2.385-1.908c.488-.39.731-.585 1.002-.724.241-.122.497-.212.762-.267.299-.061.61-.061 1.235-.061H14.2c1.68 0 2.52 0 3.162-.327a3 3 0 001.311-1.311C19 13.72 19 12.88 19 11.2V5.8c0-1.68 0-2.52-.327-3.162a3 3 0 00-1.311-1.311C16.72 1 15.88 1 14.2 1H5.8c-1.68 0-2.52 0-3.162.327a3 3 0 00-1.311 1.311C1 3.28 1 4.12 1 5.8V12c0 .93 0 1.395.102 1.777a3 3 0 002.122 2.12C3.605 16 4.07 16 5 16z" stroke="#1F222C" stroke-width="2" stroke-linecap="round" stroke-linejoin="round"/></svg>