<svg width="1600" height="120" fill="none" xmlns="http://www.w3.org/2000/svg"><path fill-rule="evenodd" clip-rule="evenodd" d="M0 120l7.5-44C28.833 78.744 73 21.203 122.667 21.203c58.833 0 93 46.654 134.333 43.91 40-2.745 71-49.399 112.333-35.677C410.667 43.158 450.667 81.579 492 87.068c46 0 49.167-57.632 90.5-57.632 40 0 114.833 63.12 156.167 57.632C780 81.578 820 43.158 861.333 21.203 902.667-.752 944-6.241 984 7.48c41.33 13.722 82.67 46.654 124 57.632 41.33 10.977 81.33 0 122.67-16.466 41.33-16.467 82.66-38.422 122.66-35.677 41.34 2.744 82.67 30.188 124 52.143 40 21.955 81.34 38.421 102.67 46.654l20 8.233H0z" fill="#DCD3FF"/><path fill-rule="evenodd" clip-rule="evenodd" d="M0 0l18.667 12.5C38.667 25 76 50 114.667 65 152 80 190.667 85 228 70c38.667-15 77.333-50 114.667-62.5C381.333-5 418.667 5 457.333 20c37.334 15 76 35 114.667 35 37.333 0 76-20 113.333-17.5C724 40 761.333 65 800 77.5s76 12.5 114.667 15c37.333 2.5 76 7.5 113.333-5 38.67-12.5 77.33-42.5 114.67-60 38.66-17.5 76-22.5 114.66-12.5 37.34 10 76 35 114.67 45 37.33 10 76 5 113.33 5 38.67 0 76 5 96 7.5L1600 75v45H0V0z" fill="#F2F9FF"/></svg>